<svg width="180mm" height="45mm" version="1.1" viewBox="0 0 180 45" xml:space="preserve" xmlns="http://www.w3.org/2000/svg" xmlns:xlink="http://www.w3.org/1999/xlink"><defs><linearGradient id="a"><stop stop-color="#9f9e9c" offset="0"/><stop stop-color="#eceae9" offset=".7"/><stop stop-color="#eceae9" offset="1"/></linearGradient><clipPath id="d"><path d="m0 0h227v86h-227z"/></clipPath><linearGradient id="c" x1="118.48" x2="124.64" y1="122.01" y2="120.36" gradientTransform="matrix(-3.7795 0 0 -3.7795 264.5 546.19)" gradientUnits="userSpaceOnUse" xlink:href="#a"/><linearGradient id="b" x1="118.48" x2="124.64" y1="122.01" y2="120.36" gradientTransform="matrix(3.7795 0 0 3.7795 -782.67 -376.12)" gradientUnits="userSpaceOnUse" xlink:href="#a"/></defs><g transform="matrix(.26458 0 0 .26458 190 0)"><g stroke-linejoin="round"><rect x="-718.11" y="-3.9123e-7" width="680.31" height="170.08" fill="#fff" stroke-dasharray="56.6929, 56.6929" stroke-width="18.898" style="-inkscape-stroke:none;paint-order:fill markers stroke"/><path d="m-718.11-2.8365e-6v170.08h217.82c-46.966-1.5e-4 -85.039-38.073-85.039-85.039 1.5e-4 -46.966 38.073-85.039 85.039-85.039z" fill="#df0209" stroke-dasharray="56.6929, 56.6929" stroke-width="18.898" style="-inkscape-stroke:none;paint-order:fill markers stroke"/><path d="m-718.11-2.8365e-6v170.08h406.52l-46.539-170.08z" fill="#c061cb" stroke-dasharray="66.7313, 66.7313" stroke-width="22.244" style="-inkscape-stroke:none;paint-order:fill markers stroke"/><path d="m-206.73-2.8365e-6 46.685 170.08h122.25v-170.08z" fill="#613583" stroke-dasharray="56.6929, 56.6929" stroke-width="18.898" style="-inkscape-stroke:none;paint-order:fill markers stroke"/><path d="m-171.41 73.212q0 0.83803-0.54939 1.3502-0.54936 0.51213-1.6481 0.51213h-1.3129v2.7749h-0.65182v-6.5088h1.9648q1.0894 0 1.6388 0.51213 0.55869 0.51216 0.55869 1.3595zm-2.1975 1.3223q1.5271 0 1.5271-1.3223 0-1.3502-1.5271-1.3502h-1.3129v2.6724zm2.989 0.76354q0-0.78217 0.30727-1.3688 0.31673-0.59596 0.86597-0.91257 0.55869-0.3258 1.2571-0.3258 0.72627 0 1.2477 0.33524 0.53076 0.33524 0.76354 0.85667v-1.1174h0.65181v5.0841h-0.65181v-1.1267q-0.24227 0.52146-0.77284 0.866-0.52146 0.33524-1.2478 0.33524-0.68905 0-1.2477-0.3258-0.54939-0.3258-0.86597-0.92186-0.30727-0.59592-0.30727-1.3781zm4.4416 0.0076q0-0.61455-0.25133-1.0802-0.25134-0.46556-0.68905-0.71698-0.42833-0.25134-0.94976-0.25134-0.54009 0-0.96843 0.24227-0.42833 0.24189-0.67974 0.70768-0.24189 0.45626-0.24189 1.0894 0 0.62389 0.24189 1.0987 0.25133 0.4656 0.67974 0.71701 0.42834 0.24189 0.96843 0.24189 0.52143 0 0.94976-0.25134 0.43763-0.25134 0.68905-0.71698 0.25133-0.46556 0.25133-1.0802zm2.7935-1.5364q0.2143-0.52142 0.65182-0.8101 0.44693-0.28876 1.0894-0.28876v0.67975h-0.17689q-0.70767 0-1.136 0.38177-0.42833 0.38177-0.42833 1.2757v2.84h-0.65182v-5.0841h0.65182zm2.421 1.5364q0-0.79147 0.31673-1.3781 0.31672-0.59596 0.8753-0.91257 0.55869-0.3258 1.2757-0.3258 0.94046 0 1.5457 0.46556 0.61455 0.46556 0.79147 1.2664h-0.69838q-0.1304-0.54939-0.56799-0.85667-0.42833-0.31672-1.0708-0.31672-0.51216 0-0.92186 0.23282-0.4097 0.23282-0.65182 0.69838-0.23282 0.45626-0.23282 1.1267 0 0.67045 0.23282 1.136 0.24227 0.4656 0.65182 0.69838 0.4097 0.23282 0.92186 0.23282 0.64249 0 1.0708-0.30728 0.43763-0.31672 0.56799-0.8753h0.69838q-0.17688 0.78217-0.79147 1.2571-0.61459 0.4749-1.5457 0.4749-0.71701 0-1.2757-0.31672-0.55869-0.3258-0.8753-0.91253-0.31673-0.59592-0.31673-1.3874zm10.606-0.26986q0 0.3258-0.0189 0.50279h-4.2182q0.0189 0.57732 0.27024 0.99636 0.26078 0.4097 0.67045 0.62389 0.4097 0.2143 0.89389 0.2143 0.63319 0 1.0615-0.30728 0.43763-0.30728 0.57732-0.82874h0.68905q-0.18633 0.74494-0.80077 1.2198-0.60525 0.4656-1.5271 0.4656-0.71697 0-1.285-0.31672-0.56799-0.3258-0.89389-0.91253-0.31673-0.59592-0.31673-1.3874 0-0.79147 0.31673-1.3874 0.31672-0.59592 0.88459-0.91253 0.56799-0.31672 1.2943-0.31672 0.72632 0 1.2664 0.31672 0.54939 0.30728 0.83804 0.84737 0.29782 0.54006 0.29782 1.1826zm-0.66112 0.0189q8e-3 -0.57732-0.23282-0.98702-0.23281-0.4097-0.64252-0.61455-0.4097-0.20485-0.89389-0.20485-0.4749 0-0.8753 0.20485-0.40041 0.20485-0.65182 0.61455-0.25134 0.4097-0.27931 0.98702zm2.5048-1.285q0.2143-0.52142 0.65182-0.8101 0.44696-0.28876 1.0894-0.28876v0.6797h-0.17689q-0.70768 0-1.136 0.38177t-0.42833 1.2757v2.84h-0.65182v-5.0841h0.65182zm3.0449-1.9647q-0.1954 0-0.33524-0.13946-0.13985-0.13984-0.13985-0.34469 0-0.20485 0.13985-0.33524 0.13946-0.13984 0.33524-0.13984 0.1954 0 0.33524 0.13984 0.13985 0.13039 0.13985 0.33524 0 0.20485-0.13985 0.34469-0.13946 0.13946-0.33524 0.13946zm0.3258 0.95909v5.0841h-0.65182v-5.0841zm1.1826 2.5328q0-0.78217 0.30728-1.3688 0.31672-0.59596 0.86596-0.91257 0.55869-0.3258 1.2571-0.3258 0.72632 0 1.2477 0.33524 0.53076 0.33524 0.76358 0.85667v-1.1174h0.65178v5.0841h-0.65178v-1.1267q-0.24227 0.52146-0.77288 0.866-0.52146 0.33524-1.2477 0.33524-0.68909 0-1.2478-0.3258-0.54939-0.3258-0.86596-0.92186-0.30728-0.59592-0.30728-1.3781zm4.4416 0.0076q0-0.61455-0.25134-1.0802-0.25134-0.46556-0.68909-0.71698-0.42833-0.25134-0.94975-0.25134-0.5401 0-0.96843 0.24227-0.42833 0.24189-0.67975 0.70768-0.24189 0.45626-0.24189 1.0894 0 0.62389 0.24189 1.0987 0.25134 0.4656 0.67975 0.71701 0.42833 0.24189 0.96843 0.24189 0.52142 0 0.94975-0.25134 0.43767-0.25134 0.68909-0.71698 0.25134-0.46556 0.25134-1.0802z" fill="#fff" stroke="#fff" stroke-linecap="round" stroke-width=".32994" style="paint-order:fill markers stroke" aria-label="Parceria  "/><path d="m-102.64 43.87c-1.2492-0.01134-2.5609 0.08731-3.9316 0.30085a2.207 2.207 0 0 0-1.8438 2.5176 2.207 2.207 0 0 0 2.5234 1.8379c4.618-0.7197 7.8833 0.13342 10.283 1.7207 1.6656 1.1017 2.9435 2.6056 3.8555 4.3379-0.86056-0.79332-1.8234-1.4765-2.8652-2.0293-2.166-1.5442-4.4709-2.4506-6.7559-2.8027-2.3205-0.35754-4.6199-0.15232-6.7461 0.52343-4.2525 1.3516-7.837 4.4244-10.158 8.2754-2.3212 3.851-3.3976 8.5609-2.332 13.191 1.0657 4.6305 4.337 9.0437 10.076 12.143a2.207 2.207 0 0 0 2.9902-0.89257 2.207 2.207 0 0 0-0.89454-2.9902c-4.845-2.616-7.0974-5.895-7.8691-9.248-0.77166-3.3531-2e-3 -6.9184 1.8086-9.9219 0.30199-0.50067 0.63523-0.98143 0.99024-1.4434-0.30728 0.73996-0.5514 1.5125-0.72461 2.3106a2.207 2.207 0 0 0-0.0151 0.03402c-1.4518 6.1911 1.5985 12.91 6.9238 16.92 5.3254 4.01 13.325 5.079 21.023-0.18557a2.207 2.207 0 0 0 0.57615-3.0703 2.207 2.207 0 0 0-3.0703-0.57615c-3.1888 2.1807-6.1542 3.0176-8.8262 2.9277 2.5219-0.6401 4.7646-1.9895 6.5078-3.8203 2.6587-1.6126 4.2488-4.499 4.998-7.6856 0.7756-3.2986 0.67287-7.0332-0.4297-10.562-1.1026-3.5292-3.2516-6.8834-6.6289-9.1172-2.533-1.6754-5.7191-2.6644-9.4668-2.6934zm1.6875 11.522c5.0964 0 9.1816 4.0871 9.1816 9.1836 0 2.3243-0.8516 4.4362-2.2598 6.0469a2.207 2.207 0 0 0-0.11112 0.12888c-0.0019 2e-3 -0.0038 0.0038-0.0038 0.0076-1.6762 1.8435-4.0972 2.9941-6.8047 2.9941-5.0964 0-9.1758-4.0794-9.1758-9.1758 0-5.0964 4.0794-9.1836 9.1758-9.1836zm0.58397 34.469a1.6553 1.6553 0 0 0-1.6562 1.6563 1.6553 1.6553 0 0 0 1.6562 1.6543h5.832v16.48a1.6553 1.6553 0 0 0 1.6543 1.6543 1.6553 1.6553 0 0 0 1.6563-1.6543v-16.48h13.375a1.6553 1.6553 0 0 0 1.6562-1.6543 1.6553 1.6553 0 0 0-1.6562-1.6563zm-35.398 0.04876a1.6554 1.6554 0 0 0-1.6524 1.6543v18.137a1.6553 1.6553 0 0 0 1.6524 1.6621 1.6553 1.6553 0 0 0 1.6543-1.6621v-16.482h6.209c1.1056 0 1.7436 0.3772 2.2441 0.97463 0.50052 0.59747 0.80368 1.4905 0.81056 2.3984 8e-3 0.90792-0.28573 1.781-0.77541 2.3692-0.48975 0.58817-1.1252 0.97459-2.2793 0.97459h-2.4219a1.6554 1.6554 0 0 0-1.6543 1.6543c0 4.425 1.5301 7.2318 3.6836 8.6133 2.1535 1.3816 4.542 1.3594 6.084 1.3594h11.309c2.2909 0 4.6734-0.65594 6.5547-2.2148 1.8813-1.5589 3.1445-4.0608 3.1445-7.2188v-2.3105c0-3.0796-1.0846-5.5761-2.7969-7.2207-1.7122-1.6445-3.971-2.4256-6.2012-2.4219-4.4603 0.0076-9.037 3.3968-9.1758 9.1406a1.6554 1.6554 0 0 0 0 0.0378v1.9629c0 3.0319 1.3652 5.0644 1.3652 5.0644a1.6553 1.6553 0 0 0 2.3106 0.41406 1.6553 1.6553 0 0 0 0.41405-2.3047s-0.78319-1.0658-0.78319-3.1738v-1.918c0.0994-4.1083 2.9563-5.9014 5.8691-5.9062 1.4564-0.0024 2.8666 0.50128 3.9043 1.4981 1.0378 0.99678 1.7793 2.4939 1.7793 4.8281v2.3105c0 2.334-0.78686 3.7152-1.9414 4.6719-1.1545 0.95671-2.792 1.4472-4.4433 1.4472h-11.309c-1.4867 0-3.1511-0.099-4.2969-0.83399-0.91117-0.5845-1.59-1.9154-1.8906-4.1699h0.4961c2.0244 0 3.7504-0.87202 4.8262-2.164 1.0758-1.292 1.5492-2.9185 1.5371-4.5176-0.0113-1.599-0.50559-3.2114-1.5801-4.4941-1.0745-1.2828-2.786-2.1563-4.7832-2.1563zm69 0.06047c-5.0785 0-8.4668 4.2899-8.4668 8.9395v3.0547c0 2.5215 0.65182 4.8905 2.0879 6.7031 1.436 1.8127 3.7101 2.9609 6.3789 2.9609h4.0215a1.6553 1.6553 0 0 0 1.6543-1.6543 1.6553 1.6553 0 0 0-1.6543-1.6523h-4.0215c-1.7904 0-2.9255-0.62737-3.7793-1.7051-0.85383-1.0777-1.3809-2.7121-1.3809-4.6524v-3.0547c0-3.1712 1.8584-5.6328 5.1602-5.6328h4.3105a1.6553 1.6553 0 0 0 1.6543-1.6543 1.6553 1.6553 0 0 0-1.6543-1.6524zm-18.488 4.2695a1.6553 1.6553 0 0 0-1.6562 1.6563v14.143a1.6553 1.6553 0 0 0 0.05253 0.4043 1.6553 1.6553 0 0 0 0.0412 0.11338 1.6553 1.6553 0 0 0 0.10923 0.26381 1.6553 1.6553 0 0 0 0.07635 0.12095 1.6553 1.6553 0 0 0 0.1542 0.20296 1.6553 1.6553 0 0 0 0.11717 0.11716 1.6553 1.6553 0 0 0 0.20296 0.15421 1.6553 1.6553 0 0 0 0.12094 0.076 1.6553 1.6553 0 0 0 0.26381 0.10922 1.6553 1.6553 0 0 0 0.11339 0.0412 1.6553 1.6553 0 0 0 0.4043 0.0525h7.1328a1.6553 1.6553 0 0 0 1.6562-1.6562 1.6553 1.6553 0 0 0-1.6562-1.6543h-5.4785v-5.7422h3.3672a1.6553 1.6553 0 0 0 1.6543-1.6563 1.6553 1.6553 0 0 0-1.6543-1.6543h-3.3672v-3.4355a1.6553 1.6553 0 0 0-1.6543-1.6563z" color="#000000" fill="#fff" stroke-width="3.7795" style="-inkscape-stroke:none;paint-order:fill markers stroke"/></g><path d="m-358.13 7.5307e-4 46.539 170.08h52.503v-170.08z" fill="url(#b)" style="paint-order:fill markers stroke"/><path d="m-160.04 170.08-46.539-170.08h-52.503v170.08z" fill="url(#c)" style="paint-order:fill markers stroke"/><g stroke-linecap="round" stroke-linejoin="round" stroke-width=".13599"><path d="m-273 27.889-4.224 14.912h-1.664l-3.7334-12.672-3.84 12.672-1.6426 0.02268-4.1387-14.933h1.6213l3.392 13.035 3.8187-13.035h1.6853l3.6907 12.992 3.4133-12.992zm3.776 1.1734v5.632h5.6533v1.1947h-5.6533v5.7173h6.2933v1.1947h-7.7867v-14.933h7.7867v1.1947zm8.5547 6.272q0-2.1973 0.96-3.9253 0.98136-1.7494 2.6667-2.7094 1.6853-0.98132 3.7547-0.98132 2.3893 0 4.1813 1.1947 1.792 1.1947 2.6027 3.328h-1.7493q-0.64002-1.472-1.9627-2.304-1.3013-0.85334-3.072-0.85334-1.664 0-2.9867 0.768-1.3227 0.768-2.0907 2.1973-0.768 1.408-0.768 3.2853t0.768 3.3067q0.768 1.4293 2.0907 2.1973 1.3226 0.768 2.9867 0.768 1.5573 0 2.7947-0.66134 1.2587-0.68266 2.0053-1.9413 0.768-1.2587 0.87466-2.9227h-6.272v-1.1947h7.8506v1.088q-0.10658 1.9626-1.0667 3.5627-0.96 1.5787-2.5813 2.496-1.6 0.91733-3.6053 0.91733-2.0693 0-3.7547-0.96-1.6853-0.98135-2.6667-2.7094-0.96-1.7493-0.96-3.9467z" style="paint-order:fill markers stroke" aria-label="WEG"/><path d="m-286.68 65.867v1.1947h-4.1387v13.717h-1.4933v-13.717h-4.16v-1.1947zm3.1147 1.0667q-0.44799 0-0.768-0.32013-0.32013-0.32013-0.32013-0.78932 0-0.46934 0.32013-0.768 0.32013-0.32013 0.768-0.32013 0.44803 0 0.768 0.32013 0.32013 0.29858 0.32013 0.768 0 0.46934-0.32013 0.78932-0.32013 0.32013-0.768 0.32013zm0.74668 2.1973v11.648h-1.4933v-11.648zm5.3333 1.2587v7.232q0 1.0667 0.40532 1.472 0.40535 0.40532 1.4293 0.40532h1.3654v1.28h-1.6q-1.5787 0-2.3467-0.72533-0.768-0.74668-0.768-2.432v-7.232h-1.6213v-1.2587h1.6213v-2.9227h1.5147v2.9227h3.2v1.2587zm7.1467 1.0453q0.49066-1.1947 1.4933-1.856 1.024-0.66134 2.496-0.66134v1.5574h-0.40531q-1.6214 0-2.6027 0.87466-0.98136 0.87466-0.98136 2.9227v6.5066h-1.4933v-11.648h1.4933zm11.328 9.5147q-1.6426 0-2.9653-0.72533-1.3013-0.74668-2.0693-2.0907-0.74668-1.3653-0.74668-3.1787 0-1.8133 0.768-3.1573 0.768-1.3653 2.0907-2.0906 1.3226-0.74668 2.9653-0.74668 1.6427 0 2.9653 0.74668 1.344 0.72533 2.0907 2.0906 0.768 1.344 0.768 3.1573 0 1.792-0.768 3.1573-0.768 1.3653-2.112 2.112-1.344 0.72533-2.9867 0.72533zm0-1.2587q1.152 0 2.1333-0.53333 0.98135-0.53333 1.5787-1.6 0.61867-1.0667 0.61867-2.6027t-0.59735-2.6027q-0.59732-1.0667-1.5786-1.5787-0.98135-0.53333-2.1334-0.53333t-2.1333 0.53333q-0.98135 0.51197-1.5787 1.5787-0.576 1.0667-0.576 2.6027t0.576 2.6027q0.59732 1.0667 1.5573 1.6 0.98135 0.53333 2.1334 0.53333zm14.059-10.773q2.0907 0 3.4133 1.3013 1.3227 1.28 1.3227 3.7333v6.8267h-1.472v-6.656q0-1.8987-0.96-2.9014-0.93865-1.0027-2.5813-1.0027-1.6853 0-2.688 1.0667-1.0027 1.0667-1.0027 3.136v6.3573h-1.4933v-11.648h1.4933v1.984q0.55465-1.0667 1.6-1.6213 1.0453-0.576 2.368-0.576zm8.7893-1.984q-0.44799 0-0.768-0.32013-0.32013-0.32013-0.32013-0.78932 0-0.46934 0.32013-0.768 0.32012-0.32013 0.768-0.32013 0.44798 0 0.768 0.32013 0.32012 0.29858 0.32012 0.768 0 0.46934-0.32012 0.78932-0.32013 0.32013-0.768 0.32013zm0.74668 2.1973v11.648h-1.4934v-11.648zm2.7093 5.824q0-1.8133 0.72532-3.1573 0.72533-1.3653 2.0054-2.0906 1.28-0.74668 2.9227-0.74668 2.1547 0 3.5413 1.0667 1.408 1.0667 1.8133 2.9014h-1.6q-0.29859-1.2587-1.3013-1.9627-0.98136-0.72533-2.4533-0.72533-1.1734 0-2.112 0.53333-0.93869 0.53333-1.4933 1.6-0.53333 1.0453-0.53333 2.5813t0.53333 2.6027q0.55464 1.0667 1.4933 1.6 0.93864 0.53333 2.112 0.53333 1.472 0 2.4533-0.70398 1.0027-0.72533 1.3013-2.0053h1.6q-0.40531 1.792-1.8133 2.88-1.408 1.088-3.5413 1.088-1.6427 0-2.9227-0.72533-1.28-0.74668-2.0054-2.0907-0.72532-1.3653-0.72532-3.1787z" style="paint-order:fill markers stroke" aria-label="Titronic"/><path d="m-299.22 103.97v1.1947h-4.1387v13.717h-1.4933v-13.717h-4.16v-1.1947zm12.907 8.4694q0 0.74664-0.0427 1.152h-9.664q0.0427 1.3226 0.61867 2.2826 0.59731 0.93869 1.536 1.4294 0.93864 0.49065 2.048 0.49065 1.4507 0 2.432-0.70397 1.0027-0.70401 1.3227-1.8987h1.5786q-0.42663 1.7067-1.8347 2.7946-1.3867 1.0667-3.4987 1.0667-1.6427 0-2.944-0.72533-1.3013-0.74664-2.048-2.0906-0.72537-1.3654-0.72537-3.1787 0-1.8133 0.72537-3.1787 0.72533-1.3653 2.0267-2.0906t2.9653-0.72533q1.664 0 2.9014 0.72533 1.2587 0.70401 1.92 1.9413 0.68266 1.2373 0.68266 2.7094zm-1.5147 0.0427q0.0227-1.3227-0.53333-2.2613-0.53333-0.93868-1.472-1.408-0.93869-0.4693-2.048-0.4693-1.088 0-2.0053 0.4693-0.91733 0.46935-1.4933 1.408-0.576 0.93864-0.63999 2.2613zm3.5627 0.576q0-1.8133 0.72536-3.1573 0.72533-1.3653 2.0053-2.0907 1.28-0.74664 2.9227-0.74664 2.1547 0 3.5413 1.0667 1.408 1.0666 1.8133 2.9013h-1.6q-0.29859-1.2587-1.3013-1.9626-0.98132-0.72533-2.4533-0.72533-1.1733 0-2.112 0.53333-0.93865 0.53333-1.4933 1.6-0.53333 1.0453-0.53333 2.5813t0.53333 2.6027q0.55468 1.0666 1.4933 1.6 0.93868 0.53333 2.112 0.53333 1.472 0 2.4533-0.70397 1.0027-0.72537 1.3013-2.0053h1.6q-0.40535 1.792-1.8133 2.88-1.408 1.088-3.5413 1.088-1.6427 0-2.9227-0.72533-1.28-0.74664-2.0053-2.0906-0.72536-1.3654-0.72536-3.1787zm19.307-6.0373q1.3226 0 2.368 0.55468 1.0667 0.55465 1.664 1.7066 0.61867 1.1307 0.61867 2.7733v6.8266h-1.472v-6.656q0-1.8986-0.96-2.9013-0.93868-1.0027-2.5813-1.0027-1.6853 0-2.688 1.0666-1.0027 1.0667-1.0027 3.136v6.3573h-1.4933v-15.787h1.4933v6.1227q0.55468-1.0453 1.6213-1.6213 1.088-0.576 2.432-0.576zm13.419 0q2.0906 0 3.4133 1.3013 1.3226 1.28 1.3226 3.7333v6.8266h-1.472v-6.656q0-1.8986-0.96-2.9013-0.93868-1.0027-2.5813-1.0027-1.6853 0-2.688 1.0666-1.0027 1.0667-1.0027 3.136v6.3573h-1.4933v-11.648h1.4933v1.984q0.55468-1.0667 1.6-1.6213 1.0454-0.576 2.368-0.576zm13.141 12.032q-1.6427 0-2.9653-0.72533-1.3013-0.74664-2.0693-2.0906-0.74664-1.3654-0.74664-3.1787 0-1.8133 0.768-3.1573 0.768-1.3653 2.0906-2.0907 1.3227-0.74664 2.9653-0.74664 1.6427 0 2.9654 0.74664 1.344 0.72537 2.0906 2.0907 0.768 1.344 0.768 3.1573 0 1.792-0.768 3.1573-0.768 1.3654-2.112 2.112-1.344 0.72533-2.9867 0.72533zm0-1.2587q1.152 0 2.1333-0.53333 0.98135-0.53333 1.5787-1.6 0.61867-1.0667 0.61867-2.6027t-0.59732-2.6027q-0.59735-1.0667-1.5787-1.5786-0.98135-0.53333-2.1334-0.53333t-2.1333 0.53333q-0.98131 0.51197-1.5787 1.5786-0.576 1.0667-0.576 2.6027t0.576 2.6027q0.59736 1.0666 1.5574 1.6 0.98131 0.53333 2.1333 0.53333zm12.565 1.2587q-1.9627 0-3.2427-0.93865-1.2587-0.93868-1.408-2.5174h1.536q0.10659 1.024 0.91733 1.6427 0.83199 0.61867 2.2187 0.61867 1.216 0 1.8987-0.576 0.70398-0.59736 0.70398-1.4934 0-0.59732-0.384-0.98132t-0.98132-0.59731q-0.576-0.23471-1.5787-0.4907-1.3013-0.34129-2.0907-0.6613-0.78932-0.34129-1.3653-1.0027-0.55468-0.66134-0.55468-1.7707 0-0.87466 0.49069-1.6 0.51198-0.74668 1.4293-1.1734 0.93868-0.44798 2.1334-0.44798 1.8773 0 3.0293 0.96 1.152 0.93864 1.2373 2.6027h-1.4933q-0.0639-1.0454-0.81067-1.7066-0.72533-0.66134-2.0053-0.66134-1.152 0-1.856 0.55464-0.68266 0.55469-0.68266 1.3867 0 0.68266 0.40536 1.1307 0.42663 0.42667 1.0453 0.68266 0.61867 0.2347 1.664 0.53333 1.216 0.32012 1.984 0.63998 0.768 0.32013 1.28 0.93869 0.53333 0.61867 0.53333 1.6426 0 0.93869-0.51201 1.6853-0.49066 0.74669-1.408 1.1734-0.91733 0.42663-2.1333 0.42663zm6.2293-6.016q0-1.792 0.70401-3.136 0.72533-1.3653 1.984-2.0907 1.28-0.74664 2.88-0.74664 1.664 0 2.8587 0.768 1.216 0.768 1.7493 1.9627v-2.56h1.4933v11.648h-1.4933v-2.5813q-0.55465 1.1947-1.7707 1.984-1.1947 0.768-2.8586 0.768-1.5787 0-2.8587-0.74665-1.2587-0.74668-1.984-2.112-0.70401-1.3653-0.70401-3.1573zm10.176 0.0227q0-1.408-0.576-2.4747t-1.5787-1.6427q-0.98132-0.576-2.176-0.576-1.2373 0-2.2187 0.55468-0.98135 0.55465-1.5574 1.6213-0.55465 1.0453-0.55465 2.496 0 1.4293 0.55465 2.5174 0.576 1.0667 1.5574 1.6427 0.98132 0.55464 2.2187 0.55464 1.1947 0 2.176-0.576 1.0027-0.576 1.5787-1.6426 0.576-1.0667 0.576-2.4746zm9.4933-4.5653h-2.7093v10.389h-1.4933v-10.389h-1.6214v-1.2587h1.6214v-0.81064q0-1.8987 0.96-2.7947 0.98131-0.89598 3.1573-0.89598v1.28q-1.4507 0-2.048 0.55468-0.576 0.55465-0.576 1.856v0.81064h2.7093zm12.885 3.9467q0 0.74665-0.0427 1.152h-9.664q0.0427 1.3226 0.61867 2.2826 0.59732 0.93868 1.536 1.4293 0.93865 0.49065 2.048 0.49065 1.4507 0 2.432-0.70397 1.0027-0.70401 1.3226-1.8987h1.5787q-0.42667 1.7067-1.8346 2.7946-1.3867 1.0667-3.4987 1.0667-1.6427 0-2.944-0.72533-1.3013-0.74664-2.048-2.0906-0.72533-1.3654-0.72533-3.1787 0-1.8133 0.72533-3.1787 0.72536-1.3653 2.0267-2.0906t2.9653-0.72533q1.664 0 2.9014 0.72533 1.2587 0.70401 1.92 1.9413 0.68266 1.2373 0.68266 2.7094zm-1.5147 0.0427q0.0227-1.3227-0.53333-2.2613-0.53333-0.93868-1.472-1.408-0.93868-0.4693-2.048-0.4693-1.088 0-2.0054 0.4693-0.91732 0.46935-1.4933 1.408-0.576 0.93865-0.63999 2.2613z" style="paint-order:fill markers stroke" aria-label="Technosafe"/></g><g transform="matrix(1.2739 0 0 1.2739 5.4255 -452.48)" fill="#fff"><path transform="matrix(1.2111 0 0 1.2111 -559.49 370.46)" d="m143.57 22.371c-3.101 0-5.5496 0.84758-7.3506 2.5386-1.801 1.692-2.7026 3.9181-2.7026 6.6841v3.0117h-4.0781v5.5239h4.0781v18.753h7.4678v-18.753h5.5474v-5.5239h-5.5474v-2.5854c0-2.606 1.2004-3.9111 3.6064-3.9111 0.883 0 1.809 0.18829 2.773 0.57129v-5.8315c-1.015-0.317-2.278-0.47754-3.794-0.47754zm-51.296 1.9453c-1.801 0-3.5086 0.19161-5.1226 0.57861-1.609 0.39-3.0304 0.99641-4.2524 1.8164-1.227 0.82-2.1953 1.8666-2.9062 3.1406-0.711 1.273-1.0664 2.7925-1.0664 4.5615 0 2.262 0.65203 4.1921 1.957 5.7861 1.305 1.598 3.285 2.9487 5.937 4.0547 1.043 0.43 2.016 0.8483 2.918 1.2583 0.899 0.41 1.6804 0.83927 2.3364 1.2803 0.657 0.441 1.1708 0.92134 1.5498 1.4443 0.379 0.52 0.57129 1.1143 0.57129 1.7783 0 0.488-0.11796 0.94577-0.35596 1.3638-0.238 0.418-0.59706 0.78084-1.0811 1.0898-0.481 0.308-1.0828 0.55117-1.8018 0.72217-0.719 0.176-1.5575 0.26221-2.5225 0.26221-1.645 0-3.2748-0.29026-4.8838-0.86426-1.613-0.578-3.106-1.4442-4.481-2.5972v7.5864c1.231 0.633 2.6886 1.1049 4.3726 1.4209 1.683 0.316 3.4592 0.47754 5.3232 0.47754 1.816 0 3.5437-0.17641 5.1797-0.52441 1.637-0.348 3.0712-0.92126 4.3052-1.7183 1.231-0.796 2.2063-1.8389 2.9253-3.1289 0.719-1.289 1.0781-2.8779 1.0781-4.7769 0-1.375-0.2027-2.5832-0.6167-3.6182-0.40999-1.035-1.0043-1.9522-1.7783-2.7612-0.773-0.804-1.7027-1.527-2.7847-2.168-1.082-0.64-2.3006-1.246-3.6606-1.812-0.996-0.41-1.8892-0.81371-2.6792-1.1997-0.792-0.387-1.4606-0.78159-2.0156-1.1836-0.555-0.402-0.98027-0.83127-1.2803-1.2803-0.301-0.45-0.44971-0.96123-0.44971-1.5322 0-0.519 0.13283-0.98864 0.40283-1.4106 0.269-0.418 0.64726-0.77713 1.1353-1.0781 0.489-0.301 1.0937-0.53073 1.8047-0.69873 0.711-0.164 1.5006-0.25049 2.3716-0.25049 0.629 0 1.2965 0.05202 1.9995 0.14502 0.703 0.094 1.4105 0.24299 2.1255 0.43799 0.711 0.199 1.4032 0.4486 2.0742 0.7456 0.672 0.301 1.2903 0.64897 1.8603 1.043v-7.0854c-1.153-0.445-2.4152-0.76938-3.7822-0.98438-1.368-0.215-2.9375-0.3208-4.7065-0.3208zm91.636 2.9136-7.4678 2.1372v5.2383h-3.939v5.5239h3.939v11.121c0 5.484 2.635 8.2266 7.916 8.2266 2.227 0 3.8964-0.29291 5.0054-0.87891v-5.5474c-0.839 0.457-1.6533 0.68701-2.4463 0.68701-2.008 0-3.0073-1.2645-3.0073-3.7925v-9.8159h5.4536v-5.5239h-5.4536zm-67.843 6.7822c-1.485 0-3.1334 0.2067-4.9424 0.6167-1.808 0.41-3.2344 0.88736-4.2774 1.4224v5.644c2.605-1.722 5.355-2.5869 8.25-2.5869 2.875 0 4.3169 1.3298 4.3169 3.9858l-6.5947 0.87451c-5.578 0.726-8.3672 3.4493-8.3672 8.1562 0 2.23 0.67642 4.0121 2.0244 5.3481 1.355 1.336 3.207 2.0039 5.562 2.0039 3.192 0 5.6015-1.3606 7.2305-4.0796h0.0937v3.4849h7.0898v-14.508c0-6.91-3.4608-10.362-10.386-10.362zm43.901 0c-3.414 0-6.2879 1.1787-8.6279 3.5347-2.34 2.351-3.5083 5.5476-3.5083 9.5786 0 3.887 1.0821 6.9174 3.2461 9.0894 2.168 2.172 5.2109 3.2622 9.1289 3.2622 3.586 0 6.5031-0.60276 8.7451-1.8018v-5.4053c-2.019 1.261-4.3706 1.894-7.0386 1.894-4.187 0-6.4096-1.7622-6.6636-5.2852h15.839v-3.1553c0-3.602-0.96925-6.4531-2.9062-8.5591-1.938-2.101-4.6718-3.1523-8.2148-3.1523zm30.961 0.59326 9.8628 24.23-1.2803 3.0132c-0.75799 1.816-2.1022 2.7261-4.0312 2.7261-1.168 0-2.2506-0.29437-3.2476-0.88037v5.9736c1.168 0.414 2.6664 0.6167 4.4824 0.6167 4.773 0 8.3469-3.152 10.714-9.457l9.8628-26.222h-7.418l-4.5776 14.817c-0.379 1.219-0.64076 2.2841-0.78076 3.2021h-0.0937c-0.16-1.25-0.37857-2.331-0.66357-3.249l-4.5322-14.77zm-31.008 4.4575c2.812 0 4.2232 1.7374 4.2232 5.2134h-8.9414c0.192-1.484 0.72208-2.7247 1.6011-3.7207 0.87899-0.996 1.9182-1.4927 3.1172-1.4927zm-40.507 8.3203v1.6362c0 1.484-0.44562 2.714-1.3286 3.687-0.887 0.973-2.0309 1.4575-3.4409 1.4575-1.008 0-1.8127-0.27292-2.4067-0.81592-0.589-0.547-0.88623-1.2457-0.88623-2.0977 0-1.883 1.2149-2.9804 3.6518-3.2974zm-23.997 17.199c-1.578 0-2.6675 1.2154-2.6675 2.9414 0 1.633 0.99652 2.8477 2.5825 2.8477 1.535 0 2.6763-1.0737 2.6763-2.9487 0-1.602-0.96631-2.8403-2.5913-2.8403zm63.363 0.01172c-1.222 0-1.9834 0.68786-1.9834 1.6099 0 0.805 0.58504 1.2925 1.519 1.6245 0.703 0.258 0.98438 0.50818 0.98438 0.93018 0 0.457-0.36321 0.76465-1.0122 0.76465-0.523 0-1.0266-0.16789-1.3506-0.35889l-0.23438 0.84814c0.309 0.191 0.92104 0.35889 1.519 0.35889 1.437 0 2.1182-0.7815 2.1182-1.6875 0-0.805-0.46508-1.2931-1.4341-1.6611-0.75-0.289-1.0752-0.48692-1.0752-0.91992 0-0.332 0.27785-0.67236 0.92285-0.67236 0.523 0 0.91361 0.16014 1.1206 0.26514l0.2417-0.82031c-0.293-0.148-0.72994-0.28125-1.3359-0.28125zm-78.085 0.04687c-0.601 0-1.169 0.05019-1.626 0.11719v5.5049c0.34 0.043 0.78988 0.07324 1.3799 0.07324 1.086 0 1.9762-0.25772 2.5312-0.76172 0.531-0.484 0.87158-1.2226 0.87158-2.2266 0-0.946-0.33191-1.6171-0.87891-2.0581-0.516-0.43-1.2308-0.64893-2.2778-0.64893zm51.136 0c-0.59 0-1.1515 0.05098-1.5425 0.12598v5.5107h1.0151v-2.2969h0.51269c0.582 0.016 0.83942 0.24598 1.0034 0.97998 0.153 0.695 0.293 1.1529 0.375 1.3169h1.0459c-0.109-0.214-0.25792-0.86359-0.44092-1.5586-0.133-0.539-0.37476-0.92906-0.78076-1.0811v-0.0249c0.531-0.183 1.0225-0.67107 1.0225-1.3931 0-0.481-0.17501-0.8714-0.47901-1.1294-0.383-0.317-0.92244-0.44971-1.7314-0.44971zm-13.132 0.0044c-0.57799 0-1.1687 0.05458-1.4927 0.12158v5.4961c0.266 0.031 0.68791 0.07324 1.2539 0.07324 1.027 0 1.6835-0.17562 2.0815-0.51562 0.316-0.273 0.53174-0.66416 0.53174-1.1602 0-0.765-0.5394-1.2309-1.1294-1.3799v-0.02197c0.606-0.227 0.93018-0.69164 0.93018-1.2026 0-0.485-0.22955-0.84915-0.58155-1.0562-0.37099-0.258-0.84375-0.35449-1.5938-0.35449zm26.051 0.03955-1.793 5.5928h1.0547l0.48047-1.5864h1.7695l0.50831 1.5864h1.1001l-1.8149-5.5928zm24.813 0v5.5928h1.0225v-5.5928zm10.491 0v5.5928h3.3208v-0.85547h-2.2969v-4.7373zm-61.254 0.71338c0.648 0 1.0474 0.23951 1.0474 0.77051 0 0.477-0.39096 0.80859-1.106 0.80859h-0.52295v-1.5396c0.109-0.024 0.28054-0.03955 0.58154-0.03955zm-23.417 0.0073c1.019 0 1.5425 0.99725 1.5425 2.0522 0 1.168-0.55448 2.0889-1.5425 2.0889-0.981 0-1.5513-0.90178-1.5513-2.0508 0-1.152 0.53927-2.0903 1.5513-2.0903zm36.551 0.0088c0.664 0 1.0854 0.28902 1.0854 0.89502 0 0.558-0.42128 0.92139-1.1133 0.92139h-0.60205v-1.7651c0.097-0.027 0.30488-0.05127 0.62988-0.05127zm-51.145 0.02344c1.278 0 1.9919 0.71431 1.9849 1.9453 0 1.418-0.79017 2.1555-2.1182 2.1475-0.207 0-0.4225 1e-3 -0.5625-0.02197v-4.0122c0.148-0.031 0.3718-0.05859 0.6958-0.05859zm64.566 0.05859h0.0161c0.086 0.324 0.17518 0.70736 0.28418 1.0474l0.43799 1.3784h-1.4341l0.43066-1.3784c0.094-0.332 0.18314-0.72336 0.26514-1.0474zm-27.136 2.2192h0.5083c0.707 0 1.2759 0.26399 1.2759 0.91699 0 0.691-0.58912 0.93018-1.2451 0.93018-0.231 0-0.40606 5.62e-4 -0.53906-0.02344z" clip-path="url(#d)"/><path d="m-509.73 383.3c-4.1271 0.0671-8.3396 0.77682-12.371 2.2247-5.3689 1.9208-10.375 5.096-14.496 9.1738-4.0778 4.1154-7.2512 9.1207-9.1721 14.491-1.939 5.3555-2.5409 11.117-2.0952 16.416 0.17925 1.3577 0.26896 2.7398 0.57658 4.0272 0.13807 0.64795 0.24472 1.3008 0.40095 1.9391 0.18046 0.63463 0.36064 1.2627 0.5411 1.8876 0.15986 0.62857 0.39752 1.2337 0.61916 1.8344 0.22768 0.60071 0.42038 1.2111 0.67592 1.7936 0.53895 1.1493 0.99884 2.3186 1.6286 3.3832 0.30278 0.54379 0.57636 1.0866 0.88882 1.6073 0.33064 0.51593 0.65762 1.023 0.98462 1.5293l0.5003 0.76996 0.51626 0.69721c0.35486 0.46265 0.6615 0.92512 1.0503 1.3696 1.4751 1.8409 3.0561 3.4026 4.6499 4.845 3.2409 2.8062 6.6435 4.8399 9.8178 6.2217 3.1792 1.3674 6.102 2.1624 8.5387 2.5742 2.4307 0.43116 4.3707 0.5155 5.686 0.5482 1.3201-5e-3 2.0207-0.0107 2.0207-0.0107s-0.69963-0.0417-2.01-0.13128c-0.65279-0.0279-1.4533-0.17486-2.4004-0.28386-0.47233-0.0472-0.96912-0.16987-1.5044-0.26434-0.52925-0.11384-1.1063-0.18123-1.6925-0.34595-2.3798-0.53046-5.2093-1.4612-8.2371-2.9521-0.58254-0.29309-1.1777-0.61592-1.7688-0.95624 3.3972 0.96041 6.7976 1.4045 10.086 1.6322 3.3257 0.21316 6.5284 0.19979 9.5659-0.0231 3.0229-0.16955 5.8805-0.53884 8.4819-0.98817 1.2826-0.2507 2.5356-0.48664 3.7043-0.76641 1.1639-0.29309 2.266-0.58671 3.2785-0.93672 2.0347-0.67217 3.7532-1.4432 5.0491-2.262 1.3007-0.8272 2.1283-1.7694 2.4589-2.5228 0.327-0.76542 0.25124-1.2236 0.2803-1.2188-0.0291-0.01 0.0428 0.45961-0.29272 1.2117-0.34154 0.74725-1.1794 1.6689-2.4802 2.4731-1.3056 0.79934-3.0193 1.5574-5.0721 2.1254-2.0528 0.59102-4.3939 1.0672-7.0148 1.3519-0.65279 0.10415-1.3165 0.1316-1.9923 0.19337-0.68186 0.0472-1.362 0.12835-2.0668 0.15257-1.4146 0.0327-2.868 0.11772-4.3625 0.0657-1.8736 0-3.8222-0.10422-5.8048-0.27498-0.32215-0.34517-0.64731-0.75236-0.95978-1.2259-0.85141-1.2814-1.6329-3.0078-2.3329-5.0473-0.0606-0.18409-0.11789-0.38812-0.18451-0.5819 0.19862 5e-3 0.39747 0.011 0.5961 0.0195 1.0791 0.0242 2.1576 0.0957 3.204 0.0763 1.05-0.01 2.0842-0.02 3.1064-0.0248 1.05-0.023 2.0527-0.0942 3.0603-0.1366 2.002-0.0618 3.9472-0.30374 5.8208-0.46482 0.9374-0.0848 1.854-0.24097 2.7587-0.35482 0.89864-0.12716 1.7818-0.22048 2.6381-0.40094 0.8611-0.15987 1.704-0.31697 2.5228-0.46836 0.82356-0.14655 1.6134-0.36324 2.3897-0.534 1.5563-0.32579 2.9978-0.7959 4.3518-1.2028l0.17387-0.0514c0.28824 0.22285 0.54888 0.44422 0.77173 0.66706 0.42146 0.4251 0.70555 0.84634 0.87995 1.2206 0.35485 0.74725 0.26495 1.2202 0.28917 1.2117-0.0242 8e-3 0.0702-0.46363-0.27498-1.2206-0.16592-0.37424-0.44914-0.80409-0.86576-1.2401-0.21194-0.21679-0.45947-0.43535-0.73802-0.65819 0.59102-0.17925 1.1496-0.42941 1.7031-0.62803 0.30278-0.11869 0.6104-0.23379 0.90833-0.35127 0.29794-0.109 0.59036-0.21182 0.86044-0.35837 1.0973-0.54379 2.1344-0.99448 2.9858-1.5576 1.7174-1.0936 2.8145-2.3325 3.259-3.3353 0.20831-0.5014 0.32691-0.9071 0.33175-1.1869l0.0426-0.42579s-0.0183 0.14723-0.0461 0.42579c-0.01 0.27976-0.13231 0.68676-0.34063 1.1833-0.45416 0.98826-1.5568 2.2126-3.2838 3.2821-0.85141 0.54863-1.889 0.98815-2.9911 1.5186-0.54864 0.27371-1.1677 0.43985-1.783 0.67238-0.59587 0.19378-1.1971 0.45042-1.8451 0.61029-0.20831-0.15987-0.42557-0.31213-0.66174-0.46836-1.291-0.83809-3.0139-1.5902-5.0437-2.2708-2.0347-0.67701-4.3903-1.2295-6.9882-1.7067-2.6063-0.45901-5.4395-0.80906-8.4855-1.0077-3.0145-0.18046-6.2366-0.22817-9.5624-5e-3 -0.56801 0.0375-1.1449 0.0899-1.7226 0.14193-0.15623-1.0743-0.30748-2.1762-0.43465-3.3122 4.3951 0.27492 8.6583 0.28862 12.713 0.0851 4.4993-0.218 8.7283-0.68583 12.598-1.3483 3.8659-0.66611 7.3702-1.4799 10.398-2.45 0.91318-0.29793 1.779-0.61102 2.6026-0.93317 0.4251 0.22769 0.83262 0.45984 1.2117 0.69721 0.85626 0.53895 1.5701 1.0956 2.1236 1.6588 0.54863 0.56317 0.9211 1.1317 1.1585 1.6198 0.21679 0.49655 0.31688 0.90783 0.34595 1.1815 0.023 0.28462 0.0372 0.42579 0.0372 0.42579s-0.0138-0.14117-0.0319-0.42579c-0.0291-0.27855-0.1186-0.69079-0.33175-1.1922-0.23617-0.48686-0.60582-1.0598-1.1496-1.6375-0.54864-0.5668-1.2638-1.1403-2.12-1.6889-0.35486-0.23253-0.74268-0.45308-1.1496-0.67593 1.8639-0.73272 3.4929-1.5236 4.8167-2.3702 1.9257-1.2208 3.1785-2.6015 3.6617-3.7327 0.11748-0.2834 0.23212-0.53032 0.26966-0.76286 0.0569-0.22648 0.10822-0.41373 0.10822-0.5748 0.0242-0.31247 0.039-0.47369 0.039-0.47369s-0.0153 0.16122-0.0444 0.47369c0 0.16107-0.0561 0.34962-0.11178 0.57125-0.0436 0.23254-0.15193 0.47721-0.2803 0.75577-0.48687 1.1263-1.7507 2.49-3.6812 3.6866-1.348 0.84778-3.0124 1.6423-4.9284 2.3471-1.509-0.80903-3.3255-1.5489-5.3844-2.2247-2.6959-0.88895-5.8181-1.608-9.2625-2.2087-3.4444-0.59224-7.2153-1.0114-11.223-1.2294-4.0015-0.21315-8.2545-0.23128-12.635 0.0994-0.13322 0.01-0.2707 0.0186-0.40272 0.0319-0.01-0.65279-0.0134-1.305-0.0231-1.9675-0.01-0.61404-5e-3 -1.2343-5e-3 -1.8592 0.97979 0.11385 1.9772 0.17069 2.9752 0.25547 0.61525 0.0472 1.2303 0.0947 1.8504 0.14193 0.61525 0.0472 1.2217 0.0467 1.8309 0.071 1.2353 0.0327 2.4748 0.0707 3.715 0.10822 2.484-0.0145 4.9652-0.11348 7.4068-0.29272 2.4464-0.17561 4.8359-0.49711 7.1443-0.86044 2.3047-0.36454 4.5084-0.85692 6.5854-1.4104 2.0722-0.545 4.0032-1.2019 5.7339-1.9249l0.19337-0.0869 0.0444 0.29095c0.0848 0.77996 0.15501 1.4463 0.20224 1.9852 0.0654 1.0888 0.10468 1.6694 0.10468 1.6694s0.0143-0.58063 0.0337-1.6694c-5e-3 -0.63341-0.0101-1.448-0.0621-2.4181 1.0694-0.45901 2.0619-0.94994 2.9521-1.4707 1.182 0.51594 2.2412 1.0651 3.1543 1.6428 0.96526 0.60556 1.7696 1.233 2.3897 1.8628 0.61524 0.63825 1.0321 1.2729 1.3022 1.8167 0.24101 0.55832 0.34921 1.0186 0.38675 1.3359 0.0242 0.31126 0.039 0.47723 0.039 0.47723s-0.0143-0.16597-0.0337-0.47723c-0.0327-0.31731-0.13686-0.77627-0.37788-1.3394-0.26039-0.55348-0.67759-1.1918-1.288-1.8397-0.61524-0.63947-1.4186-1.2777-2.3791-1.893-0.8938-0.5777-1.9346-1.1268-3.0851-1.6464 0.34153-0.20347 0.66683-0.4073 0.97929-0.61561 1.2826-0.85141 2.2895-1.7846 2.9556-2.6736 0.68186-0.89016 0.95791-1.7499 1.0378-2.3276 0.0618-0.29308 0.0413-0.51034 0.0461-0.66173v-0.22709s-0.0138 0.0805-0.0319 0.22709c-0.0291 0.1417-0.0479 0.36989-0.14725 0.63512-0.16108 0.53895-0.56245 1.2849-1.2915 2.0225-0.72788 0.74847-1.7746 1.4824-3.0656 2.1679-0.57771 0.29914-1.2066 0.5814-1.8788 0.85511-0.61524-0.2507-1.258-0.49121-1.9302-0.72738-0.24101-1.9208-0.6574-4.1866-1.4228-6.6936-0.44569-1.4388-1.0031-2.9623-1.7031-4.5186l0.0798-0.0426c1.3383-0.70003 2.6739-1.5281 3.7433-2.8386 0.52441-0.67096 0.97871-1.419 1.1301-2.4642l0.0142-0.10999c2.1764 2.5736 3.8883 5.229 5.1466 7.7688 1.4994 3.0278 2.4176 5.8568 2.9663 8.2318 0.54379 2.3798 0.75728 4.2917 0.89414 5.5973 0.0811 1.3153 0.12419 2.0136 0.12419 2.0136s4e-3 -0.70365 0.0142-2.0189c-0.0569-1.3153-0.10557-3.2594-0.54642-5.6913-0.42994-2.4319-1.2185-5.356-2.5955-8.5352-1.3674-3.1743-3.3934-6.58-6.2129-9.816-0.36454-0.41662-0.74656-0.83363-1.139-1.2454-0.19863-0.22648-0.41181-0.43425-0.62981-0.62803-2.5215-2.5167-5.5298-4.8586-9.0408-6.7274-4.3431-2.3362-9.4228-3.9735-14.821-4.4228-1.3471-0.11718-2.7136-0.16609-4.0893-0.14371zm1.0254 2.2904c0.96729-7e-3 1.9292 0.0241 2.8829 0.094 5.0952 0.36455 9.9306 1.7565 14.127 3.8711 0.99795 0.50625 1.9577 1.05 2.8794 1.618-1.8821-0.55348-3.7127-0.91774-5.4252-1.1975-1.3201-0.20347-2.5632-0.35049-3.7416-0.45949-2.616-1.4376-5.5689-2.4961-8.748-2.851-0.89017-0.109-1.7873-0.14643-2.686-0.15612l-0.26079-0.0231h-0.0568l-0.13306 4e-3 -0.0798 4e-3 -0.0958 0.0106c-1.1966 0.0194-2.4072 0.12877-3.628 0.33708-2.3278 0.3924-4.6084 1.1664-6.7558 2.2407-2.1715 1.0839-4.1825 2.4796-6.0088 4.0928-0.16592-0.11869-0.32086-0.23661-0.45772-0.36014-0.39724-0.36939-0.64758-0.73194-0.74689-1.0166-0.0666-0.13685-0.0768-0.25666-0.10467-0.33175l-0.0284-0.12241-9e-3 0.12241c5e-3 0.0799-0.0291 0.20923 0 0.36546 0.0182 0.3161 0.15513 0.79997 0.50029 1.3111 0.10416 0.15623 0.23216 0.31615 0.36902 0.47723-1.5987 1.4763-3.0506 3.1074-4.3235 4.8575-0.83688 1.1736-1.5935 2.4034-2.285 3.6617-0.35001-0.20347-0.68218-0.40721-0.97043-0.61916-1.0125-0.70002-1.6276-1.5055-1.8734-2.1147-0.12838-0.30762-0.18867-0.56193-0.21289-0.7327l-0.0284-0.19515c0.58618-0.67701 1.1868-1.3394 1.8202-1.9728 3.8332-3.832 8.5038-6.8306 13.527-8.6558 4.0788-1.476 8.3619-2.2285 12.553-2.2584zm-1.0148 3.2164c0.0946 1.5e-4 0.18939 2e-3 0.28386 2e-3l0.14193 0.0177c0.14291 0.0375 0.27828 0.0527 0.41513 0.12418 0.1417 0.0521 0.28465 0.10908 0.42756 0.1987 0.10779 0.0654 0.22098 0.14135 0.32998 0.21644-0.42147 0.0242-0.64754 0.039-0.64754 0.039s0.27742 0.018 0.77882 0.0568c0.93256 0.70003 1.7237 1.822 2.3862 2.9326 0.67701 1.1736 1.23 2.4179 1.712 3.6617-0.34517 0.0194-0.68558 0.0476-1.0308 0.0621-1.268 0.0654-2.5552 0.0892-3.8462 0.094-1.2487-0.0291-2.6404-0.0199-3.8516-0.10468-0.87927-0.0327-1.7557-0.10418-2.6168-0.17563 0.27493-0.73757 0.56312-1.4608 0.88528-2.1608 0.70486-1.509 1.5371-2.9765 2.592-3.9793 0.12837-0.13685 0.26054-0.24001 0.39739-0.34417 0.13323-0.11869 0.27474-0.19432 0.41159-0.28031 0.13686-0.0993 0.28006-0.14217 0.41691-0.20757 0.15139-0.0763 0.21865-0.0619 0.32644-0.11885l0.20402-0.0284c0.0951-4e-3 0.18923-5e-3 0.28385-5e-3zm4.5417 0.35127c0.12717 0.0279 0.26006 0.0561 0.39208 0.0852-0.11385 0-0.21735 5e-3 -0.32999 5e-3zm-9.5286 0.35837c-0.76664 1.0125-1.3579 2.1072-1.8823 3.2093-0.44933 0.96041-0.84266 1.9431-1.1975 2.9326-0.67701-0.086-1.3336-0.17041-1.9621-0.29273-0.27493-0.0472-0.54021-0.0912-0.80544-0.13838-0.25918-0.0606-0.51086-0.12178-0.76641-0.17386-0.5014-0.11869-1.0073-0.19326-1.453-0.3495-0.39725-0.12353-0.78862-0.23249-1.1532-0.35481 1.434-1.1881 2.9757-2.2288 4.618-3.0621 1.4848-0.74241 3.0263-1.3442 4.602-1.7705zm9.958 0.23773c0.90349 0.0945 1.9452 0.21269 3.0993 0.37255 2.0855 0.75211 4.0361 1.784 5.7764 3 0.62493 0.43963 1.2208 0.90838 1.7936 1.3856-0.21801 0.0715-0.44517 0.13871-0.67771 0.20047-0.92166 0.25918-1.944 0.46667-3.023 0.66529-1.0827 0.19862-2.2404 0.32311-3.4382 0.46481-0.22164 0.0242-0.46058 0.0427-0.6919 0.0621-0.48687-1.4994-1.0691-3.0184-1.8539-4.5275-0.29793-0.54016-0.61523-1.0892-0.98462-1.6233zm9.5375 1.5098c0.23254 0.0521 0.45452 0.0987 0.6919 0.1508 1.3238 0.31731 2.715 0.69592 4.1248 1.1549l-0.24483 0.25015c-0.19014 0.13685-0.46842 0.39762-0.74334 0.53932-0.1417 0.0811-0.28456 0.16537-0.43111 0.25015-0.11384 0.0569-0.23128 0.11338-0.35482 0.17031-0.80418-0.76663-1.6607-1.5042-2.5884-2.1946-0.14654-0.109-0.30278-0.21211-0.45417-0.32111zm5.2087 1.4317c0.67701 0.22769 1.3584 0.4702 2.0402 0.74512 1.107 0.45901 2.2234 0.9834 3.2395 1.641 0.99917 0.65763 1.9781 1.448 2.4092 2.3418 0.11263 0.218 0.17405 0.43439 0.21644 0.64754 0.0242 0.20831 0.0392 0.41732-0.0177 0.6777l-0.0248 0.11177-0.0568 0.16144-0.14192 0.32288c-0.11869 0.21316-0.25992 0.42375-0.44885 0.6369-0.72425 0.84173-1.8446 1.5514-3.023 2.1484l-0.0514 0.0231c-0.3597-0.68064-0.74684-1.3618-1.178-2.0473-1.2063-1.9257-2.6782-3.8656-4.4476-5.6629l0.16144-0.12419c0.15624-0.13686 0.29659-0.27789 0.43465-0.40627 0.28341-0.26887 0.42504-0.50238 0.63336-0.76641 0.109-0.15139 0.18885-0.30286 0.25547-0.45062zm-34.928 2.5139c0.11385 0.0751 0.21307 0.14135 0.33176 0.21644 0.40693 0.23738 0.85736 0.42686 1.3164 0.65819 0.46265 0.24222 0.95955 0.40198 1.4743 0.61029 0.25555 0.0993 0.52117 0.18986 0.79125 0.28917 0.26887 0.0799 0.54462 0.16014 0.82318 0.24128 0.55832 0.1744 1.141 0.33021 1.7368 0.47191-0.54864 1.8215-0.98971 3.6779-1.3785 5.5369-0.16108 0.8175-0.30265 1.6455-0.43466 2.4642-1.618-0.18894-3.16-0.41737-4.6073-0.70077-2.4174-0.47839-4.5655-1.0794-6.3495-1.7794 0.63341-1.1166 1.3147-2.1979 2.0668-3.2395 1.2438-1.7307 2.6635-3.3409 4.2294-4.7688zm31.928 0.24483c1.8554 1.7028 3.43 3.5672 4.7368 5.4553 0.41056 0.59587 0.78991 1.1977 1.1496 1.7936l-0.57303 0.2324c-0.67217 0.29794-1.3142 0.48134-1.9622 0.6848l-0.97575 0.30692-1.0201 0.25547c-0.6867 0.15623-1.3544 0.36508-2.0544 0.48255-2.0056 0.45417-4.0492 0.75305-6.0887 0.99527-0.0521-0.37423-0.0992-0.74916-0.15612-1.1319-0.30762-2.0201-0.70406-4.168-1.2951-6.3867 0.11385-0.0242 0.23033-0.0386 0.34418-0.0568 1.2438-0.23253 2.4416-0.51608 3.557-0.85156 1.1166-0.327 2.1591-0.71006 3.0905-1.1461 0.44448-0.19378 0.85963-0.40688 1.2472-0.63336zm-22.982 2.7356c1.0452 0.16471 2.11 0.32594 3.2218 0.39739 1.3625 0.14655 2.6164 0.14212 3.9935 0.18451 1.348-0.0194 2.6923-0.0472 4.0112-0.17918 0.57286-0.0424 1.1306-0.1095 1.6889-0.18096 0.70486 2.1909 1.2494 4.3432 1.6854 6.3779 0.0702 0.35001 0.1308 0.68567 0.20225 1.0272-0.29914 0.0279-0.59621 0.065-0.89414 0.094-2.8001 0.19378-5.5549 0.37783-8.246 0.35482-2.5736-0.0145-5.0469-0.1083-7.4122-0.30692 0.12716-0.74362 0.25842-1.4925 0.40981-2.23 0.36455-1.8688 0.8005-3.7317 1.3394-5.5387zm-20.631 0.29804v0.18806c0 0.17561 0.0173 0.44036 0.11177 0.77705 0.18046 0.67096 0.69228 1.6031 1.6854 2.4642 0.29309 0.26524 0.63024 0.52554 0.98994 0.78593-1.4715 2.7819-2.5975 5.7241-3.369 8.7143-0.32095 1.2293-0.57666 2.473-0.77528 3.7132-0.44084 0.16592-0.88111 0.33628-1.311 0.52158-0.13807-0.0666-0.28443-0.1333-0.41159-0.1987-1.2971-0.67701-2.3528-1.4123-3.071-2.1644-0.60071-0.62857-0.97501-1.2377-1.1833-1.7439 0.16108-0.50625 0.32815-1.0137 0.50739-1.5151 1.5187-4.1868 3.8692-8.1221 6.8267-11.542zm4.9533 5.5245c1.7828 0.91802 3.9732 1.7471 6.4524 2.4181 1.4618 0.40209 3.0324 0.7483 4.6783 1.0414-0.19378 1.4049-0.35941 2.8041-0.49142 4.1993-4.5659 0.39845-9.2626 1.1088-13.927 2.4713-0.12353 0.0327-0.24193 0.0707-0.36546 0.10821 0.15139-0.73757 0.31716-1.4713 0.51094-2.2052 0.73272-2.7674 1.783-5.4825 3.1419-8.0331zm45.763 0.87995c0.76179 1.4715 1.3899 2.9238 1.9107 4.3093 0.82718 2.2757 1.3852 4.3727 1.7546 6.1845-0.17076-0.0569-0.33532-0.11872-0.51094-0.17564-3.0229-0.98827-6.5321-1.7867-10.398-2.4589-1.9257-0.33548-3.942-0.61622-6.0372-0.8427-0.0666-1.1736-0.17006-2.4419-0.30692-3.7717 2.1049-0.22647 4.2198-0.50964 6.3211-0.96865 0.72788-0.13322 1.4414-0.35484 2.1608-0.53045l1.0786-0.28386 1.0893-0.35482c0.72424-0.24101 1.4556-0.46799 2.0988-0.76108zm-32.134 2.9716c2.4271 0.33548 5.0155 0.57705 7.6836 0.65819 2.7347 0.0848 5.5882 0.0514 8.4731-0.14725 0.38392-0.0339 0.76569-0.0755 1.1496-0.10822 0.21194 1.2438 0.39373 2.432 0.54997 3.5535-1.8082-0.17562-3.6573-0.32245-5.5636-0.41692-4.0596-0.19377-8.346-0.18621-12.759 0.0887 0.12716-1.2063 0.28734-2.4169 0.46658-3.628zm-26.024 4.0166c0.15623 0.50624 0.43552 1.1058 0.90301 1.7404 0.62493 0.84657 1.5666 1.7239 2.7498 2.5281-0.66248 0.31246-1.3208 0.64764-1.9639 1.0219-1.1215 0.66127-2.2184 1.4123-3.1934 2.4163l0.0798-0.88882 0.13306-0.97398c0.27371-1.9644 0.7102-3.9182 1.2915-5.8439zm38.292 0.67238c1.9547 5e-3 3.8508 0.0657 5.7002 0.16499 0.24222 1.8542 0.40739 3.5053 0.53577 4.8823 0.0896 1.0319 0.16082 1.9161 0.21289 2.6452-0.73393 0.0521-1.4664 0.10347-2.2052 0.15434-2.3835 0.14776-4.8148 0.2138-7.2418 0.20047-1.2208-0.0242-2.4417-0.0492-3.6529-0.0674-0.6104-0.0194-1.2266-9e-3 -1.8273-0.0461-0.59587-0.0375-1.1919-0.0813-1.783-0.11886-0.59223-0.0375-1.1826-0.0753-1.7688-0.11887-0.43115-0.023-0.86168-0.0471-1.288-0.0798 0.0666-1.9729 0.18521-3.9682 0.33176-5.9787 0.023-0.31247 0.0573-0.62603 0.0851-0.9385 4.4327-0.49655 8.7713-0.70868 12.901-0.69899zm6.628 0.21289c2.0444 0.12717 4.0218 0.31203 5.9148 0.5482 3.8695 0.46385 7.3799 1.2067 10.421 2.1005 0.20831 0.0618 0.40682 0.12274 0.61029 0.18451 0.0424 0.20346 0.0808 0.40811 0.11354 0.60674 0.0666 0.3161 0.1147 0.62329 0.16677 0.92607-0.16593 0.0521-0.32325 0.10807-0.48433 0.16499-1.727 0.54864-3.6335 1.0221-5.6718 1.4423-2.0395 0.42147-4.2151 0.74476-6.4666 1.0378-1.4812 0.19377-2.9995 0.32967-4.5364 0.44352 0.023-0.72425 0.0461-1.608 0.0461-2.6398 0-1.3577-0.0239-2.9837-0.11355-4.8149zm-22.041 0.78947c-0.0145 0.14655-0.0288 0.29746-0.0372 0.44885-0.13807 1.784-0.20334 3.5532-0.23241 5.3081v0.61561c-0.51593-0.0569-1.0408-0.10936-1.547-0.16144-1.1312-0.11869-2.2283-0.34972-3.3122-0.49142-0.53894-0.0811-1.0675-0.15659-1.5931-0.23773-0.52926-0.0993-1.0595-0.20107-1.5754-0.3016-2.0201-0.4251-3.9372-0.89902-5.6594-1.4477-0.23132-0.0751-0.44897-0.15199-0.6706-0.22708l0.0177-0.14548c0.50624-0.1853 1.0128-0.36098 1.5239-0.5269 2.3847-0.77633 4.8294-1.3468 7.2614-1.8397 1.945-0.40208 3.889-0.72825 5.8243-0.99349zm39.56 2.2229c0.60072 0.19378 1.1821 0.39843 1.7404 0.60674-0.50988 0.20831-1.0503 0.40539-1.6038 0.59432-0.0279-0.27371-0.0565-0.5567-0.094-0.84979-0.01-0.11384-0.0281-0.23743-0.0426-0.35127zm-56.709 2.152c-0.22769 2.4222-0.2459 4.8262-0.0993 7.1443 0.12232 1.8833 0.37252 3.7094 0.72738 5.4837l-0.0905-0.0373c-1.1494-0.47839-2.2741-1.009-3.3193-1.6339-1.0416-0.62372-2.0358-1.3324-2.7782-2.1608-0.37908-0.40693-0.67121-0.84706-0.89769-1.2915-0.0811-0.22284-0.19849-0.44421-0.23241-0.66706-0.0133-0.11384-0.0657-0.22219-0.0621-0.32998l-9e-3 -0.17208-5e-3 -0.0798-4e-3 -0.0426-5e-3 -0.0231 0.0319-0.40804c5e-3 -0.19863 0.0529-0.21164 0.0674-0.31579 0.0145-0.15624 0.14062-0.41786 0.22177-0.62981 0.22163-0.44084 0.52038-0.87976 0.89946-1.2915 0.74241-0.82719 1.7349-1.5324 2.7765-2.1573 0.87442-0.52562 1.8178-0.97556 2.7782-1.3873zm2.34 0.58722c0.11384 0.0472 0.22846 0.10534 0.34594 0.15257 1.7319 0.72304 3.6578 1.3767 5.7445 1.9302 0.50987 0.13202 1.0302 0.26466 1.5559 0.40272 0.53895 0.11264 1.0876 0.23033 1.641 0.34418 0.55348 0.11263 1.1111 0.22678 1.6694 0.34062 0.56317 0.109 1.1324 0.24031 1.7138 0.30692 0.6104 0.0896 1.2439 0.18013 1.8628 0.26612 0.01 0.77995 0.0534 1.4894 0.0727 2.2318 0.0327 0.71456 0.0515 1.42 0.0745 2.12-3.5619 0.37424-7.2009 0.98485-10.815 2.0349-1.1832 0.34032-2.3648 0.72825-3.5287 1.1957-0.26039-1.5841-0.44035-3.2072-0.52513-4.8397-0.10416-2.1521-0.0433-4.3194 0.18806-6.4861zm29.892 8.8953c3.964-0.0194 7.7253 0.20622 11.17 0.64222 3.4432 0.41178 6.5704 1.0648 9.2821 1.8592 2.0431 0.58618 3.8443 1.287 5.34 2.0633-0.79086 0.2834-1.6223 0.56361-2.4979 0.81431-3.0508 0.87079-6.552 1.6326-10.426 2.0952-3.8647 0.48324-8.0859 0.75309-12.543 0.76641-4.1057 0.0194-8.438-0.19841-12.862-0.69012-0.0279-0.30278-0.0614-0.60119-0.0905-0.91366-0.0375-0.37787-0.0748-0.75673-0.11354-1.1443-0.0279-0.38877-0.0373-0.77625-0.0603-1.1638-0.0388-0.78117-0.076-1.5655-0.11355-2.3649-0.0242-0.36454-0.044-0.73933-0.0585-1.1124 0.18409-0.0242 0.3654-0.0516 0.54465-0.071 4.2764-0.5341 8.4605-0.77697 12.429-0.7806zm-15.106 1.1549c0.0242 0.30278 0.0459 0.60024 0.0798 0.90302 0.0751 0.81871 0.15151 1.6317 0.22176 2.4323 0.0388 0.39724 0.0663 0.79447 0.11354 1.1869 0.0521 0.3924 0.10985 0.77979 0.16677 1.1674 0.0182 0.16108 0.0426 0.32269 0.0656 0.48255-2.1376-0.27855-4.2942-0.62884-6.4524-1.0733-2.3701-0.49293-4.7584-1.0451-7.091-1.7972 0.87563-0.35485 1.7594-0.68573 2.6629-0.97398 2.1146-0.69154 4.2852-1.2085 6.447-1.6481 1.2632-0.26523 2.5276-0.4857 3.7859-0.67948zm-23.968 0.42401c0.87079 0.81871 1.8264 1.4625 2.8013 2.0402 0.74726 0.43479 1.5152 0.81912 2.2904 1.1691-0.60071 0.4251-1.1825 0.90358-1.7226 1.4849-0.4578 0.48808-0.87501 1.0632-1.2117 1.7209-0.0945 0.22285-0.18796 0.43219-0.26789 0.66351-0.84172-2.243-1.4776-4.6322-1.8894-7.0786zm7.9621 4.3483 0.18628 0.0621c0.39724 1.4521 0.85986 2.8611 1.3891 4.2188 0.36939 0.95072 0.79945 1.8641 1.2064 2.7676 0.23253 0.44084 0.46018 0.87626 0.68302 1.311l0.33885 0.64932c0.13686 0.2507 0.2508 0.41487 0.37434 0.62803 0.22648 0.36454 0.44542 0.72959 0.66706 1.0893l-0.65819-0.22354-1.5364-0.6298-0.75753-0.29805-0.77528-0.36723c-0.47234-0.23738-0.95719-0.48478-1.421-0.76819-0.92166-0.54863-1.7817-1.1771-2.4394-1.8965-0.32215-0.35849-0.59127-0.73804-0.77173-1.1159-0.0896-0.19014-0.15679-0.37877-0.20402-0.5677l-0.0515-0.28031-5e-3 -0.14193-4e-3 -0.0692v-0.039l0.0284-0.36901 5e-3 -0.10289 0.0177-0.0585 0.0337-0.10289c5e-3 -0.11385 0.11742-0.34645 0.17919-0.52691 0.19862-0.37786 0.44875-0.7562 0.7806-1.1159 0.64794-0.72304 1.5231-1.343 2.4412-1.8965zm2.4802 0.7806c4.8396 1.3904 9.7083 2.0821 14.434 2.466 0.0945 0.73273 0.19729 1.456 0.35837 2.1608 0.10415 0.48687 0.20003 0.96516 0.2945 1.4423-2.2612 0.27492-4.5512 0.69197-6.8462 1.3448-1.4945 0.42025-2.9849 0.96037-4.437 1.7173-0.20347-0.37423-0.41263-0.75279-0.62094-1.1319-0.44447-0.7848-0.81273-1.6544-1.233-2.4962-0.3597-0.87563-0.74351-1.7621-1.0645-2.6789-0.327-0.91802-0.62004-1.8603-0.88527-2.8244zm29.09 6.887c2.5762 8e-3 5.0351 0.15839 7.3039 0.42756 2.6027 0.29309 4.9632 0.77511 7.0112 1.3625 2.0528 0.5668 3.775 1.3049 5.0721 2.1236 0.22163 0.1417 0.42585 0.28456 0.62448 0.43111l-0.0284 4e-3c-1.3625 0.36454-2.8049 0.78598-4.366 1.0609-0.77511 0.14654-1.5625 0.35001-2.3897 0.45416-0.82356 0.109-1.6647 0.22596-2.521 0.3495-0.8611 0.13201-1.7465 0.18415-2.6452 0.27498-0.89865 0.0702-1.812 0.17938-2.7445 0.22176-1.8675 0.0569-3.7979 0.18869-5.7853 0.13661-0.98342-0.0133-2.0051 6e-3 -2.9982-0.0319-1.027-0.0472-2.06-0.0952-3.11-0.14725-1.05-0.0424-2.0817-0.17021-3.1366-0.25014-0.39724-0.0376-0.79317-0.072-1.1904-0.10468-0.39725-1.4667-0.75295-3.0384-1.0751-4.7315-0.0376-0.21315-0.0708-0.43841-0.10468-0.65641 0.53531-0.0848 1.075-0.17103 1.6091-0.24128 3.2179-0.42631 6.3589-0.64016 9.3637-0.6777 0.37257-5e-3 0.74255-6e-3 1.1106-5e-3zm-13.572 1.1744c0.0521 0.24101 0.0944 0.48775 0.15612 0.72028 0.36818 1.509 0.78367 2.932 1.233 4.2667-0.24102-0.0327-0.47226-0.0626-0.70964-0.0905-1.0682-0.13323-2.1475-0.25603-3.2218-0.45949-1.0743-0.18894-2.1652-0.33523-3.2395-0.59078-1.073-0.2507-2.1731-0.42071-3.2413-0.73802-0.27008-0.0702-0.54415-0.14143-0.81786-0.21289 0.30278-0.14654 0.60997-0.28797 0.92607-0.41514 0.75695-0.32215 1.5331-0.62085 2.3276-0.8764 1.5805-0.52926 3.2128-0.92283 4.8309-1.2632 0.58133-0.12717 1.169-0.23163 1.7564-0.34063zm-20.278 1.3004c0.23617 0.15139 0.4775 0.30312 0.71851 0.43998 0.53046 0.31731 1.0743 0.59156 1.6375 0.86043l0.78947 0.36547 0.85156 0.33175 1.1461 0.42933c-0.20346 0.26524-0.39291 0.55377-0.55884 0.87108-0.11868 0.29309-0.23996 0.52489-0.3211 0.91366-0.0993 0.42025-0.0906 0.58614-0.11 0.80898l0.0107 0.19338c-0.9701-1.0222-1.9158-2.1057-2.7818-3.2732-0.34517-0.42147-0.65317-0.92301-0.99349-1.382zm7.8007 3.2466c0.51593 0.14655 1.027 0.28321 1.5417 0.41159 0.10052 0.12717 0.20043 0.25508 0.30337 0.37256 2.2902 2.7347 4.7982 4.882 7.2773 6.3584 0.44932 0.27492 0.88916 0.52621 1.3288 0.75754-1.5333-0.33548-3.069-0.70499-4.5647-1.2064-0.79449-0.25554-1.5707-0.54931-2.3276-0.87995-0.75695-0.31731-1.4997-0.66639-2.1804-1.0733-0.67702-0.41178-1.3115-0.87093-1.7706-1.382-0.23253-0.25555-0.40207-0.51982-0.53045-0.77173-0.0424-0.12232-0.11272-0.24621-0.12241-0.36369l-0.0337-0.18096-4e-3 -0.0834-5e-3 -0.0426-4e-3 -0.0248 0.0231-0.25015c0-0.1417 0.0289-0.10936 0.0337-0.16144-5e-3 -0.0472 0.0742-0.21259 0.11178-0.32643 0.12838-0.2507 0.30324-0.51087 0.53577-0.76641 0.11748-0.13201 0.2499-0.25958 0.38676-0.38675zm3.848 0.92608c3.075 0.62978 6.1344 0.99942 9.1295 1.2259 0.51594 0.0375 1.0359 0.0813 1.547 0.11886 0.13323 0.33063 0.25531 0.66626 0.38853 0.97752 0.85989 2.0444 1.8344 3.7477 2.8421 5.0012 0.25554 0.327 0.51714 0.61553 0.78237 0.87108-0.98463-0.0945-1.9683-0.19806-2.9663-0.32644-0.72909-0.0993-1.4583-0.20822-2.191-0.33175-1.1917-0.56317-2.4473-1.2622-3.7238-2.1378-1.9923-1.3528-3.9638-3.1834-5.8084-5.3986z"/></g></g></svg>
