<svg width="180mm" height="45mm" version="1.1" viewBox="0 0 180 45" xml:space="preserve" xmlns="http://www.w3.org/2000/svg" xmlns:xlink="http://www.w3.org/1999/xlink"><defs><linearGradient id="a"><stop stop-color="#9f9e9c" offset="0"/><stop stop-color="#eceae9" offset=".7"/><stop stop-color="#eceae9" offset="1"/></linearGradient><clipPath id="d"><path d="m0 0h227v86h-227z"/></clipPath><linearGradient id="c" x1="118.48" x2="124.64" y1="122.01" y2="120.36" gradientTransform="rotate(180 239.86 122.81)" gradientUnits="userSpaceOnUse" xlink:href="#a"/><linearGradient id="b" x1="118.48" x2="124.64" y1="122.01" y2="120.36" gradientTransform="translate(202.65 1.5875)" gradientUnits="userSpaceOnUse" xlink:href="#a"/></defs><g transform="matrix(.26458 0 0 .26458 190 0)"><g transform="translate(-765.93 -346.16)"><g stroke-linejoin="round"><rect transform="matrix(3.7795 0 0 3.7795 -782.67 -35.959)" x="219.73" y="101.1" width="180" height="45" fill="#fff" stroke-dasharray="15, 15" stroke-width="5" style="-inkscape-stroke:none;paint-order:fill markers stroke"/><path transform="matrix(3.7795 0 0 3.7795 -782.67 -35.959)" d="m219.73 101.1v45h57.631c-12.426-4e-5 -22.5-10.074-22.5-22.5 4e-5 -12.426 10.074-22.5 22.5-22.5z" fill="#df0209" stroke-dasharray="15, 15" stroke-width="5" style="-inkscape-stroke:none;paint-order:fill markers stroke"/><path transform="matrix(3.7795 0 0 3.7795 -782.67 -35.959)" d="m219.73 101.1v45h107.56l-12.313-45z" fill="#fff" stroke-dasharray="17.656, 17.656" stroke-width="5.8853" style="-inkscape-stroke:none;paint-order:fill markers stroke"/><path transform="matrix(3.7795 0 0 3.7795 -782.67 -35.959)" d="m355.04 101.1 12.352 45h32.345v-45z" fill="#002c61" stroke-dasharray="15, 15" stroke-width="5" style="-inkscape-stroke:none;paint-order:fill markers stroke"/><path transform="matrix(3.7795 0 0 3.7795 -782.67 -35.959)" d="m364.38 120.47q0 0.22173-0.14536 0.35724-0.14535 0.1355-0.43607 0.1355h-0.34738v0.73418h-0.17246v-1.7221h0.51984q0.28825 0 0.43361 0.1355 0.14782 0.13551 0.14782 0.3597zm-0.58143 0.34985q0.40405 0 0.40405-0.34985 0-0.35723-0.40405-0.35723h-0.34738v0.70708zm0.79084 0.20202q0-0.20695 0.0813-0.36216 0.0838-0.15768 0.22912-0.24145 0.14782-0.0862 0.3326-0.0862 0.19216 0 0.33013 0.0887 0.14043 0.0887 0.20202 0.22666v-0.29565h0.17246v1.3452h-0.17246v-0.29811q-0.0641 0.13797-0.20448 0.22913-0.13797 0.0887-0.33014 0.0887-0.18231 0-0.33013-0.0862-0.14536-0.0862-0.22912-0.24391-0.0813-0.15767-0.0813-0.36462zm1.1752 2e-3q0-0.1626-0.0665-0.28579-0.0665-0.12318-0.18231-0.1897-0.11333-0.0665-0.25129-0.0665-0.1429 0-0.25623 0.0641-0.11333 0.064-0.17985 0.18724-0.064 0.12072-0.064 0.28825 0 0.16507 0.064 0.29071 0.0665 0.12319 0.17985 0.18971 0.11333 0.064 0.25623 0.064 0.13796 0 0.25129-0.0665 0.11579-0.0665 0.18231-0.1897 0.0665-0.12318 0.0665-0.28579zm0.73911-0.40651q0.0567-0.13796 0.17246-0.21434 0.11825-0.0764 0.28825-0.0764v0.17985h-0.0468q-0.18724 0-0.30057 0.10101t-0.11333 0.33752v0.75143h-0.17246v-1.3452h0.17246zm0.64056 0.40651q0-0.20941 0.0838-0.36462 0.0838-0.15768 0.23159-0.24145 0.14782-0.0862 0.33753-0.0862 0.24883 0 0.40897 0.12318 0.1626 0.12318 0.20941 0.33506h-0.18478q-0.0345-0.14536-0.15028-0.22666-0.11333-0.0838-0.28332-0.0838-0.13551 0-0.24391 0.0616t-0.17246 0.18478q-0.0616 0.12072-0.0616 0.2981 0 0.17739 0.0616 0.30057 0.0641 0.12319 0.17246 0.18478 0.1084 0.0616 0.24391 0.0616 0.16999 0 0.28332-0.0813 0.11579-0.0838 0.15028-0.23159h0.18478q-0.0468 0.20695-0.20941 0.3326t-0.40897 0.12565q-0.18971 0-0.33753-0.0838-0.14782-0.0862-0.23159-0.24144-0.0838-0.15767-0.0838-0.36709zm2.8061-0.0714q0 0.0862-5e-3 0.13303h-1.1161q5e-3 0.15275 0.0715 0.26362 0.069 0.1084 0.17739 0.16507 0.1084 0.0567 0.23651 0.0567 0.16753 0 0.28086-0.0813 0.11579-0.0813 0.15275-0.21927h0.18231q-0.0493 0.1971-0.21187 0.32274-0.16014 0.12319-0.40405 0.12319-0.1897 0-0.33999-0.0838-0.15028-0.0862-0.23651-0.24144-0.0838-0.15767-0.0838-0.36709 0-0.20941 0.0838-0.36709 0.0838-0.15767 0.23405-0.24144 0.15028-0.0838 0.34245-0.0838t0.33506 0.0838q0.14536 0.0813 0.22173 0.2242 0.0788 0.14289 0.0788 0.31289zm-0.17492 5e-3q2e-3 -0.15275-0.0616-0.26115-0.0616-0.1084-0.17-0.1626t-0.23651-0.0542q-0.12565 0-0.23159 0.0542t-0.17246 0.1626q-0.0665 0.1084-0.0739 0.26115zm0.66273-0.33999q0.0567-0.13796 0.17246-0.21434 0.11826-0.0764 0.28825-0.0764v0.17985h-0.0468q-0.18724 0-0.30057 0.10101t-0.11333 0.33752v0.75143h-0.17246v-1.3452h0.17246zm0.80563-0.51984q-0.0517 0-0.0887-0.0369-0.037-0.037-0.037-0.0912t0.037-0.0887q0.0369-0.037 0.0887-0.037 0.0517 0 0.0887 0.037 0.037 0.0345 0.037 0.0887t-0.037 0.0912q-0.0369 0.0369-0.0887 0.0369zm0.0862 0.25376v1.3452h-0.17246v-1.3452zm0.31289 0.67013q0-0.20695 0.0813-0.36216 0.0838-0.15768 0.22912-0.24145 0.14782-0.0862 0.3326-0.0862 0.19217 0 0.33013 0.0887 0.14043 0.0887 0.20203 0.22666v-0.29565h0.17245v1.3452h-0.17245v-0.29811q-0.0641 0.13797-0.20449 0.22913-0.13797 0.0887-0.33013 0.0887-0.18232 0-0.33014-0.0862-0.14536-0.0862-0.22912-0.24391-0.0813-0.15767-0.0813-0.36462zm1.1752 2e-3q0-0.1626-0.0665-0.28579-0.0665-0.12318-0.18232-0.1897-0.11333-0.0665-0.25129-0.0665-0.1429 0-0.25623 0.0641-0.11333 0.064-0.17985 0.18724-0.064 0.12072-0.064 0.28825 0 0.16507 0.064 0.29071 0.0665 0.12319 0.17985 0.18971 0.11333 0.064 0.25623 0.064 0.13796 0 0.25129-0.0665 0.1158-0.0665 0.18232-0.1897 0.0665-0.12318 0.0665-0.28579z" fill="#fff" stroke="#fff" stroke-linecap="round" stroke-width=".087296" style="paint-order:fill markers stroke" aria-label="Parceria  "/><path transform="matrix(3.7795 0 0 3.7795 -782.67 -35.959)" d="m382.58 112.71c-0.33052-3e-3 -0.67756 0.0231-1.0402 0.0796a0.58394 0.58394 0 0 0-0.48783 0.66611 0.58394 0.58394 0 0 0 0.66766 0.48627c1.2218-0.19042 2.0858 0.0353 2.7208 0.45527 0.44068 0.29149 0.77881 0.68941 1.0201 1.1477-0.22769-0.2099-0.48243-0.39067-0.75809-0.53691-0.57308-0.40857-1.1829-0.64839-1.7875-0.74156-0.61396-0.0946-1.2223-0.0403-1.7849 0.13849-1.1251 0.35762-2.0735 1.1706-2.6877 2.1895s-0.89896 2.2651-0.61701 3.4902c0.28196 1.2252 1.1475 2.3928 2.666 3.2127a0.58394 0.58394 0 0 0 0.79117-0.23616 0.58394 0.58394 0 0 0-0.23668-0.79117c-1.2819-0.69216-1.8779-1.5597-2.082-2.4469-0.20417-0.88718-4.8e-4 -1.8305 0.47852-2.6252 0.0799-0.13247 0.16807-0.25967 0.262-0.38189-0.0813 0.19578-0.14589 0.40017-0.19172 0.61134a0.58394 0.58394 0 0 0-4e-3 9e-3c-0.38413 1.6381 0.42293 3.4158 1.8319 4.4767 1.409 1.061 3.5256 1.3438 5.5625-0.0491a0.58394 0.58394 0 0 0 0.15244-0.81236 0.58394 0.58394 0 0 0-0.81235-0.15244c-0.84371 0.57697-1.6283 0.79841-2.3353 0.77463 0.66724-0.16936 1.2606-0.52639 1.7219-1.0108 0.70346-0.42668 1.1242-1.1904 1.3224-2.0335 0.20521-0.87276 0.17803-1.8609-0.11369-2.7947s-0.86031-1.8212-1.7539-2.4123c-0.67019-0.44327-1.5132-0.70495-2.5048-0.71262zm0.44649 3.0484c1.3484 0 2.4293 1.0814 2.4293 2.4298 0 0.61498-0.22532 1.1737-0.5979 1.5999a0.58394 0.58394 0 0 0-0.0294 0.0341c-4.9e-4 5.4e-4 -1e-3 1e-3 -1e-3 2e-3 -0.44349 0.48775-1.0841 0.7922-1.8004 0.7922-1.3484 0-2.4278-1.0793-2.4278-2.4278 0-1.3484 1.0793-2.4298 2.4278-2.4298zm0.15451 9.1198a0.43796 0.43796 0 0 0-0.43821 0.43822 0.43796 0.43796 0 0 0 0.43821 0.4377h1.5431v4.3605a0.43796 0.43796 0 0 0 0.4377 0.4377 0.43796 0.43796 0 0 0 0.43822-0.4377v-4.3605h3.5388a0.43796 0.43796 0 0 0 0.43821-0.4377 0.43796 0.43796 0 0 0-0.43821-0.43822zm-9.3658 0.0129a0.438 0.438 0 0 0-0.43719 0.4377v4.7987a0.43796 0.43796 0 0 0 0.43719 0.43976 0.43796 0.43796 0 0 0 0.43769-0.43976v-4.361h1.6428c0.29251 0 0.46134 0.0998 0.59376 0.25787 0.13243 0.15808 0.21264 0.39437 0.21446 0.63458 2e-3 0.24022-0.0756 0.47121-0.20516 0.62684-0.12958 0.15562-0.29772 0.25786-0.60306 0.25786h-0.64079a0.438 0.438 0 0 0-0.4377 0.4377c0 1.1708 0.40484 1.9134 0.97462 2.2789 0.56978 0.36554 1.2017 0.35967 1.6097 0.35967h2.9921c0.60614 0 1.2365-0.17355 1.7343-0.58601 0.49775-0.41245 0.83199-1.0744 0.83199-1.91v-0.61133c0-0.81481-0.28697-1.4754-0.74001-1.9105-0.45303-0.43512-1.0507-0.64177-1.6407-0.64079-1.1801 2e-3 -2.391 0.89873-2.4278 2.4185a0.438 0.438 0 0 0 0 0.01v0.51935c0 0.80219 0.36122 1.34 0.36122 1.34a0.43796 0.43796 0 0 0 0.61134 0.10955 0.43796 0.43796 0 0 0 0.10955-0.60978s-0.20722-0.28199-0.20722-0.83974v-0.50747c0.0263-1.087 0.78218-1.5614 1.5529-1.5627 0.38534-6.4e-4 0.75844 0.13263 1.033 0.39636 0.27459 0.26373 0.47077 0.65984 0.47077 1.2774v0.61133c0 0.61753-0.20819 0.98298-0.51367 1.2361-0.30547 0.25313-0.73873 0.38292-1.1756 0.38292h-2.9921c-0.39335 0-0.83372-0.0262-1.1369-0.22066-0.24108-0.15465-0.42068-0.50678-0.50023-1.1033h0.13126c0.53563 0 0.99228-0.23072 1.2769-0.57257 0.28463-0.34185 0.40989-0.7722 0.4067-1.1953-3e-3 -0.42308-0.13377-0.84968-0.41807-1.1891-0.2843-0.3394-0.73713-0.57051-1.2656-0.57051zm18.256 0.016c-1.3437 0-2.2402 1.135-2.2402 2.3652v0.80822c0 0.66715 0.17246 1.294 0.55242 1.7735 0.37995 0.4796 0.98162 0.78341 1.6878 0.78341h1.064a0.43796 0.43796 0 0 0 0.4377-0.4377 0.43796 0.43796 0 0 0-0.4377-0.43718h-1.064c-0.47372 0-0.77404-0.16599-0.99994-0.45113-0.22591-0.28515-0.36536-0.71757-0.36536-1.2309v-0.80822c0-0.83904 0.4917-1.4904 1.3653-1.4904h1.1405a0.43796 0.43796 0 0 0 0.4377-0.43769 0.43796 0.43796 0 0 0-0.4377-0.43719zm-4.8917 1.1296a0.43796 0.43796 0 0 0-0.43821 0.43822v3.7419a0.43796 0.43796 0 0 0 0.0139 0.10697 0.43796 0.43796 0 0 0 0.0109 0.03 0.43796 0.43796 0 0 0 0.0289 0.0698 0.43796 0.43796 0 0 0 0.0202 0.032 0.43796 0.43796 0 0 0 0.0408 0.0537 0.43796 0.43796 0 0 0 0.031 0.031 0.43796 0.43796 0 0 0 0.0537 0.0408 0.43796 0.43796 0 0 0 0.032 0.0201 0.43796 0.43796 0 0 0 0.0698 0.0289 0.43796 0.43796 0 0 0 0.03 0.0109 0.43796 0.43796 0 0 0 0.10697 0.0139h1.8872a0.43796 0.43796 0 0 0 0.43821-0.43821 0.43796 0.43796 0 0 0-0.43821-0.4377h-1.4495v-1.5193h0.89091a0.43796 0.43796 0 0 0 0.43769-0.43822 0.43796 0.43796 0 0 0-0.43769-0.4377h-0.89091v-0.90898a0.43796 0.43796 0 0 0-0.4377-0.43822z" color="#000000" fill="#fff" style="-inkscape-stroke:none;paint-order:fill markers stroke"/></g><path transform="matrix(3.7795 0 0 3.7795 -782.67 -35.959)" d="m314.98 101.1 12.313 45h13.892v-45z" fill="url(#b)" style="paint-order:fill markers stroke"/><path transform="matrix(3.7795 0 0 3.7795 -782.67 -35.959)" d="m367.39 146.1-12.313-45h-13.892v45z" fill="url(#c)" style="paint-order:fill markers stroke"/><g stroke-linecap="round" stroke-linejoin="round" stroke-width=".03598"><path transform="matrix(3.7795 0 0 3.7795 -782.67 -35.959)" d="m337.5 108.48-1.1176 3.9455h-0.44027l-0.98778-3.3528-1.016 3.3528-0.43462 6e-3 -1.095-3.9511h0.42898l0.89746 3.4488 1.0104-3.4488h0.44591l0.97649 3.4375 0.90311-3.4375zm0.99906 0.31045v1.4901h1.4958v0.31609h-1.4958v1.5127h1.6651v0.31609h-2.0602v-3.9511h2.0602v0.31609zm2.2634 1.6595q0-0.58137 0.254-1.0386 0.25965-0.46285 0.70556-0.71685 0.44591-0.25964 0.99342-0.25964 0.63218 0 1.1063 0.31609t0.68862 0.88053h-0.46284q-0.16934-0.38947-0.51929-0.6096-0.34431-0.22578-0.8128-0.22578-0.44027 0-0.79022 0.2032-0.34996 0.2032-0.55316 0.58138-0.2032 0.37253-0.2032 0.86924t0.2032 0.87489 0.55316 0.58138q0.34995 0.2032 0.79022 0.2032 0.41204 0 0.73942-0.17498 0.33302-0.18062 0.53058-0.51364 0.2032-0.33303 0.23142-0.77329h-1.6595v-0.31609h2.0772v0.28787q-0.0282 0.51928-0.28222 0.94262-0.254 0.41769-0.68298 0.6604-0.42333 0.24271-0.95391 0.24271-0.54751 0-0.99342-0.254-0.44591-0.25965-0.70556-0.71685-0.254-0.46284-0.254-1.0442z" style="paint-order:fill markers stroke" aria-label="WEG"/><path transform="matrix(3.7795 0 0 3.7795 -782.67 -35.959)" d="m333.88 118.53v0.31609h-1.095v3.6294h-0.39511v-3.6294h-1.1007v-0.31609zm0.82409 0.28222q-0.11853 0-0.2032-0.0847-0.0847-0.0847-0.0847-0.20884 0-0.12418 0.0847-0.2032 0.0847-0.0847 0.2032-0.0847 0.11854 0 0.2032 0.0847 0.0847 0.079 0.0847 0.2032 0 0.12418-0.0847 0.20884-0.0847 0.0847-0.2032 0.0847zm0.19756 0.58138v3.0819h-0.39511v-3.0819zm1.4111 0.33302v1.9135q0 0.28223 0.10724 0.38947 0.10725 0.10724 0.37818 0.10724h0.36125v0.33867h-0.42334q-0.41769 0-0.62089-0.19191-0.2032-0.19756-0.2032-0.64347v-1.9135h-0.42897v-0.33302h0.42897v-0.77329h0.40076v0.77329h0.84667v0.33302zm1.8909 0.27658q0.12982-0.31609 0.39511-0.49107 0.27094-0.17498 0.6604-0.17498v0.41205h-0.10724q-0.42898 0-0.68862 0.23142-0.25965 0.23142-0.25965 0.77329v1.7216h-0.39511v-3.0819h0.39511zm2.9972 2.5174q-0.43462 0-0.78458-0.19191-0.34431-0.19756-0.54751-0.55316-0.19756-0.36124-0.19756-0.84102t0.2032-0.83538q0.2032-0.36124 0.55316-0.55315 0.34995-0.19756 0.78458-0.19756 0.43462 0 0.78457 0.19756 0.3556 0.19191 0.55316 0.55315 0.2032 0.3556 0.2032 0.83538 0 0.47413-0.2032 0.83538-0.2032 0.36124-0.5588 0.5588-0.3556 0.19191-0.79022 0.19191zm0-0.33303q0.3048 0 0.56444-0.14111 0.25965-0.14111 0.41769-0.42333 0.16369-0.28222 0.16369-0.68862t-0.15805-0.68862q-0.15804-0.28223-0.41768-0.41769-0.25965-0.14111-0.56445-0.14111t-0.56444 0.14111q-0.25965 0.13546-0.41769 0.41769-0.1524 0.28222-0.1524 0.68862t0.1524 0.68862q0.15804 0.28222 0.41204 0.42333 0.25965 0.14111 0.56445 0.14111zm3.7197-2.8504q0.55316 0 0.90311 0.34431 0.34996 0.33867 0.34996 0.98778v1.8062h-0.38947v-1.7611q0-0.50236-0.254-0.76765-0.24835-0.26529-0.68297-0.26529-0.44591 0-0.7112 0.28222-0.26529 0.28223-0.26529 0.82974v1.682h-0.39511v-3.0819h0.39511v0.52493q0.14675-0.28222 0.42333-0.42898 0.27658-0.1524 0.62653-0.1524zm2.3255-0.52493q-0.11853 0-0.2032-0.0847-0.0847-0.0847-0.0847-0.20884 0-0.12418 0.0847-0.2032 0.0847-0.0847 0.2032-0.0847 0.11853 0 0.2032 0.0847 0.0847 0.079 0.0847 0.2032 0 0.12418-0.0847 0.20884-0.0847 0.0847-0.2032 0.0847zm0.19756 0.58138v3.0819h-0.39512v-3.0819zm0.71684 1.5409q0-0.47978 0.19191-0.83538 0.19191-0.36124 0.53058-0.55315 0.33867-0.19756 0.77329-0.19756 0.57009 0 0.93697 0.28222 0.37254 0.28222 0.47978 0.76765h-0.42333q-0.079-0.33303-0.34431-0.51929-0.25965-0.19191-0.64911-0.19191-0.31045 0-0.5588 0.14111-0.24836 0.14111-0.39511 0.42333-0.14111 0.27658-0.14111 0.68298t0.14111 0.68862q0.14675 0.28222 0.39511 0.42333 0.24835 0.14111 0.5588 0.14111 0.38946 0 0.64911-0.18626 0.26529-0.19191 0.34431-0.53058h0.42333q-0.10724 0.47413-0.47978 0.762-0.37253 0.28787-0.93697 0.28787-0.43462 0-0.77329-0.19191-0.33867-0.19756-0.53058-0.55316-0.19191-0.36124-0.19191-0.84102z" style="paint-order:fill markers stroke" aria-label="Titronic"/><path transform="matrix(3.7795 0 0 3.7795 -782.67 -35.959)" d="m330.56 128.61v0.31609h-1.095v3.6294h-0.39511v-3.6294h-1.1007v-0.31609zm3.4149 2.2408q0 0.19755-0.0113 0.3048h-2.5569q0.0113 0.34995 0.16369 0.60395 0.15804 0.24836 0.4064 0.37818 0.24835 0.12982 0.54186 0.12982 0.38383 0 0.64347-0.18626 0.26529-0.18627 0.34996-0.50236h0.41768q-0.11288 0.45156-0.48542 0.73942-0.36689 0.28222-0.92569 0.28222-0.43462 0-0.77893-0.19191-0.34431-0.19755-0.54186-0.55315-0.19192-0.36125-0.19192-0.84102 0-0.47978 0.19192-0.84103 0.19191-0.36124 0.53622-0.55315t0.78457-0.19191q0.44027 0 0.76765 0.19191 0.33302 0.18627 0.508 0.51364 0.18062 0.32738 0.18062 0.71685zm-0.40076 0.0113q6e-3 -0.34996-0.14111-0.59831-0.14111-0.24836-0.38946-0.37254-0.24836-0.12417-0.54187-0.12417-0.28787 0-0.53058 0.12417-0.24271 0.12418-0.39511 0.37254-0.1524 0.24835-0.16933 0.59831zm0.94262 0.1524q0-0.47978 0.19192-0.83538 0.19191-0.36124 0.53057-0.55316 0.33867-0.19755 0.77329-0.19755 0.57009 0 0.93698 0.28222 0.37253 0.28222 0.47978 0.76764h-0.42334q-0.079-0.33302-0.34431-0.51928-0.25964-0.19191-0.64911-0.19191-0.31044 0-0.5588 0.14111-0.24835 0.14111-0.39511 0.42333-0.14111 0.27658-0.14111 0.68298t0.14111 0.68862q0.14676 0.28222 0.39511 0.42333 0.24836 0.14111 0.5588 0.14111 0.38947 0 0.64911-0.18626 0.26529-0.19192 0.34431-0.53058h0.42334q-0.10725 0.47413-0.47978 0.762-0.37253 0.28786-0.93698 0.28786-0.43462 0-0.77329-0.19191-0.33866-0.19755-0.53057-0.55315-0.19192-0.36125-0.19192-0.84102zm5.1082-1.5974q0.34995 0 0.62653 0.14676 0.28222 0.14675 0.44027 0.45155 0.16369 0.29916 0.16369 0.73378v1.8062h-0.38947v-1.7611q0-0.50235-0.254-0.76764-0.24836-0.26529-0.68298-0.26529-0.44591 0-0.7112 0.28222t-0.26529 0.82974v1.682h-0.39511v-4.1769h0.39511v1.62q0.14676-0.27658 0.42898-0.42898 0.28787-0.1524 0.64347-0.1524zm3.5504 0q0.55315 0 0.90311 0.34431 0.34995 0.33867 0.34995 0.98778v1.8062h-0.38946v-1.7611q0-0.50235-0.254-0.76764-0.24836-0.26529-0.68298-0.26529-0.44591 0-0.7112 0.28222t-0.26529 0.82974v1.682h-0.39511v-3.0819h0.39511v0.52494q0.14676-0.28222 0.42333-0.42898 0.27658-0.1524 0.62654-0.1524zm3.477 3.1835q-0.43462 0-0.78458-0.19191-0.34431-0.19755-0.54751-0.55315-0.19755-0.36125-0.19755-0.84102 0-0.47978 0.2032-0.83538 0.2032-0.36124 0.55315-0.55316 0.34996-0.19755 0.78458-0.19755t0.78458 0.19755q0.3556 0.19192 0.55315 0.55316 0.2032 0.3556 0.2032 0.83538 0 0.47413-0.2032 0.83537-0.2032 0.36125-0.5588 0.5588-0.3556 0.19191-0.79022 0.19191zm0-0.33302q0.3048 0 0.56444-0.14111 0.25965-0.14111 0.41769-0.42333 0.16369-0.28222 0.16369-0.68862t-0.15804-0.68863q-0.15805-0.28222-0.41769-0.41768-0.25965-0.14111-0.56445-0.14111t-0.56444 0.14111q-0.25964 0.13546-0.41769 0.41768-0.1524 0.28223-0.1524 0.68863t0.1524 0.68862q0.15805 0.28222 0.41205 0.42333 0.25964 0.14111 0.56444 0.14111zm3.3246 0.33302q-0.51929 0-0.85796-0.24835-0.33302-0.24836-0.37253-0.66605h0.4064q0.0282 0.27094 0.24271 0.43463 0.22013 0.16369 0.58702 0.16369 0.32173 0 0.50236-0.1524 0.18626-0.15805 0.18626-0.39512 0-0.15804-0.1016-0.25964t-0.25964-0.15804q-0.1524-0.0621-0.41769-0.12983-0.34431-0.0903-0.55316-0.17497-0.20884-0.0903-0.36124-0.26529-0.14676-0.17498-0.14676-0.46849 0-0.23142 0.12983-0.42333 0.13546-0.19756 0.37817-0.31045 0.24836-0.11853 0.56445-0.11853 0.49671 0 0.80151 0.254 0.3048 0.24835 0.32738 0.68862h-0.39511q-0.0169-0.27658-0.21449-0.45155-0.19191-0.17498-0.53058-0.17498-0.3048 0-0.49107 0.14675-0.18062 0.14676-0.18062 0.36689 0 0.18062 0.10725 0.29916 0.11288 0.11289 0.27657 0.18062 0.16369 0.0621 0.44027 0.14111 0.32173 0.0847 0.52493 0.16933 0.2032 0.0847 0.33867 0.24836 0.14111 0.16369 0.14111 0.43462 0 0.24836-0.13547 0.44591-0.12982 0.19756-0.37253 0.31045-0.24271 0.11288-0.56444 0.11288zm1.6482-1.5917q0-0.47413 0.18627-0.82973 0.19191-0.36124 0.52493-0.55316 0.33867-0.19755 0.762-0.19755 0.44027 0 0.75636 0.2032 0.32173 0.2032 0.46284 0.51929v-0.67734h0.39511v3.0819h-0.39511v-0.68298q-0.14675 0.31609-0.46849 0.52493-0.31609 0.2032-0.75635 0.2032-0.41769 0-0.75636-0.19755-0.33302-0.19756-0.52493-0.5588-0.18627-0.36124-0.18627-0.83538zm2.6924 6e-3q0-0.37254-0.1524-0.65476t-0.41769-0.43462q-0.25964-0.1524-0.57573-0.1524-0.32738 0-0.58702 0.14676-0.25965 0.14675-0.41205 0.42897-0.14675 0.27658-0.14675 0.6604 0 0.37818 0.14675 0.66605 0.1524 0.28222 0.41205 0.43462 0.25964 0.14675 0.58702 0.14675 0.31609 0 0.57573-0.1524 0.26529-0.1524 0.41769-0.43462t0.1524-0.65475zm2.5118-1.2079h-0.71684v2.7488h-0.39511v-2.7488h-0.42898v-0.33303h0.42898v-0.21448q0-0.50236 0.254-0.73943 0.25964-0.23706 0.83538-0.23706v0.33866q-0.38383 0-0.54187 0.14676-0.1524 0.14675-0.1524 0.49107v0.21448h0.71684zm3.4092 1.0442q0 0.19755-0.0113 0.3048h-2.5569q0.0113 0.34995 0.16369 0.60395 0.15804 0.24836 0.4064 0.37818 0.24835 0.12982 0.54186 0.12982 0.38383 0 0.64347-0.18626 0.26529-0.18627 0.34995-0.50236h0.41769q-0.11289 0.45156-0.48542 0.73942-0.36689 0.28222-0.92569 0.28222-0.43462 0-0.77893-0.19191-0.34431-0.19755-0.54187-0.55315-0.19191-0.36125-0.19191-0.84102 0-0.47978 0.19191-0.84103 0.19192-0.36124 0.53623-0.55315t0.78457-0.19191q0.44027 0 0.76765 0.19191 0.33302 0.18627 0.508 0.51364 0.18062 0.32738 0.18062 0.71685zm-0.40076 0.0113q6e-3 -0.34996-0.14111-0.59831-0.14111-0.24836-0.38946-0.37254-0.24836-0.12417-0.54187-0.12417-0.28787 0-0.53058 0.12417-0.24271 0.12418-0.39511 0.37254-0.1524 0.24835-0.16933 0.59831z" style="paint-order:fill markers stroke" aria-label="Technosafe"/></g><g transform="matrix(1.2739 0 0 1.2739 771.35 -106.33)"><path transform="matrix(1.2111 0 0 1.2111 -559.49 370.46)" d="m143.57 22.371c-3.101 0-5.5496 0.84758-7.3506 2.5386-1.801 1.692-2.7026 3.9181-2.7026 6.6841v3.0117h-4.0781v5.5239h4.0781v18.753h7.4678v-18.753h5.5474v-5.5239h-5.5474v-2.5854c0-2.606 1.2004-3.9111 3.6064-3.9111 0.883 0 1.809 0.18829 2.773 0.57129v-5.8315c-1.015-0.317-2.278-0.47754-3.794-0.47754zm-51.296 1.9453c-1.801 0-3.5086 0.19161-5.1226 0.57861-1.609 0.39-3.0304 0.99641-4.2524 1.8164-1.227 0.82-2.1953 1.8666-2.9062 3.1406-0.711 1.273-1.0664 2.7925-1.0664 4.5615 0 2.262 0.65203 4.1921 1.957 5.7861 1.305 1.598 3.285 2.9487 5.937 4.0547 1.043 0.43 2.016 0.8483 2.918 1.2583 0.899 0.41 1.6804 0.83927 2.3364 1.2803 0.657 0.441 1.1708 0.92134 1.5498 1.4443 0.379 0.52 0.57129 1.1143 0.57129 1.7783 0 0.488-0.11796 0.94577-0.35596 1.3638-0.238 0.418-0.59706 0.78084-1.0811 1.0898-0.481 0.308-1.0828 0.55117-1.8018 0.72217-0.719 0.176-1.5575 0.26221-2.5225 0.26221-1.645 0-3.2748-0.29026-4.8838-0.86426-1.613-0.578-3.106-1.4442-4.481-2.5972v7.5864c1.231 0.633 2.6886 1.1049 4.3726 1.4209 1.683 0.316 3.4592 0.47754 5.3232 0.47754 1.816 0 3.5437-0.17641 5.1797-0.52441 1.637-0.348 3.0712-0.92126 4.3052-1.7183 1.231-0.796 2.2063-1.8389 2.9253-3.1289 0.719-1.289 1.0781-2.8779 1.0781-4.7769 0-1.375-0.2027-2.5832-0.6167-3.6182-0.40999-1.035-1.0043-1.9522-1.7783-2.7612-0.773-0.804-1.7027-1.527-2.7847-2.168-1.082-0.64-2.3006-1.246-3.6606-1.812-0.996-0.41-1.8892-0.81371-2.6792-1.1997-0.792-0.387-1.4606-0.78159-2.0156-1.1836-0.555-0.402-0.98027-0.83127-1.2803-1.2803-0.301-0.45-0.44971-0.96123-0.44971-1.5322 0-0.519 0.13283-0.98864 0.40283-1.4106 0.269-0.418 0.64726-0.77713 1.1353-1.0781 0.489-0.301 1.0937-0.53073 1.8047-0.69873 0.711-0.164 1.5006-0.25049 2.3716-0.25049 0.629 0 1.2965 0.05202 1.9995 0.14502 0.703 0.094 1.4105 0.24299 2.1255 0.43799 0.711 0.199 1.4032 0.4486 2.0742 0.7456 0.672 0.301 1.2903 0.64897 1.8603 1.043v-7.0854c-1.153-0.445-2.4152-0.76938-3.7822-0.98438-1.368-0.215-2.9375-0.3208-4.7065-0.3208zm91.636 2.9136-7.4678 2.1372v5.2383h-3.939v5.5239h3.939v11.121c0 5.484 2.635 8.2266 7.916 8.2266 2.227 0 3.8964-0.29291 5.0054-0.87891v-5.5474c-0.839 0.457-1.6533 0.68701-2.4463 0.68701-2.008 0-3.0073-1.2645-3.0073-3.7925v-9.8159h5.4536v-5.5239h-5.4536zm-67.843 6.7822c-1.485 0-3.1334 0.2067-4.9424 0.6167-1.808 0.41-3.2344 0.88736-4.2774 1.4224v5.644c2.605-1.722 5.355-2.5869 8.25-2.5869 2.875 0 4.3169 1.3298 4.3169 3.9858l-6.5947 0.87451c-5.578 0.726-8.3672 3.4493-8.3672 8.1562 0 2.23 0.67642 4.0121 2.0244 5.3481 1.355 1.336 3.207 2.0039 5.562 2.0039 3.192 0 5.6015-1.3606 7.2305-4.0796h0.0937v3.4849h7.0898v-14.508c0-6.91-3.4608-10.362-10.386-10.362zm43.901 0c-3.414 0-6.2879 1.1787-8.6279 3.5347-2.34 2.351-3.5083 5.5476-3.5083 9.5786 0 3.887 1.0821 6.9174 3.2461 9.0894 2.168 2.172 5.2109 3.2622 9.1289 3.2622 3.586 0 6.5031-0.60276 8.7451-1.8018v-5.4053c-2.019 1.261-4.3706 1.894-7.0386 1.894-4.187 0-6.4096-1.7622-6.6636-5.2852h15.839v-3.1553c0-3.602-0.96925-6.4531-2.9062-8.5591-1.938-2.101-4.6718-3.1523-8.2148-3.1523zm30.961 0.59326 9.8628 24.23-1.2803 3.0132c-0.75799 1.816-2.1022 2.7261-4.0312 2.7261-1.168 0-2.2506-0.29437-3.2476-0.88037v5.9736c1.168 0.414 2.6664 0.6167 4.4824 0.6167 4.773 0 8.3469-3.152 10.714-9.457l9.8628-26.222h-7.418l-4.5776 14.817c-0.379 1.219-0.64076 2.2841-0.78076 3.2021h-0.0937c-0.16-1.25-0.37857-2.331-0.66357-3.249l-4.5322-14.77zm-31.008 4.4575c2.812 0 4.2232 1.7374 4.2232 5.2134h-8.9414c0.192-1.484 0.72208-2.7247 1.6011-3.7207 0.87899-0.996 1.9182-1.4927 3.1172-1.4927zm-40.507 8.3203v1.6362c0 1.484-0.44562 2.714-1.3286 3.687-0.887 0.973-2.0309 1.4575-3.4409 1.4575-1.008 0-1.8127-0.27292-2.4067-0.81592-0.589-0.547-0.88623-1.2457-0.88623-2.0977 0-1.883 1.2149-2.9804 3.6518-3.2974zm-23.997 17.199c-1.578 0-2.6675 1.2154-2.6675 2.9414 0 1.633 0.99652 2.8477 2.5825 2.8477 1.535 0 2.6763-1.0737 2.6763-2.9487 0-1.602-0.96631-2.8403-2.5913-2.8403zm63.363 0.01172c-1.222 0-1.9834 0.68786-1.9834 1.6099 0 0.805 0.58504 1.2925 1.519 1.6245 0.703 0.258 0.98438 0.50818 0.98438 0.93018 0 0.457-0.36321 0.76465-1.0122 0.76465-0.523 0-1.0266-0.16789-1.3506-0.35889l-0.23438 0.84814c0.309 0.191 0.92104 0.35889 1.519 0.35889 1.437 0 2.1182-0.7815 2.1182-1.6875 0-0.805-0.46508-1.2931-1.4341-1.6611-0.75-0.289-1.0752-0.48692-1.0752-0.91992 0-0.332 0.27785-0.67236 0.92285-0.67236 0.523 0 0.91361 0.16014 1.1206 0.26514l0.2417-0.82031c-0.293-0.148-0.72994-0.28125-1.3359-0.28125zm-78.085 0.04687c-0.601 0-1.169 0.05019-1.626 0.11719v5.5049c0.34 0.043 0.78988 0.07324 1.3799 0.07324 1.086 0 1.9762-0.25772 2.5312-0.76172 0.531-0.484 0.87158-1.2226 0.87158-2.2266 0-0.946-0.33191-1.6171-0.87891-2.0581-0.516-0.43-1.2308-0.64893-2.2778-0.64893zm51.136 0c-0.59 0-1.1515 0.05098-1.5425 0.12598v5.5107h1.0151v-2.2969h0.51269c0.582 0.016 0.83942 0.24598 1.0034 0.97998 0.153 0.695 0.293 1.1529 0.375 1.3169h1.0459c-0.109-0.214-0.25792-0.86359-0.44092-1.5586-0.133-0.539-0.37476-0.92906-0.78076-1.0811v-0.0249c0.531-0.183 1.0225-0.67107 1.0225-1.3931 0-0.481-0.17501-0.8714-0.47901-1.1294-0.383-0.317-0.92244-0.44971-1.7314-0.44971zm-13.132 0.0044c-0.57799 0-1.1687 0.05458-1.4927 0.12158v5.4961c0.266 0.031 0.68791 0.07324 1.2539 0.07324 1.027 0 1.6835-0.17562 2.0815-0.51562 0.316-0.273 0.53174-0.66416 0.53174-1.1602 0-0.765-0.5394-1.2309-1.1294-1.3799v-0.02197c0.606-0.227 0.93018-0.69164 0.93018-1.2026 0-0.485-0.22955-0.84915-0.58155-1.0562-0.37099-0.258-0.84375-0.35449-1.5938-0.35449zm26.051 0.03955-1.793 5.5928h1.0547l0.48047-1.5864h1.7695l0.50831 1.5864h1.1001l-1.8149-5.5928zm24.813 0v5.5928h1.0225v-5.5928zm10.491 0v5.5928h3.3208v-0.85547h-2.2969v-4.7373zm-61.254 0.71338c0.648 0 1.0474 0.23951 1.0474 0.77051 0 0.477-0.39096 0.80859-1.106 0.80859h-0.52295v-1.5396c0.109-0.024 0.28054-0.03955 0.58154-0.03955zm-23.417 0.0073c1.019 0 1.5425 0.99725 1.5425 2.0522 0 1.168-0.55448 2.0889-1.5425 2.0889-0.981 0-1.5513-0.90178-1.5513-2.0508 0-1.152 0.53927-2.0903 1.5513-2.0903zm36.551 0.0088c0.664 0 1.0854 0.28902 1.0854 0.89502 0 0.558-0.42128 0.92139-1.1133 0.92139h-0.60205v-1.7651c0.097-0.027 0.30488-0.05127 0.62988-0.05127zm-51.145 0.02344c1.278 0 1.9919 0.71431 1.9849 1.9453 0 1.418-0.79017 2.1555-2.1182 2.1475-0.207 0-0.4225 1e-3 -0.5625-0.02197v-4.0122c0.148-0.031 0.3718-0.05859 0.6958-0.05859zm64.566 0.05859h0.0161c0.086 0.324 0.17518 0.70736 0.28418 1.0474l0.43799 1.3784h-1.4341l0.43066-1.3784c0.094-0.332 0.18314-0.72336 0.26514-1.0474zm-27.136 2.2192h0.5083c0.707 0 1.2759 0.26399 1.2759 0.91699 0 0.691-0.58912 0.93018-1.2451 0.93018-0.231 0-0.40606 5.62e-4 -0.53906-0.02344z" clip-path="url(#d)" fill="#231f20"/><path d="m-509.73 383.3c-4.1271 0.0671-8.3396 0.77682-12.371 2.2247-5.3689 1.9208-10.375 5.096-14.496 9.1738-4.0778 4.1154-7.2512 9.1207-9.1721 14.491-1.939 5.3555-2.5409 11.117-2.0952 16.416 0.17925 1.3577 0.26896 2.7398 0.57658 4.0272 0.13807 0.64795 0.24472 1.3008 0.40095 1.9391 0.18046 0.63463 0.36064 1.2627 0.5411 1.8876 0.15986 0.62857 0.39752 1.2337 0.61916 1.8344 0.22768 0.60071 0.42038 1.2111 0.67592 1.7936 0.53895 1.1493 0.99884 2.3186 1.6286 3.3832 0.30278 0.54379 0.57636 1.0866 0.88882 1.6073 0.33064 0.51593 0.65762 1.023 0.98462 1.5293l0.5003 0.76996 0.51626 0.69721c0.35486 0.46265 0.6615 0.92512 1.0503 1.3696 1.4751 1.8409 3.0561 3.4026 4.6499 4.845 3.2409 2.8062 6.6435 4.8399 9.8178 6.2217 3.1792 1.3674 6.102 2.1624 8.5387 2.5742 2.4307 0.43116 4.3707 0.5155 5.686 0.5482 1.3201-5e-3 2.0207-0.0107 2.0207-0.0107s-0.69963-0.0417-2.01-0.13128c-0.65279-0.0279-1.4533-0.17486-2.4004-0.28386-0.47233-0.0472-0.96912-0.16987-1.5044-0.26434-0.52925-0.11384-1.1063-0.18123-1.6925-0.34595-2.3798-0.53046-5.2093-1.4612-8.2371-2.9521-0.58254-0.29309-1.1777-0.61592-1.7688-0.95624 3.3972 0.96041 6.7976 1.4045 10.086 1.6322 3.3257 0.21316 6.5284 0.19979 9.5659-0.0231 3.0229-0.16955 5.8805-0.53884 8.4819-0.98817 1.2826-0.2507 2.5356-0.48664 3.7043-0.76641 1.1639-0.29309 2.266-0.58671 3.2785-0.93672 2.0347-0.67217 3.7532-1.4432 5.0491-2.262 1.3007-0.8272 2.1283-1.7694 2.4589-2.5228 0.327-0.76542 0.25124-1.2236 0.2803-1.2188-0.0291-0.01 0.0428 0.45961-0.29272 1.2117-0.34154 0.74725-1.1794 1.6689-2.4802 2.4731-1.3056 0.79934-3.0193 1.5574-5.0721 2.1254-2.0528 0.59102-4.3939 1.0672-7.0148 1.3519-0.65279 0.10415-1.3165 0.1316-1.9923 0.19337-0.68186 0.0472-1.362 0.12835-2.0668 0.15257-1.4146 0.0327-2.868 0.11772-4.3625 0.0657-1.8736 0-3.8222-0.10422-5.8048-0.27498-0.32215-0.34517-0.64731-0.75236-0.95978-1.2259-0.85141-1.2814-1.6329-3.0078-2.3329-5.0473-0.0606-0.18409-0.11789-0.38812-0.18451-0.5819 0.19862 5e-3 0.39747 0.011 0.5961 0.0195 1.0791 0.0242 2.1576 0.0957 3.204 0.0763 1.05-0.01 2.0842-0.02 3.1064-0.0248 1.05-0.023 2.0527-0.0942 3.0603-0.1366 2.002-0.0618 3.9472-0.30374 5.8208-0.46482 0.9374-0.0848 1.854-0.24097 2.7587-0.35482 0.89864-0.12716 1.7818-0.22048 2.6381-0.40094 0.8611-0.15987 1.704-0.31697 2.5228-0.46836 0.82356-0.14655 1.6134-0.36324 2.3897-0.534 1.5563-0.32579 2.9978-0.7959 4.3518-1.2028l0.17387-0.0514c0.28824 0.22285 0.54888 0.44422 0.77173 0.66706 0.42146 0.4251 0.70555 0.84634 0.87995 1.2206 0.35485 0.74725 0.26495 1.2202 0.28917 1.2117-0.0242 8e-3 0.0702-0.46363-0.27498-1.2206-0.16592-0.37424-0.44914-0.80409-0.86576-1.2401-0.21194-0.21679-0.45947-0.43535-0.73802-0.65819 0.59102-0.17925 1.1496-0.42941 1.7031-0.62803 0.30278-0.11869 0.6104-0.23379 0.90833-0.35127 0.29794-0.109 0.59036-0.21182 0.86044-0.35837 1.0973-0.54379 2.1344-0.99448 2.9858-1.5576 1.7174-1.0936 2.8145-2.3325 3.259-3.3353 0.20831-0.5014 0.32691-0.9071 0.33175-1.1869l0.0426-0.42579s-0.0183 0.14723-0.0461 0.42579c-0.01 0.27976-0.13231 0.68676-0.34063 1.1833-0.45416 0.98826-1.5568 2.2126-3.2838 3.2821-0.85141 0.54863-1.889 0.98815-2.9911 1.5186-0.54864 0.27371-1.1677 0.43985-1.783 0.67238-0.59587 0.19378-1.1971 0.45042-1.8451 0.61029-0.20831-0.15987-0.42557-0.31213-0.66174-0.46836-1.291-0.83809-3.0139-1.5902-5.0437-2.2708-2.0347-0.67701-4.3903-1.2295-6.9882-1.7067-2.6063-0.45901-5.4395-0.80906-8.4855-1.0077-3.0145-0.18046-6.2366-0.22817-9.5624-5e-3 -0.56801 0.0375-1.1449 0.0899-1.7226 0.14193-0.15623-1.0743-0.30748-2.1762-0.43465-3.3122 4.3951 0.27492 8.6583 0.28862 12.713 0.0851 4.4993-0.218 8.7283-0.68583 12.598-1.3483 3.8659-0.66611 7.3702-1.4799 10.398-2.45 0.91318-0.29793 1.779-0.61102 2.6026-0.93317 0.4251 0.22769 0.83262 0.45984 1.2117 0.69721 0.85626 0.53895 1.5701 1.0956 2.1236 1.6588 0.54863 0.56317 0.9211 1.1317 1.1585 1.6198 0.21679 0.49655 0.31688 0.90783 0.34595 1.1815 0.023 0.28462 0.0372 0.42579 0.0372 0.42579s-0.0138-0.14117-0.0319-0.42579c-0.0291-0.27855-0.1186-0.69079-0.33175-1.1922-0.23617-0.48686-0.60582-1.0598-1.1496-1.6375-0.54864-0.5668-1.2638-1.1403-2.12-1.6889-0.35486-0.23253-0.74268-0.45308-1.1496-0.67593 1.8639-0.73272 3.4929-1.5236 4.8167-2.3702 1.9257-1.2208 3.1785-2.6015 3.6617-3.7327 0.11748-0.2834 0.23212-0.53032 0.26966-0.76286 0.0569-0.22648 0.10822-0.41373 0.10822-0.5748 0.0242-0.31247 0.039-0.47369 0.039-0.47369s-0.0153 0.16122-0.0444 0.47369c0 0.16107-0.0561 0.34962-0.11178 0.57125-0.0436 0.23254-0.15193 0.47721-0.2803 0.75577-0.48687 1.1263-1.7507 2.49-3.6812 3.6866-1.348 0.84778-3.0124 1.6423-4.9284 2.3471-1.509-0.80903-3.3255-1.5489-5.3844-2.2247-2.6959-0.88895-5.8181-1.608-9.2625-2.2087-3.4444-0.59224-7.2153-1.0114-11.223-1.2294-4.0015-0.21315-8.2545-0.23128-12.635 0.0994-0.13322 0.01-0.2707 0.0186-0.40272 0.0319-0.01-0.65279-0.0134-1.305-0.0231-1.9675-0.01-0.61404-5e-3 -1.2343-5e-3 -1.8592 0.97979 0.11385 1.9772 0.17069 2.9752 0.25547 0.61525 0.0472 1.2303 0.0947 1.8504 0.14193 0.61525 0.0472 1.2217 0.0467 1.8309 0.071 1.2353 0.0327 2.4748 0.0707 3.715 0.10822 2.484-0.0145 4.9652-0.11348 7.4068-0.29272 2.4464-0.17561 4.8359-0.49711 7.1443-0.86044 2.3047-0.36454 4.5084-0.85692 6.5854-1.4104 2.0722-0.545 4.0032-1.2019 5.7339-1.9249l0.19337-0.0869 0.0444 0.29095c0.0848 0.77996 0.15501 1.4463 0.20224 1.9852 0.0654 1.0888 0.10468 1.6694 0.10468 1.6694s0.0143-0.58063 0.0337-1.6694c-5e-3 -0.63341-0.0101-1.448-0.0621-2.4181 1.0694-0.45901 2.0619-0.94994 2.9521-1.4707 1.182 0.51594 2.2412 1.0651 3.1543 1.6428 0.96526 0.60556 1.7696 1.233 2.3897 1.8628 0.61524 0.63825 1.0321 1.2729 1.3022 1.8167 0.24101 0.55832 0.34921 1.0186 0.38675 1.3359 0.0242 0.31126 0.039 0.47723 0.039 0.47723s-0.0143-0.16597-0.0337-0.47723c-0.0327-0.31731-0.13686-0.77627-0.37788-1.3394-0.26039-0.55348-0.67759-1.1918-1.288-1.8397-0.61524-0.63947-1.4186-1.2777-2.3791-1.893-0.8938-0.5777-1.9346-1.1268-3.0851-1.6464 0.34153-0.20347 0.66683-0.4073 0.97929-0.61561 1.2826-0.85141 2.2895-1.7846 2.9556-2.6736 0.68186-0.89016 0.95791-1.7499 1.0378-2.3276 0.0618-0.29308 0.0413-0.51034 0.0461-0.66173v-0.22709s-0.0138 0.0805-0.0319 0.22709c-0.0291 0.1417-0.0479 0.36989-0.14725 0.63512-0.16108 0.53895-0.56245 1.2849-1.2915 2.0225-0.72788 0.74847-1.7746 1.4824-3.0656 2.1679-0.57771 0.29914-1.2066 0.5814-1.8788 0.85511-0.61524-0.2507-1.258-0.49121-1.9302-0.72738-0.24101-1.9208-0.6574-4.1866-1.4228-6.6936-0.44569-1.4388-1.0031-2.9623-1.7031-4.5186l0.0798-0.0426c1.3383-0.70003 2.6739-1.5281 3.7433-2.8386 0.52441-0.67096 0.97871-1.419 1.1301-2.4642l0.0142-0.10999c2.1764 2.5736 3.8883 5.229 5.1466 7.7688 1.4994 3.0278 2.4176 5.8568 2.9663 8.2318 0.54379 2.3798 0.75728 4.2917 0.89414 5.5973 0.0811 1.3153 0.12419 2.0136 0.12419 2.0136s4e-3 -0.70365 0.0142-2.0189c-0.0569-1.3153-0.10557-3.2594-0.54642-5.6913-0.42994-2.4319-1.2185-5.356-2.5955-8.5352-1.3674-3.1743-3.3934-6.58-6.2129-9.816-0.36454-0.41662-0.74656-0.83363-1.139-1.2454-0.19863-0.22648-0.41181-0.43425-0.62981-0.62803-2.5215-2.5167-5.5298-4.8586-9.0408-6.7274-4.3431-2.3362-9.4228-3.9735-14.821-4.4228-1.3471-0.11718-2.7136-0.16609-4.0893-0.14371zm1.0254 2.2904c0.96729-7e-3 1.9292 0.0241 2.8829 0.094 5.0952 0.36455 9.9306 1.7565 14.127 3.8711 0.99795 0.50625 1.9577 1.05 2.8794 1.618-1.8821-0.55348-3.7127-0.91774-5.4252-1.1975-1.3201-0.20347-2.5632-0.35049-3.7416-0.45949-2.616-1.4376-5.5689-2.4961-8.748-2.851-0.89017-0.109-1.7873-0.14643-2.686-0.15612l-0.26079-0.0231h-0.0568l-0.13306 4e-3 -0.0798 4e-3 -0.0958 0.0106c-1.1966 0.0194-2.4072 0.12877-3.628 0.33708-2.3278 0.3924-4.6084 1.1664-6.7558 2.2407-2.1715 1.0839-4.1825 2.4796-6.0088 4.0928-0.16592-0.11869-0.32086-0.23661-0.45772-0.36014-0.39724-0.36939-0.64758-0.73194-0.74689-1.0166-0.0666-0.13685-0.0768-0.25666-0.10467-0.33175l-0.0284-0.12241-9e-3 0.12241c5e-3 0.0799-0.0291 0.20923 0 0.36546 0.0182 0.3161 0.15513 0.79997 0.50029 1.3111 0.10416 0.15623 0.23216 0.31615 0.36902 0.47723-1.5987 1.4763-3.0506 3.1074-4.3235 4.8575-0.83688 1.1736-1.5935 2.4034-2.285 3.6617-0.35001-0.20347-0.68218-0.40721-0.97043-0.61916-1.0125-0.70002-1.6276-1.5055-1.8734-2.1147-0.12838-0.30762-0.18867-0.56193-0.21289-0.7327l-0.0284-0.19515c0.58618-0.67701 1.1868-1.3394 1.8202-1.9728 3.8332-3.832 8.5038-6.8306 13.527-8.6558 4.0788-1.476 8.3619-2.2285 12.553-2.2584zm-1.0148 3.2164c0.0946 1.5e-4 0.18939 2e-3 0.28386 2e-3l0.14193 0.0177c0.14291 0.0375 0.27828 0.0527 0.41513 0.12418 0.1417 0.0521 0.28465 0.10908 0.42756 0.1987 0.10779 0.0654 0.22098 0.14135 0.32998 0.21644-0.42147 0.0242-0.64754 0.039-0.64754 0.039s0.27742 0.018 0.77882 0.0568c0.93256 0.70003 1.7237 1.822 2.3862 2.9326 0.67701 1.1736 1.23 2.4179 1.712 3.6617-0.34517 0.0194-0.68558 0.0476-1.0308 0.0621-1.268 0.0654-2.5552 0.0892-3.8462 0.094-1.2487-0.0291-2.6404-0.0199-3.8516-0.10468-0.87927-0.0327-1.7557-0.10418-2.6168-0.17563 0.27493-0.73757 0.56312-1.4608 0.88528-2.1608 0.70486-1.509 1.5371-2.9765 2.592-3.9793 0.12837-0.13685 0.26054-0.24001 0.39739-0.34417 0.13323-0.11869 0.27474-0.19432 0.41159-0.28031 0.13686-0.0993 0.28006-0.14217 0.41691-0.20757 0.15139-0.0763 0.21865-0.0619 0.32644-0.11885l0.20402-0.0284c0.0951-4e-3 0.18923-5e-3 0.28385-5e-3zm4.5417 0.35127c0.12717 0.0279 0.26006 0.0561 0.39208 0.0852-0.11385 0-0.21735 5e-3 -0.32999 5e-3zm-9.5286 0.35837c-0.76664 1.0125-1.3579 2.1072-1.8823 3.2093-0.44933 0.96041-0.84266 1.9431-1.1975 2.9326-0.67701-0.086-1.3336-0.17041-1.9621-0.29273-0.27493-0.0472-0.54021-0.0912-0.80544-0.13838-0.25918-0.0606-0.51086-0.12178-0.76641-0.17386-0.5014-0.11869-1.0073-0.19326-1.453-0.3495-0.39725-0.12353-0.78862-0.23249-1.1532-0.35481 1.434-1.1881 2.9757-2.2288 4.618-3.0621 1.4848-0.74241 3.0263-1.3442 4.602-1.7705zm9.958 0.23773c0.90349 0.0945 1.9452 0.21269 3.0993 0.37255 2.0855 0.75211 4.0361 1.784 5.7764 3 0.62493 0.43963 1.2208 0.90838 1.7936 1.3856-0.21801 0.0715-0.44517 0.13871-0.67771 0.20047-0.92166 0.25918-1.944 0.46667-3.023 0.66529-1.0827 0.19862-2.2404 0.32311-3.4382 0.46481-0.22164 0.0242-0.46058 0.0427-0.6919 0.0621-0.48687-1.4994-1.0691-3.0184-1.8539-4.5275-0.29793-0.54016-0.61523-1.0892-0.98462-1.6233zm9.5375 1.5098c0.23254 0.0521 0.45452 0.0987 0.6919 0.1508 1.3238 0.31731 2.715 0.69592 4.1248 1.1549l-0.24483 0.25015c-0.19014 0.13685-0.46842 0.39762-0.74334 0.53932-0.1417 0.0811-0.28456 0.16537-0.43111 0.25015-0.11384 0.0569-0.23128 0.11338-0.35482 0.17031-0.80418-0.76663-1.6607-1.5042-2.5884-2.1946-0.14654-0.109-0.30278-0.21211-0.45417-0.32111zm5.2087 1.4317c0.67701 0.22769 1.3584 0.4702 2.0402 0.74512 1.107 0.45901 2.2234 0.9834 3.2395 1.641 0.99917 0.65763 1.9781 1.448 2.4092 2.3418 0.11263 0.218 0.17405 0.43439 0.21644 0.64754 0.0242 0.20831 0.0392 0.41732-0.0177 0.6777l-0.0248 0.11177-0.0568 0.16144-0.14192 0.32288c-0.11869 0.21316-0.25992 0.42375-0.44885 0.6369-0.72425 0.84173-1.8446 1.5514-3.023 2.1484l-0.0514 0.0231c-0.3597-0.68064-0.74684-1.3618-1.178-2.0473-1.2063-1.9257-2.6782-3.8656-4.4476-5.6629l0.16144-0.12419c0.15624-0.13686 0.29659-0.27789 0.43465-0.40627 0.28341-0.26887 0.42504-0.50238 0.63336-0.76641 0.109-0.15139 0.18885-0.30286 0.25547-0.45062zm-34.928 2.5139c0.11385 0.0751 0.21307 0.14135 0.33176 0.21644 0.40693 0.23738 0.85736 0.42686 1.3164 0.65819 0.46265 0.24222 0.95955 0.40198 1.4743 0.61029 0.25555 0.0993 0.52117 0.18986 0.79125 0.28917 0.26887 0.0799 0.54462 0.16014 0.82318 0.24128 0.55832 0.1744 1.141 0.33021 1.7368 0.47191-0.54864 1.8215-0.98971 3.6779-1.3785 5.5369-0.16108 0.8175-0.30265 1.6455-0.43466 2.4642-1.618-0.18894-3.16-0.41737-4.6073-0.70077-2.4174-0.47839-4.5655-1.0794-6.3495-1.7794 0.63341-1.1166 1.3147-2.1979 2.0668-3.2395 1.2438-1.7307 2.6635-3.3409 4.2294-4.7688zm31.928 0.24483c1.8554 1.7028 3.43 3.5672 4.7368 5.4553 0.41056 0.59587 0.78991 1.1977 1.1496 1.7936l-0.57303 0.2324c-0.67217 0.29794-1.3142 0.48134-1.9622 0.6848l-0.97575 0.30692-1.0201 0.25547c-0.6867 0.15623-1.3544 0.36508-2.0544 0.48255-2.0056 0.45417-4.0492 0.75305-6.0887 0.99527-0.0521-0.37423-0.0992-0.74916-0.15612-1.1319-0.30762-2.0201-0.70406-4.168-1.2951-6.3867 0.11385-0.0242 0.23033-0.0386 0.34418-0.0568 1.2438-0.23253 2.4416-0.51608 3.557-0.85156 1.1166-0.327 2.1591-0.71006 3.0905-1.1461 0.44448-0.19378 0.85963-0.40688 1.2472-0.63336zm-22.982 2.7356c1.0452 0.16471 2.11 0.32594 3.2218 0.39739 1.3625 0.14655 2.6164 0.14212 3.9935 0.18451 1.348-0.0194 2.6923-0.0472 4.0112-0.17918 0.57286-0.0424 1.1306-0.1095 1.6889-0.18096 0.70486 2.1909 1.2494 4.3432 1.6854 6.3779 0.0702 0.35001 0.1308 0.68567 0.20225 1.0272-0.29914 0.0279-0.59621 0.065-0.89414 0.094-2.8001 0.19378-5.5549 0.37783-8.246 0.35482-2.5736-0.0145-5.0469-0.1083-7.4122-0.30692 0.12716-0.74362 0.25842-1.4925 0.40981-2.23 0.36455-1.8688 0.8005-3.7317 1.3394-5.5387zm-20.631 0.29804v0.18806c0 0.17561 0.0173 0.44036 0.11177 0.77705 0.18046 0.67096 0.69228 1.6031 1.6854 2.4642 0.29309 0.26524 0.63024 0.52554 0.98994 0.78593-1.4715 2.7819-2.5975 5.7241-3.369 8.7143-0.32095 1.2293-0.57666 2.473-0.77528 3.7132-0.44084 0.16592-0.88111 0.33628-1.311 0.52158-0.13807-0.0666-0.28443-0.1333-0.41159-0.1987-1.2971-0.67701-2.3528-1.4123-3.071-2.1644-0.60071-0.62857-0.97501-1.2377-1.1833-1.7439 0.16108-0.50625 0.32815-1.0137 0.50739-1.5151 1.5187-4.1868 3.8692-8.1221 6.8267-11.542zm4.9533 5.5245c1.7828 0.91802 3.9732 1.7471 6.4524 2.4181 1.4618 0.40209 3.0324 0.7483 4.6783 1.0414-0.19378 1.4049-0.35941 2.8041-0.49142 4.1993-4.5659 0.39845-9.2626 1.1088-13.927 2.4713-0.12353 0.0327-0.24193 0.0707-0.36546 0.10821 0.15139-0.73757 0.31716-1.4713 0.51094-2.2052 0.73272-2.7674 1.783-5.4825 3.1419-8.0331zm45.763 0.87995c0.76179 1.4715 1.3899 2.9238 1.9107 4.3093 0.82718 2.2757 1.3852 4.3727 1.7546 6.1845-0.17076-0.0569-0.33532-0.11872-0.51094-0.17564-3.0229-0.98827-6.5321-1.7867-10.398-2.4589-1.9257-0.33548-3.942-0.61622-6.0372-0.8427-0.0666-1.1736-0.17006-2.4419-0.30692-3.7717 2.1049-0.22647 4.2198-0.50964 6.3211-0.96865 0.72788-0.13322 1.4414-0.35484 2.1608-0.53045l1.0786-0.28386 1.0893-0.35482c0.72424-0.24101 1.4556-0.46799 2.0988-0.76108zm-32.134 2.9716c2.4271 0.33548 5.0155 0.57705 7.6836 0.65819 2.7347 0.0848 5.5882 0.0514 8.4731-0.14725 0.38392-0.0339 0.76569-0.0755 1.1496-0.10822 0.21194 1.2438 0.39373 2.432 0.54997 3.5535-1.8082-0.17562-3.6573-0.32245-5.5636-0.41692-4.0596-0.19377-8.346-0.18621-12.759 0.0887 0.12716-1.2063 0.28734-2.4169 0.46658-3.628zm-26.024 4.0166c0.15623 0.50624 0.43552 1.1058 0.90301 1.7404 0.62493 0.84657 1.5666 1.7239 2.7498 2.5281-0.66248 0.31246-1.3208 0.64764-1.9639 1.0219-1.1215 0.66127-2.2184 1.4123-3.1934 2.4163l0.0798-0.88882 0.13306-0.97398c0.27371-1.9644 0.7102-3.9182 1.2915-5.8439zm38.292 0.67238c1.9547 5e-3 3.8508 0.0657 5.7002 0.16499 0.24222 1.8542 0.40739 3.5053 0.53577 4.8823 0.0896 1.0319 0.16082 1.9161 0.21289 2.6452-0.73393 0.0521-1.4664 0.10347-2.2052 0.15434-2.3835 0.14776-4.8148 0.2138-7.2418 0.20047-1.2208-0.0242-2.4417-0.0492-3.6529-0.0674-0.6104-0.0194-1.2266-9e-3 -1.8273-0.0461-0.59587-0.0375-1.1919-0.0813-1.783-0.11886-0.59223-0.0375-1.1826-0.0753-1.7688-0.11887-0.43115-0.023-0.86168-0.0471-1.288-0.0798 0.0666-1.9729 0.18521-3.9682 0.33176-5.9787 0.023-0.31247 0.0573-0.62603 0.0851-0.9385 4.4327-0.49655 8.7713-0.70868 12.901-0.69899zm6.628 0.21289c2.0444 0.12717 4.0218 0.31203 5.9148 0.5482 3.8695 0.46385 7.3799 1.2067 10.421 2.1005 0.20831 0.0618 0.40682 0.12274 0.61029 0.18451 0.0424 0.20346 0.0808 0.40811 0.11354 0.60674 0.0666 0.3161 0.1147 0.62329 0.16677 0.92607-0.16593 0.0521-0.32325 0.10807-0.48433 0.16499-1.727 0.54864-3.6335 1.0221-5.6718 1.4423-2.0395 0.42147-4.2151 0.74476-6.4666 1.0378-1.4812 0.19377-2.9995 0.32967-4.5364 0.44352 0.023-0.72425 0.0461-1.608 0.0461-2.6398 0-1.3577-0.0239-2.9837-0.11355-4.8149zm-22.041 0.78947c-0.0145 0.14655-0.0288 0.29746-0.0372 0.44885-0.13807 1.784-0.20334 3.5532-0.23241 5.3081v0.61561c-0.51593-0.0569-1.0408-0.10936-1.547-0.16144-1.1312-0.11869-2.2283-0.34972-3.3122-0.49142-0.53894-0.0811-1.0675-0.15659-1.5931-0.23773-0.52926-0.0993-1.0595-0.20107-1.5754-0.3016-2.0201-0.4251-3.9372-0.89902-5.6594-1.4477-0.23132-0.0751-0.44897-0.15199-0.6706-0.22708l0.0177-0.14548c0.50624-0.1853 1.0128-0.36098 1.5239-0.5269 2.3847-0.77633 4.8294-1.3468 7.2614-1.8397 1.945-0.40208 3.889-0.72825 5.8243-0.99349zm39.56 2.2229c0.60072 0.19378 1.1821 0.39843 1.7404 0.60674-0.50988 0.20831-1.0503 0.40539-1.6038 0.59432-0.0279-0.27371-0.0565-0.5567-0.094-0.84979-0.01-0.11384-0.0281-0.23743-0.0426-0.35127zm-56.709 2.152c-0.22769 2.4222-0.2459 4.8262-0.0993 7.1443 0.12232 1.8833 0.37252 3.7094 0.72738 5.4837l-0.0905-0.0373c-1.1494-0.47839-2.2741-1.009-3.3193-1.6339-1.0416-0.62372-2.0358-1.3324-2.7782-2.1608-0.37908-0.40693-0.67121-0.84706-0.89769-1.2915-0.0811-0.22284-0.19849-0.44421-0.23241-0.66706-0.0133-0.11384-0.0657-0.22219-0.0621-0.32998l-9e-3 -0.17208-5e-3 -0.0798-4e-3 -0.0426-5e-3 -0.0231 0.0319-0.40804c5e-3 -0.19863 0.0529-0.21164 0.0674-0.31579 0.0145-0.15624 0.14062-0.41786 0.22177-0.62981 0.22163-0.44084 0.52038-0.87976 0.89946-1.2915 0.74241-0.82719 1.7349-1.5324 2.7765-2.1573 0.87442-0.52562 1.8178-0.97556 2.7782-1.3873zm2.34 0.58722c0.11384 0.0472 0.22846 0.10534 0.34594 0.15257 1.7319 0.72304 3.6578 1.3767 5.7445 1.9302 0.50987 0.13202 1.0302 0.26466 1.5559 0.40272 0.53895 0.11264 1.0876 0.23033 1.641 0.34418 0.55348 0.11263 1.1111 0.22678 1.6694 0.34062 0.56317 0.109 1.1324 0.24031 1.7138 0.30692 0.6104 0.0896 1.2439 0.18013 1.8628 0.26612 0.01 0.77995 0.0534 1.4894 0.0727 2.2318 0.0327 0.71456 0.0515 1.42 0.0745 2.12-3.5619 0.37424-7.2009 0.98485-10.815 2.0349-1.1832 0.34032-2.3648 0.72825-3.5287 1.1957-0.26039-1.5841-0.44035-3.2072-0.52513-4.8397-0.10416-2.1521-0.0433-4.3194 0.18806-6.4861zm29.892 8.8953c3.964-0.0194 7.7253 0.20622 11.17 0.64222 3.4432 0.41178 6.5704 1.0648 9.2821 1.8592 2.0431 0.58618 3.8443 1.287 5.34 2.0633-0.79086 0.2834-1.6223 0.56361-2.4979 0.81431-3.0508 0.87079-6.552 1.6326-10.426 2.0952-3.8647 0.48324-8.0859 0.75309-12.543 0.76641-4.1057 0.0194-8.438-0.19841-12.862-0.69012-0.0279-0.30278-0.0614-0.60119-0.0905-0.91366-0.0375-0.37787-0.0748-0.75673-0.11354-1.1443-0.0279-0.38877-0.0373-0.77625-0.0603-1.1638-0.0388-0.78117-0.076-1.5655-0.11355-2.3649-0.0242-0.36454-0.044-0.73933-0.0585-1.1124 0.18409-0.0242 0.3654-0.0516 0.54465-0.071 4.2764-0.5341 8.4605-0.77697 12.429-0.7806zm-15.106 1.1549c0.0242 0.30278 0.0459 0.60024 0.0798 0.90302 0.0751 0.81871 0.15151 1.6317 0.22176 2.4323 0.0388 0.39724 0.0663 0.79447 0.11354 1.1869 0.0521 0.3924 0.10985 0.77979 0.16677 1.1674 0.0182 0.16108 0.0426 0.32269 0.0656 0.48255-2.1376-0.27855-4.2942-0.62884-6.4524-1.0733-2.3701-0.49293-4.7584-1.0451-7.091-1.7972 0.87563-0.35485 1.7594-0.68573 2.6629-0.97398 2.1146-0.69154 4.2852-1.2085 6.447-1.6481 1.2632-0.26523 2.5276-0.4857 3.7859-0.67948zm-23.968 0.42401c0.87079 0.81871 1.8264 1.4625 2.8013 2.0402 0.74726 0.43479 1.5152 0.81912 2.2904 1.1691-0.60071 0.4251-1.1825 0.90358-1.7226 1.4849-0.4578 0.48808-0.87501 1.0632-1.2117 1.7209-0.0945 0.22285-0.18796 0.43219-0.26789 0.66351-0.84172-2.243-1.4776-4.6322-1.8894-7.0786zm7.9621 4.3483 0.18628 0.0621c0.39724 1.4521 0.85986 2.8611 1.3891 4.2188 0.36939 0.95072 0.79945 1.8641 1.2064 2.7676 0.23253 0.44084 0.46018 0.87626 0.68302 1.311l0.33885 0.64932c0.13686 0.2507 0.2508 0.41487 0.37434 0.62803 0.22648 0.36454 0.44542 0.72959 0.66706 1.0893l-0.65819-0.22354-1.5364-0.6298-0.75753-0.29805-0.77528-0.36723c-0.47234-0.23738-0.95719-0.48478-1.421-0.76819-0.92166-0.54863-1.7817-1.1771-2.4394-1.8965-0.32215-0.35849-0.59127-0.73804-0.77173-1.1159-0.0896-0.19014-0.15679-0.37877-0.20402-0.5677l-0.0515-0.28031-5e-3 -0.14193-4e-3 -0.0692v-0.039l0.0284-0.36901 5e-3 -0.10289 0.0177-0.0585 0.0337-0.10289c5e-3 -0.11385 0.11742-0.34645 0.17919-0.52691 0.19862-0.37786 0.44875-0.7562 0.7806-1.1159 0.64794-0.72304 1.5231-1.343 2.4412-1.8965zm2.4802 0.7806c4.8396 1.3904 9.7083 2.0821 14.434 2.466 0.0945 0.73273 0.19729 1.456 0.35837 2.1608 0.10415 0.48687 0.20003 0.96516 0.2945 1.4423-2.2612 0.27492-4.5512 0.69197-6.8462 1.3448-1.4945 0.42025-2.9849 0.96037-4.437 1.7173-0.20347-0.37423-0.41263-0.75279-0.62094-1.1319-0.44447-0.7848-0.81273-1.6544-1.233-2.4962-0.3597-0.87563-0.74351-1.7621-1.0645-2.6789-0.327-0.91802-0.62004-1.8603-0.88527-2.8244zm29.09 6.887c2.5762 8e-3 5.0351 0.15839 7.3039 0.42756 2.6027 0.29309 4.9632 0.77511 7.0112 1.3625 2.0528 0.5668 3.775 1.3049 5.0721 2.1236 0.22163 0.1417 0.42585 0.28456 0.62448 0.43111l-0.0284 4e-3c-1.3625 0.36454-2.8049 0.78598-4.366 1.0609-0.77511 0.14654-1.5625 0.35001-2.3897 0.45416-0.82356 0.109-1.6647 0.22596-2.521 0.3495-0.8611 0.13201-1.7465 0.18415-2.6452 0.27498-0.89865 0.0702-1.812 0.17938-2.7445 0.22176-1.8675 0.0569-3.7979 0.18869-5.7853 0.13661-0.98342-0.0133-2.0051 6e-3 -2.9982-0.0319-1.027-0.0472-2.06-0.0952-3.11-0.14725-1.05-0.0424-2.0817-0.17021-3.1366-0.25014-0.39724-0.0376-0.79317-0.072-1.1904-0.10468-0.39725-1.4667-0.75295-3.0384-1.0751-4.7315-0.0376-0.21315-0.0708-0.43841-0.10468-0.65641 0.53531-0.0848 1.075-0.17103 1.6091-0.24128 3.2179-0.42631 6.3589-0.64016 9.3637-0.6777 0.37257-5e-3 0.74255-6e-3 1.1106-5e-3zm-13.572 1.1744c0.0521 0.24101 0.0944 0.48775 0.15612 0.72028 0.36818 1.509 0.78367 2.932 1.233 4.2667-0.24102-0.0327-0.47226-0.0626-0.70964-0.0905-1.0682-0.13323-2.1475-0.25603-3.2218-0.45949-1.0743-0.18894-2.1652-0.33523-3.2395-0.59078-1.073-0.2507-2.1731-0.42071-3.2413-0.73802-0.27008-0.0702-0.54415-0.14143-0.81786-0.21289 0.30278-0.14654 0.60997-0.28797 0.92607-0.41514 0.75695-0.32215 1.5331-0.62085 2.3276-0.8764 1.5805-0.52926 3.2128-0.92283 4.8309-1.2632 0.58133-0.12717 1.169-0.23163 1.7564-0.34063zm-20.278 1.3004c0.23617 0.15139 0.4775 0.30312 0.71851 0.43998 0.53046 0.31731 1.0743 0.59156 1.6375 0.86043l0.78947 0.36547 0.85156 0.33175 1.1461 0.42933c-0.20346 0.26524-0.39291 0.55377-0.55884 0.87108-0.11868 0.29309-0.23996 0.52489-0.3211 0.91366-0.0993 0.42025-0.0906 0.58614-0.11 0.80898l0.0107 0.19338c-0.9701-1.0222-1.9158-2.1057-2.7818-3.2732-0.34517-0.42147-0.65317-0.92301-0.99349-1.382zm7.8007 3.2466c0.51593 0.14655 1.027 0.28321 1.5417 0.41159 0.10052 0.12717 0.20043 0.25508 0.30337 0.37256 2.2902 2.7347 4.7982 4.882 7.2773 6.3584 0.44932 0.27492 0.88916 0.52621 1.3288 0.75754-1.5333-0.33548-3.069-0.70499-4.5647-1.2064-0.79449-0.25554-1.5707-0.54931-2.3276-0.87995-0.75695-0.31731-1.4997-0.66639-2.1804-1.0733-0.67702-0.41178-1.3115-0.87093-1.7706-1.382-0.23253-0.25555-0.40207-0.51982-0.53045-0.77173-0.0424-0.12232-0.11272-0.24621-0.12241-0.36369l-0.0337-0.18096-4e-3 -0.0834-5e-3 -0.0426-4e-3 -0.0248 0.0231-0.25015c0-0.1417 0.0289-0.10936 0.0337-0.16144-5e-3 -0.0472 0.0742-0.21259 0.11178-0.32643 0.12838-0.2507 0.30324-0.51087 0.53577-0.76641 0.11748-0.13201 0.2499-0.25958 0.38676-0.38675zm3.848 0.92608c3.075 0.62978 6.1344 0.99942 9.1295 1.2259 0.51594 0.0375 1.0359 0.0813 1.547 0.11886 0.13323 0.33063 0.25531 0.66626 0.38853 0.97752 0.85989 2.0444 1.8344 3.7477 2.8421 5.0012 0.25554 0.327 0.51714 0.61553 0.78237 0.87108-0.98463-0.0945-1.9683-0.19806-2.9663-0.32644-0.72909-0.0993-1.4583-0.20822-2.191-0.33175-1.1917-0.56317-2.4473-1.2622-3.7238-2.1378-1.9923-1.3528-3.9638-3.1834-5.8084-5.3986z" fill="#ed1c24"/></g></g></g></svg>
