<?xml version="1.0" encoding="UTF-8" standalone="no"?>
<!-- Created with Inkscape (http://www.inkscape.org/) -->

<svg
   width="22.530514mm"
   height="22.527378mm"
   viewBox="0 0 22.530514 22.527378"
   version="1.1"
   id="svg1"
   inkscape:version="1.3 (0e150ed6c4, 2023-07-21)"
   sodipodi:docname="Logo Safety svg.svg"
   xmlns:inkscape="http://www.inkscape.org/namespaces/inkscape"
   xmlns:sodipodi="http://sodipodi.sourceforge.net/DTD/sodipodi-0.dtd"
   xmlns="http://www.w3.org/2000/svg"
   xmlns:svg="http://www.w3.org/2000/svg">
  <sodipodi:namedview
     id="namedview1"
     pagecolor="#ffffff"
     bordercolor="#000000"
     borderopacity="0.25"
     inkscape:showpageshadow="2"
     inkscape:pageopacity="0.0"
     inkscape:pagecheckerboard="0"
     inkscape:deskcolor="#d1d1d1"
     inkscape:document-units="mm"
     inkscape:zoom="5.9223904"
     inkscape:cx="49.304416"
     inkscape:cy="42.12826"
     inkscape:window-width="1920"
     inkscape:window-height="1009"
     inkscape:window-x="-8"
     inkscape:window-y="-8"
     inkscape:window-maximized="1"
     inkscape:current-layer="layer1"
     showgrid="false"
     showguides="true">
    <sodipodi:guide
       position="-4.2299498e-14,26.263513"
       orientation="1,0"
       id="guide1"
       inkscape:locked="false" />
    <sodipodi:guide
       position="-4.2299498e-14,26.263514"
       orientation="0,-1"
       id="guide2"
       inkscape:locked="false" />
    <sodipodi:guide
       position="22.530515,26.263514"
       orientation="1,0"
       id="guide3"
       inkscape:locked="false" />
    <sodipodi:guide
       position="-4.2299498e-14,3.7361364"
       orientation="0,-1"
       id="guide4"
       inkscape:locked="false" />
  </sodipodi:namedview>
  <defs
     id="defs1">
    <clipPath
       clipPathUnits="userSpaceOnUse"
       id="clipPath3">
      <path
         d="M 0,181.808 H 803.52 V 0 H 0 Z"
         transform="translate(-250.1923,-149.0163)"
         id="path3" />
    </clipPath>
    <clipPath
       clipPathUnits="userSpaceOnUse"
       id="clipPath5">
      <path
         d="M 0,181.808 H 803.52 V 0 H 0 Z"
         transform="translate(-103.4706,-37.395201)"
         id="path5" />
    </clipPath>
    <clipPath
       clipPathUnits="userSpaceOnUse"
       id="clipPath7">
      <path
         d="M 0,181.808 H 803.52 V 0 H 0 Z"
         transform="translate(-149.8144,-47.227199)"
         id="path7" />
    </clipPath>
    <clipPath
       clipPathUnits="userSpaceOnUse"
       id="clipPath9">
      <path
         d="M 0,181.808 H 803.52 V 0 H 0 Z"
         transform="translate(-181.9218,-70.594402)"
         id="path9" />
    </clipPath>
    <clipPath
       clipPathUnits="userSpaceOnUse"
       id="clipPath11">
      <path
         d="M 0,181.808 H 803.52 V 0 H 0 Z"
         transform="translate(-201.19821,-52.674501)"
         id="path11" />
    </clipPath>
    <clipPath
       clipPathUnits="userSpaceOnUse"
       id="clipPath13">
      <path
         d="M 0,181.808 H 803.52 V 0 H 0 Z"
         transform="translate(-230.1679,-36.224301)"
         id="path13" />
    </clipPath>
    <clipPath
       clipPathUnits="userSpaceOnUse"
       id="clipPath15">
      <path
         d="M 0,181.808 H 803.52 V 0 H 0 Z"
         transform="translate(-262.25581,-63.785804)"
         id="path15" />
    </clipPath>
    <clipPath
       clipPathUnits="userSpaceOnUse"
       id="clipPath17">
      <path
         d="M 0,181.808 H 803.52 V 0 H 0 Z"
         transform="translate(-104.6464,-23.693998)"
         id="path17" />
    </clipPath>
    <clipPath
       clipPathUnits="userSpaceOnUse"
       id="clipPath19">
      <path
         d="M 0,181.808 H 803.52 V 0 H 0 Z"
         transform="translate(-120.42861,-26.001703)"
         id="path19" />
    </clipPath>
    <clipPath
       clipPathUnits="userSpaceOnUse"
       id="clipPath21">
      <path
         d="M 0,181.808 H 803.52 V 0 H 0 Z"
         transform="translate(-148.4452,-23.656003)"
         id="path21" />
    </clipPath>
    <clipPath
       clipPathUnits="userSpaceOnUse"
       id="clipPath23">
      <path
         d="M 0,181.808 H 803.52 V 0 H 0 Z"
         transform="translate(-163.4736,-26.306398)"
         id="path23" />
    </clipPath>
    <clipPath
       clipPathUnits="userSpaceOnUse"
       id="clipPath25">
      <path
         d="M 0,181.808 H 803.52 V 0 H 0 Z"
         transform="translate(-180.46671,-25.515298)"
         id="path25" />
    </clipPath>
    <clipPath
       clipPathUnits="userSpaceOnUse"
       id="clipPath27">
      <path
         d="M 0,181.808 H 803.52 V 0 H 0 Z"
         transform="translate(-192.9208,-24.084703)"
         id="path27" />
    </clipPath>
    <clipPath
       clipPathUnits="userSpaceOnUse"
       id="clipPath29">
      <path
         d="M 0,181.808 H 803.52 V 0 H 0 Z"
         id="path29" />
    </clipPath>
    <clipPath
       clipPathUnits="userSpaceOnUse"
       id="clipPath31">
      <path
         d="M 0,181.808 H 803.52 V 0 H 0 Z"
         transform="translate(-219.47841,-29.234098)"
         id="path31" />
    </clipPath>
    <clipPath
       clipPathUnits="userSpaceOnUse"
       id="clipPath19-0">
      <path
         d="M 0,450.147 H 803.52 V 0 H 0 Z"
         transform="translate(-615.72851,-176.7868)"
         id="path19-2" />
    </clipPath>
    <clipPath
       clipPathUnits="userSpaceOnUse"
       id="clipPath21-5">
      <path
         d="M 0,450.147 H 803.52 V 0 H 0 Z"
         transform="translate(-656.07221,-185.3454)"
         id="path21-0" />
    </clipPath>
    <clipPath
       clipPathUnits="userSpaceOnUse"
       id="clipPath23-5">
      <path
         d="M 0,450.147 H 803.52 V 0 H 0 Z"
         transform="translate(-684.02141,-205.68721)"
         id="path23-5" />
    </clipPath>
    <clipPath
       clipPathUnits="userSpaceOnUse"
       id="clipPath25-6">
      <path
         d="M 0,450.147 H 803.52 V 0 H 0 Z"
         transform="translate(-700.80272,-190.0876)"
         id="path25-3" />
    </clipPath>
    <clipPath
       clipPathUnits="userSpaceOnUse"
       id="clipPath27-7">
      <path
         d="M 0,450.147 H 803.52 V 0 H 0 Z"
         transform="translate(-726.02142,-175.7673)"
         id="path27-4" />
    </clipPath>
    <clipPath
       clipPathUnits="userSpaceOnUse"
       id="clipPath29-7">
      <path
         d="M 0,450.147 H 803.52 V 0 H 0 Z"
         transform="translate(-753.95402,-199.7605)"
         id="path29-9" />
    </clipPath>
    <clipPath
       clipPathUnits="userSpaceOnUse"
       id="clipPath31-1">
      <path
         d="M 0,450.147 H 803.52 V 0 H 0 Z"
         transform="translate(-600.55172,-211.01241)"
         id="path31-0" />
    </clipPath>
    <clipPath
       clipPathUnits="userSpaceOnUse"
       id="clipPath33">
      <path
         d="M 0,450.147 H 803.52 V 0 H 0 Z"
         transform="translate(-616.75192,-164.8591)"
         id="path33" />
    </clipPath>
    <clipPath
       clipPathUnits="userSpaceOnUse"
       id="clipPath35">
      <path
         d="M 0,450.147 H 803.52 V 0 H 0 Z"
         transform="translate(-630.49022,-166.8679)"
         id="path35" />
    </clipPath>
    <clipPath
       clipPathUnits="userSpaceOnUse"
       id="clipPath37">
      <path
         d="M 0,450.147 H 803.52 V 0 H 0 Z"
         transform="translate(-654.87982,-164.82591)"
         id="path37" />
    </clipPath>
    <clipPath
       clipPathUnits="userSpaceOnUse"
       id="clipPath39">
      <path
         d="M 0,450.147 H 803.52 V 0 H 0 Z"
         transform="translate(-667.96282,-167.13351)"
         id="path39" />
    </clipPath>
    <clipPath
       clipPathUnits="userSpaceOnUse"
       id="clipPath41">
      <path
         d="M 0,450.147 H 803.52 V 0 H 0 Z"
         transform="translate(-682.75481,-166.44501)"
         id="path41" />
    </clipPath>
    <clipPath
       clipPathUnits="userSpaceOnUse"
       id="clipPath43">
      <path
         d="M 0,450.147 H 803.52 V 0 H 0 Z"
         transform="translate(-693.59662,-165.1999)"
         id="path43" />
    </clipPath>
    <clipPath
       clipPathUnits="userSpaceOnUse"
       id="clipPath45">
      <path
         d="M 0,450.147 H 803.52 V 0 H 0 Z"
         id="path45" />
    </clipPath>
    <clipPath
       clipPathUnits="userSpaceOnUse"
       id="clipPath47">
      <path
         d="M 0,450.147 H 803.52 V 0 H 0 Z"
         transform="translate(-716.71582,-169.68231)"
         id="path47" />
    </clipPath>
  </defs>
  <g
     inkscape:label="Camada 1"
     inkscape:groupmode="layer"
     id="layer1"
     transform="translate(-3.3449376,-3.7361357)">
    <path
       id="path62"
       style="fill:#ed1c24;fill-opacity:1;fill-rule:nonzero;stroke:none;stroke-width:0.352778"
       d="m 14.493689,3.7377564 c -1.202002,0.019844 -2.42866,0.226781 -3.602881,0.649056 C 9.3262388,4.9452595 7.868124,5.8705172 6.6683268,7.0579671 5.4801714,8.2570587 4.5552914,9.7157151 3.9961387,11.279932 c -0.5655028,1.559277 -0.7399323,3.237159 -0.6108157,4.78162 0.053269,0.395111 0.079048,0.796855 0.1679484,1.171504 0.039864,0.189442 0.071773,0.379944 0.1183393,0.565857 0.052211,0.18415 0.1043682,0.36764 0.1565793,0.549321 0.046567,0.18415 0.1152758,0.359685 0.1798341,0.535368 0.066322,0.174978 0.1241901,0.352599 0.1979207,0.521932 0.1566333,0.335139 0.2911341,0.674836 0.4738729,0.985986 0.087489,0.157339 0.1687516,0.316141 0.2594155,0.468189 0.096308,0.149577 0.1913904,0.297309 0.2862876,0.444417 l 0.1457276,0.224792 0.150895,0.203089 c 0.1026584,0.134761 0.1927077,0.269284 0.304891,0.399459 0.4300361,0.535516 0.8907007,0.989738 1.3549563,1.41025 0.9447388,0.818091 1.9353321,1.409773 2.8592573,1.812292 0.926747,0.398286 1.778267,0.63075 2.487703,0.750342 0.709083,0.125236 1.274147,0.149991 1.657263,0.159163 0.38347,-0.0014 0.588078,-0.0021 0.588078,-0.0021 0,0 -0.203953,-0.013 -0.586011,-0.03876 -0.1905,-0.0088 -0.423687,-0.05058 -0.698148,-0.08268 -0.137937,-0.0134 -0.282453,-0.05016 -0.438733,-0.07803 -0.15487,-0.0321 -0.32206,-0.05157 -0.49351,-0.100253 -0.692856,-0.153105 -1.516687,-0.424945 -2.399337,-0.858862 -0.1696861,-0.08537 -0.3423528,-0.179758 -0.5152139,-0.278536 0.9891889,0.2794 1.9812359,0.409454 2.9383219,0.475423 0.969433,0.06209 1.901979,0.05678 2.786393,-0.0067 0.880886,-0.0508 1.713073,-0.158508 2.470134,-0.289389 0.37465,-0.07267 0.738737,-0.141069 1.07952,-0.222208 0.339373,-0.08643 0.660223,-0.170382 0.955498,-0.272335 0.592313,-0.196145 1.091828,-0.420725 1.470711,-0.659908 0.377825,-0.240242 0.618516,-0.514542 0.716235,-0.734322 0.08757,-0.205422 0.07561,-0.335674 0.07958,-0.35295 -0.0042,0.01737 0.0058,0.149135 -0.08423,0.350883 -0.09913,0.217311 -0.343011,0.486314 -0.722953,0.719852 -0.379236,0.232834 -0.878601,0.453115 -1.476912,0.618567 -0.597959,0.172509 -1.279523,0.311553 -2.043287,0.394808 -0.189794,0.02963 -0.38364,0.03817 -0.580842,0.05581 -0.197556,0.01411 -0.396551,0.03774 -0.601514,0.04444 -0.411339,0.0099 -0.834338,0.03481 -1.270724,0.01964 -0.545394,0 -1.112839,-0.02965 -1.690336,-0.0801 -0.09419,-0.100189 -0.188741,-0.218795 -0.279052,-0.357084 -0.248709,-0.373592 -0.47651,-0.875436 -0.680063,-1.469161 -0.0187,-0.05503 -0.03524,-0.114441 -0.05323,-0.170533 0.05785,0.0021 0.11526,0.0032 0.173116,0.0057 0.314325,0.0067 0.628829,0.02699 0.933276,0.0217 0.305153,-0.0021 0.60711,-0.0048 0.904854,-0.0072 0.306212,-0.0067 0.597744,-0.02709 0.890902,-0.03979 0.583847,-0.01693 1.149568,-0.08744 1.696021,-0.134358 0.27305,-0.0254 0.540068,-0.06984 0.802535,-0.103353 0.262114,-0.0374 0.520048,-0.06493 0.769462,-0.116789 0.250472,-0.04657 0.495655,-0.09249 0.734839,-0.136943 0.239536,-0.04198 0.46927,-0.106674 0.695048,-0.156062 0.454025,-0.0949 0.873545,-0.230964 1.268656,-0.34985 l 0.05064,-0.01499 c 0.08396,0.06456 0.159881,0.129909 0.224792,0.19482 0.122062,0.123119 0.205352,0.246198 0.255799,0.3545 0.09497,0.200632 0.08041,0.333124 0.0832,0.3514 -0.0024,-0.0183 0.01395,-0.151095 -0.07906,-0.353983 -0.04868,-0.109009 -0.131014,-0.234596 -0.251664,-0.360185 -0.06244,-0.06385 -0.134541,-0.128031 -0.214974,-0.192236 0.172508,-0.05292 0.335063,-0.124916 0.495577,-0.182418 0.08925,-0.03457 0.1778,-0.06845 0.264583,-0.10232 0.08714,-0.03246 0.173348,-0.06325 0.251664,-0.105936 0.319264,-0.157339 0.621548,-0.288455 0.869198,-0.453203 0.500944,-0.317147 0.820179,-0.679606 0.949296,-0.971 0.06068,-0.145697 0.09471,-0.264035 0.09612,-0.346232 0.0081,-0.08144 0.0124,-0.123449 0.0124,-0.123507 0,0 -0.0046,0.04202 -0.01344,0.123507 -0.0028,0.08185 -0.03835,0.200207 -0.09973,0.345198 -0.131586,0.28822 -0.453142,0.644865 -0.955497,0.956015 -0.248003,0.160514 -0.550048,0.287997 -0.871782,0.442867 -0.159102,0.08008 -0.339784,0.127603 -0.519348,0.195337 -0.173566,0.05644 -0.347993,0.13033 -0.537435,0.17725 -0.06032,-0.04586 -0.123092,-0.09094 -0.192236,-0.135393 -0.376061,-0.244122 -0.877553,-0.463902 -1.469161,-0.661458 -0.591961,-0.197203 -1.279343,-0.358461 -2.036051,-0.498161 -0.758825,-0.134055 -1.584801,-0.23515 -2.471684,-0.293005 -0.878064,-0.05292 -1.816657,-0.06698 -2.784326,-0.0021 -0.166158,0.01129 -0.334373,0.02582 -0.502295,0.04134 -0.04586,-0.312208 -0.08902,-0.633729 -0.127124,-0.964282 1.280936,0.07937 2.522222,0.08388 3.702616,0.02532 1.310217,-0.06421 2.543641,-0.200124 3.67006,-0.392741 1.125361,-0.195439 2.146976,-0.432463 3.029273,-0.714685 0.265994,-0.08678 0.517523,-0.177299 0.757059,-0.270785 0.124531,0.06526 0.243237,0.133427 0.35295,0.202572 0.25012,0.156633 0.458381,0.319486 0.619601,0.483175 0.159808,0.164747 0.268114,0.329472 0.337964,0.471289 0.0635,0.144991 0.09143,0.264412 0.100252,0.345198 0.0067,0.08179 0.01033,0.123449 0.01034,0.123507 0,0 -0.0035,-0.04166 -0.0098,-0.123507 -0.0078,-0.08149 -0.03419,-0.201732 -0.09663,-0.347782 -0.06879,-0.142522 -0.175597,-0.308887 -0.334347,-0.476457 -0.159808,-0.166158 -0.367602,-0.331963 -0.617016,-0.492476 -0.103717,-0.06668 -0.216683,-0.132518 -0.334863,-0.196371 0.543277,-0.214136 1.016912,-0.444511 1.402498,-0.690397 0.561269,-0.356658 0.926549,-0.759164 1.066601,-1.088306 0.03493,-0.08255 0.06726,-0.154147 0.07855,-0.221175 0.01693,-0.06632 0.03204,-0.121734 0.03204,-0.167948 0.0071,-0.09207 0.01085,-0.13901 0.01085,-0.13901 0,0 -0.0043,0.04729 -0.0124,0.13901 -3.53e-4,0.04657 -0.01579,0.100945 -0.03307,0.166915 -0.01199,0.06632 -0.04463,0.138297 -0.08062,0.220141 -0.14217,0.327025 -0.509959,0.724587 -1.072286,1.073837 -0.393347,0.246238 -0.878158,0.477681 -1.436605,0.682645 -0.439208,-0.234597 -0.968658,-0.450467 -1.56838,-0.648022 -0.78493,-0.258586 -1.695432,-0.468394 -2.698026,-0.643372 -1.0033,-0.17145 -2.101004,-0.294264 -3.269051,-0.358117 -1.165578,-0.06209 -2.40334,-0.06666 -3.680396,0.02894 -0.03845,0.0028 -0.07834,0.0061 -0.116789,0.0093 -0.0025,-0.189442 -0.0039,-0.380147 -0.0067,-0.572058 -0.0035,-0.179211 -0.0021,-0.360758 -10e-4,-0.542086 0.285045,0.03281 0.575056,0.04918 0.866097,0.07493 0.178859,0.01376 0.357682,0.02723 0.537952,0.04134 0.179916,0.01305 0.356345,0.01293 0.534851,0.01964 0.359481,0.01094 0.720015,0.02129 1.080554,0.03152 0.7239,-0.0039 1.447841,-0.03235 2.159041,-0.08527 0.711553,-0.05045 1.408288,-0.144092 2.079977,-0.250631 0.671689,-0.106186 1.314273,-0.249091 1.918229,-0.410311 0.604308,-0.158044 1.165685,-0.350245 1.671216,-0.561206 l 0.05581,-0.02429 0.0124,0.0832 c 0.02505,0.227542 0.04567,0.422118 0.05943,0.57981 0.01975,0.316442 0.03049,0.485758 0.03049,0.485758 0,0 0.0035,-0.169644 0.0098,-0.486791 -0.0021,-0.184856 -0.0036,-0.4218 -0.01809,-0.703317 0.31115,-0.134055 0.599924,-0.277408 0.858863,-0.428397 0.344664,0.149577 0.654199,0.309051 0.91984,0.476973 0.280811,0.176389 0.515107,0.360192 0.696082,0.543636 0.179564,0.185914 0.300635,0.370417 0.379305,0.529167 0.07056,0.162983 0.10226,0.29672 0.112138,0.38809 0.0074,0.09172 0.01137,0.139009 0.01137,0.139009 0,0 -0.004,-0.04729 -0.01034,-0.139009 -0.0088,-0.09172 -0.03883,-0.225952 -0.109037,-0.38964 -0.07691,-0.160867 -0.197182,-0.347691 -0.375688,-0.535369 -0.179211,-0.186266 -0.412875,-0.372693 -0.692981,-0.551904 -0.260702,-0.167569 -0.563161,-0.327157 -0.898653,-0.479557 0.09948,-0.05856 0.195271,-0.118123 0.286288,-0.1788 0.373239,-0.248356 0.665515,-0.519284 0.859896,-0.779281 0.198613,-0.258233 0.279187,-0.508661 0.302823,-0.677995 0.01764,-0.08467 0.01257,-0.148328 0.01292,-0.191719 v -0.06615 c 0,0 -0.0031,0.02207 -0.0098,0.06511 -0.0078,0.04233 -0.01309,0.10826 -0.04237,0.185519 -0.04621,0.156633 -0.163479,0.373892 -0.376204,0.590145 -0.211314,0.217663 -0.516744,0.43078 -0.892452,0.630452 -0.167922,0.08678 -0.351651,0.169 -0.546737,0.24908 -0.179564,-0.07232 -0.367153,-0.142565 -0.562239,-0.211356 C 22.604886,12.582977 22.48414,11.9223 22.261185,11.19205 22.131363,10.773303 21.968833,10.329524 21.764574,9.8758516 l 0.02377,-0.011885 C 22.178871,9.6604134 22.565993,9.4190127 22.878202,9.03766 23.030954,8.8415155 23.162767,8.6230992 23.206864,8.3193576 l 0.0047,-0.032039 c 0.634294,0.7503583 1.133302,1.523136 1.499133,2.2629104 0.436739,0.881945 0.705444,1.705636 0.864547,2.397786 0.158044,0.692856 0.220232,1.250098 0.260449,1.630392 0.02293,0.382411 0.03566,0.586527 0.03566,0.586527 0,0 0.0013,-0.204444 0.0041,-0.587561 -0.0166,-0.383116 -0.03007,-0.950083 -0.159182,-1.658813 C 25.591035,12.210535 25.36187,11.359646 24.960762,10.433957 24.562123,9.5086211 23.971803,8.5157721 23.150537,7.5731499 23.044703,7.4521471 22.933591,7.3315233 22.819291,7.2119316 22.76073,7.1452566 22.699175,7.0838912 22.635323,7.0274468 21.901898,6.2950802 21.024217,5.6129181 20.002925,5.0678765 18.737158,4.3870152 17.257362,3.910652 15.684326,3.7790659 15.292037,3.7451993 14.894368,3.7311104 14.493701,3.737725 Z m 0.01653,0.6733437 c 0.376844,-0.0127 0.751907,-0.00546 1.122412,0.021703 1.48343,0.1065389 2.892808,0.5109242 4.114477,1.1275797 0.290689,0.1467555 0.57022,0.3052947 0.839742,0.4718058 C 20.03758,5.8706163 19.505418,5.7650283 19.00659,5.6838894 18.621709,5.6235644 18.259306,5.5807639 17.915701,5.5490139 17.153348,5.1299139 16.293553,4.8212568 15.368569,4.7175401 15.108925,4.6868484 14.847785,4.6748621 14.585671,4.6730983 l -0.07648,-0.00672 -0.0155,-5.292e-4 -0.03979,0.00155 -0.02326,0.00155 -0.02687,0.00208 c -0.349603,0.00635 -0.701347,0.03786 -1.0573,0.098185 -0.677686,0.1143 -1.343069,0.3411458 -1.967839,0.6537069 C 10.746102,5.7383043 10.160505,6.14381 9.6288686,6.6140628 9.580539,6.5798524 9.5348917,6.545316 9.4950278,6.5096855 9.3793167,6.402441 9.3060698,6.2963183 9.2764365,6.2130628 9.2573865,6.1731989 9.2552592,6.1390056 9.2474981,6.1164278 l -0.0093,-0.034623 -0.00208,0.035657 c 3.527e-4,0.022931 -0.00879,0.059559 -0.00102,0.1054199 0.0067,0.093133 0.045514,0.2331806 0.1467612,0.3824056 0.029633,0.045156 0.066917,0.09209 0.1074868,0.1390096 C 9.024025,7.1736268 8.6000729,7.6499499 8.2289507,8.1597138 7.9848285,8.5015554 7.7647943,8.8587457 7.5633582,9.2252818 7.4617582,9.1670735 7.365355,9.1080535 7.2806884,9.0459646 6.9864717,8.8413535 6.8079852,8.6079703 6.7360185,8.4294648 6.6993297,8.3398592 6.6808984,8.2657827 6.6734901,8.2160411 l -0.00724,-0.057361 C 6.8366463,7.962183 7.0109185,7.7694106 7.1954213,7.5845551 8.3123157,6.4683663 9.672263,5.5941925 11.135232,5.063262 12.23193,4.6663867 13.379689,4.449205 14.51022,4.411105 Z m 0.06873,0.9312095 0.04237,0.0062 c 0.04022,0.010936 0.08122,0.01449 0.12144,0.035657 0.04128,0.015169 0.08277,0.031067 0.12299,0.057878 0.03281,0.018697 0.06505,0.040303 0.09715,0.062528 -0.122061,0.00706 -0.188619,0.011369 -0.188619,0.011369 0,0 0.08151,0.0056 0.22686,0.016536 0.271639,0.2046111 0.501209,0.5305255 0.694531,0.8547282 0.196497,0.3421944 0.358436,0.7034293 0.499194,1.0660848 -0.100894,0.00635 -0.200026,0.014534 -0.301273,0.01912 -0.368653,0.01905 -0.743956,0.025108 -1.119312,0.026872 -0.364419,-0.00882 -0.768576,-0.00596 -1.122412,-0.031006 -0.256117,-0.00847 -0.510369,-0.029829 -0.761194,-0.050643 0.07902,-0.2144889 0.163699,-0.4246438 0.256832,-0.6289022 0.20567,-0.4399138 0.448429,-0.8669776 0.754993,-1.1601359 0.03704,-0.039158 0.07692,-0.069044 0.116788,-0.099735 0.03845,-0.034219 0.07951,-0.057471 0.119373,-0.082166 0.08155,-0.063105 0.182594,-0.074052 0.275952,-0.1028361 0.05503,-0.00212 0.109298,-8.431e-4 0.164331,-0.00155 z m 1.240235,0.1028361 c 0.03845,0.00741 0.07695,0.01601 0.115755,0.023771 -0.03387,3.528e-4 -0.06383,0.00136 -0.09664,0.00207 z M 13.045197,5.5490153 C 12.821183,5.8435847 12.649688,6.1628142 12.495876,6.483842 12.365701,6.7639475 12.251458,7.04967 12.148094,7.3375366 11.950891,7.3135477 11.758447,7.2887706 11.575002,7.2527873 11.49598,7.2393817 11.417814,7.2260492 11.340908,7.2129964 11.265414,7.1953575 11.191913,7.1764894 11.118183,7.16132 10.972133,7.127806 10.824775,7.105543 10.694953,7.0600342 10.579242,7.0244032 10.464914,6.9919592 10.358022,6.9566813 c 0.418395,-0.346075 0.867993,-0.6497657 1.345655,-0.8914184 0.432505,-0.2169583 0.88185,-0.3927754 1.34152,-0.5162476 z m 2.900598,0.069763 c 0.262819,0.027517 0.565393,0.062143 0.901237,0.1080037 0.608542,0.2201334 1.176676,0.5196596 1.683618,0.8738485 0.181681,0.1287639 0.354879,0.2647625 0.522449,0.4041097 -0.06421,0.020461 -0.130188,0.039697 -0.197921,0.058394 -0.267758,0.075847 -0.565536,0.1352255 -0.880566,0.1937866 -0.315031,0.058208 -0.653134,0.093764 -1.000973,0.1353922 -0.06562,0.006 -0.133993,0.011409 -0.201021,0.017053 C 16.630448,6.9733336 16.460002,6.5301455 16.231049,6.0905844 16.144618,5.9339511 16.052334,5.7740008 15.945795,5.6187783 Z m 2.777608,0.4397664 c 0.06703,0.014817 0.132747,0.027886 0.201538,0.043408 0.385939,0.092075 0.790327,0.2030636 1.200961,0.3364136 l -0.07183,0.072347 c -0.05503,0.040922 -0.136444,0.1165021 -0.216524,0.1581299 -0.04022,0.023283 -0.0815,0.047817 -0.12454,0.072864 -0.03351,0.016228 -0.06808,0.032676 -0.103353,0.049609 -0.234597,-0.2229555 -0.484084,-0.4381541 -0.753959,-0.6392374 -0.04304,-0.032456 -0.0889,-0.062137 -0.132292,-0.093534 z m 1.51722,0.4170288 c 0.197203,0.066322 0.394985,0.1367965 0.593246,0.2165243 0.323497,0.1329972 0.648828,0.2864487 0.945162,0.478007 0.290336,0.1908528 0.575143,0.4221317 0.700732,0.6821289 0.03281,0.0635 0.05105,0.1270716 0.06305,0.1881022 0.0078,0.061383 0.01193,0.121368 -0.0047,0.1979207 l -0.0077,0.033073 -0.0155,0.046509 -0.04134,0.093018 c -0.03422,0.062442 -0.07677,0.1255214 -0.130742,0.1865519 -0.211314,0.2455334 -0.538347,0.452235 -0.8816,0.6258016 l -0.01395,0.00672 C 21.341436,9.0316665 21.227799,8.8325482 21.103621,8.6335816 20.751196,8.0719594 20.323338,7.5075921 19.807576,6.9840699 l 0.04754,-0.036173 c 0.0448,-0.039511 0.08642,-0.080756 0.125573,-0.1188558 0.08326,-0.078317 0.124652,-0.1451144 0.186036,-0.2227255 0.0314,-0.04445 0.05449,-0.088408 0.0739,-0.1307413 z M 10.066569,7.2078288 c 0.03281,0.021519 0.06209,0.039787 0.0956,0.062012 0.118534,0.069144 0.249548,0.124503 0.383956,0.1922363 0.134409,0.070556 0.280206,0.117442 0.429431,0.177767 0.07479,0.029633 0.151644,0.055657 0.229961,0.084232 0.07902,0.023283 0.15932,0.046644 0.240812,0.07028 0.162983,0.051506 0.331664,0.09602 0.504878,0.1369425 -0.160161,0.5312833 -0.287956,1.0714964 -0.400492,1.6123047 -0.04657,0.2391833 -0.08815,0.4797997 -0.126607,0.7193357 C 10.95315,10.207549 10.502935,10.141556 10.082071,10.058301 9.3779274,9.9200119 8.7520253,9.7442445 8.2330892,9.5399862 8.4168864,9.2150778 8.6153637,8.8990578 8.834086,8.5963745 9.1963887,8.0919023 9.6104274,7.623401 10.066569,7.2078288 Z m 9.300724,0.071314 c 0.539398,0.4949472 0.999114,1.0387417 1.379761,1.5880167 0.119239,0.1742722 0.229055,0.3488573 0.33383,0.5234823 l -0.166915,0.067179 c -0.195792,0.086431 -0.382805,0.1393348 -0.571541,0.1989542 l -0.283187,0.089917 -0.297657,0.073897 c -0.200025,0.046567 -0.394671,0.10721 -0.598929,0.1410767 -0.583848,0.1326443 -1.179646,0.2200553 -1.773019,0.2899053 -0.01482,-0.109714 -0.02854,-0.218029 -0.04547,-0.330213 -0.09031,-0.5884333 -0.20541,-1.2140627 -0.378271,-1.8603515 0.03316,-0.006 0.06777,-0.010022 0.101285,-0.01602 0.362656,-0.067733 0.710335,-0.1501387 1.035596,-0.2485636 0.326319,-0.094192 0.6284,-0.2065019 0.899687,-0.3327963 0.129822,-0.056444 0.251241,-0.119221 0.364835,-0.1844848 z m -6.694682,0.7968505 c 0.303742,0.047272 0.614783,0.094613 0.937928,0.1147217 0.397933,0.043039 0.761939,0.040855 1.163753,0.05426 0.391936,-0.00564 0.783524,-0.014799 1.168404,-0.052193 0.166158,-0.0127 0.329493,-0.031896 0.492476,-0.05271 0.205317,0.638175 0.363246,1.2654539 0.489893,1.8577678 0.02117,0.1012472 0.03916,0.1990422 0.05891,0.2981722 -0.08714,0.0092 -0.173666,0.02012 -0.260449,0.02894 -0.815622,0.05609 -1.617532,0.10935 -2.401404,0.103353 -0.750005,-0.0053 -1.470936,-0.03206 -2.159558,-0.08992 0.03704,-0.216958 0.07614,-0.4336724 0.119889,-0.6495724 C 12.389345,9.1444765 12.515624,8.60163 12.67261,8.0759912 Z m -6.009452,0.086816 -0.00102,0.05426 c 3.527e-4,0.051506 0.00661,0.1286233 0.033073,0.2263428 C 6.748129,8.6384982 6.8973769,8.9107255 7.1866547,9.1611977 7.2723766,9.238809 7.369903,9.3146301 7.4739725,9.3901245 7.0460531,10.200102 6.718743,11.057463 6.4936708,11.928471 6.3994791,12.286893 6.3250194,12.648626 6.2668111,13.010576 6.1391055,13.058201 6.0118974,13.108718 5.8859557,13.161987 5.8460918,13.142585 5.803133,13.123865 5.765033,13.10411 5.3882664,12.906907 5.0814503,12.693766 4.8715475,12.474691 4.696217,12.290541 4.5873547,12.112433 4.5273825,11.965678 4.5739491,11.817864 4.6215798,11.670411 4.6741437,11.524361 5.1168798,10.304103 5.8013332,9.1583481 6.6631692,8.1628092 Z m 1.442806,1.6086874 c 0.5199944,0.2681113 1.1566553,0.5087463 1.8784386,0.7038333 0.4261554,0.117475 0.8844794,0.218838 1.3642574,0.303857 -0.0568,0.408517 -0.105913,0.816945 -0.14366,1.223698 -1.3306778,0.115358 -2.6990866,0.323003 -4.0576337,0.718819 -0.035631,0.01023 -0.070306,0.02146 -0.1059367,0.03204 0.044803,-0.214841 0.092736,-0.42926 0.1488281,-0.642338 0.2137833,-0.80645 0.5205952,-1.596253 0.9157063,-2.3399083 z m 13.329936,0.2557983 c 0.221897,0.429683 0.404697,0.852865 0.556038,1.255737 0.2413,0.663928 0.403483,1.273685 0.51108,1.801441 -0.04904,-0.01658 -0.09735,-0.03355 -0.147794,-0.05013 -0.881592,-0.288925 -1.903912,-0.522158 -3.029273,-0.718302 -0.561269,-0.09666 -1.148407,-0.177943 -1.759066,-0.243913 -0.0194,-0.3429 -0.04883,-0.711455 -0.0894,-1.099157 0.613128,-0.06597 1.229515,-0.148968 1.841231,-0.28267 0.21202,-0.0374 0.420033,-0.102843 0.629936,-0.153996 l 0.314193,-0.08217 0.31626,-0.104386 c 0.210961,-0.06914 0.425582,-0.135992 0.611849,-0.220659 z m -9.360152,0.86558 c 0.707319,0.09807 1.460772,0.168789 2.237589,0.19172 0.796572,0.02575 1.628103,0.01583 2.468067,-0.04237 0.111125,-0.01023 0.223032,-0.02162 0.334863,-0.03256 0.06209,0.363361 0.114877,0.709629 0.15968,1.035596 -0.525639,-0.05115 -1.064242,-0.0936 -1.620573,-0.120406 -1.181805,-0.0575 -2.430177,-0.05424 -3.716052,0.02584 0.03775,-0.352425 0.08422,-0.705392 0.136426,-1.057816 z M 4.495333,12.06283 c 0.045508,0.147813 0.1258023,0.323665 0.2630328,0.507462 0.1813278,0.247298 0.4558041,0.501792 0.8004679,0.736389 -0.1933222,0.09031 -0.3841915,0.188648 -0.5725748,0.297657 -0.3252611,0.192263 -0.6455089,0.411896 -0.9291422,0.704349 l 0.023255,-0.259932 0.038757,-0.283187 c 0.080081,-0.5715 0.205813,-1.141822 0.3762043,-1.702738 z m 11.153324,0.19637 c 0.569031,0.0014 1.121648,0.01913 1.661398,0.04806 0.0695,0.53975 0.118176,1.021191 0.154512,1.422652 0.02646,0.300567 0.04701,0.558149 0.06253,0.769463 -0.212725,0.01588 -0.426626,0.03101 -0.641821,0.04547 -0.694972,0.04304 -1.402793,0.06211 -2.110465,0.05788 -0.355247,-0.0067 -0.710018,-0.01293 -1.063501,-0.01964 -0.177095,-0.0046 -0.357479,-0.002 -0.531751,-0.01292 -0.173566,-0.01164 -0.34684,-0.02282 -0.519348,-0.03411 -0.172508,-0.01164 -0.344633,-0.02333 -0.515731,-0.03462 -0.125589,-0.0071 -0.250123,-0.01371 -0.374654,-0.02429 0.0194,-0.57397 0.05414,-1.155721 0.09612,-1.740979 0.0078,-0.09102 0.01721,-0.182352 0.02532,-0.273368 1.291519,-0.144992 2.555127,-0.20678 3.757393,-0.203605 z m 1.930632,0.06201 c 0.596194,0.03739 1.172042,0.09037 1.722375,0.159163 1.127478,0.135114 2.150518,0.351663 3.035991,0.612366 0.06068,0.01764 0.118664,0.03592 0.178283,0.05426 0.01164,0.05927 0.02284,0.118033 0.03307,0.175183 0.01835,0.09313 0.03308,0.182779 0.04754,0.270268 -0.04763,0.01587 -0.09258,0.03254 -0.14056,0.04806 -0.502356,0.160514 -1.058371,0.298044 -1.652096,0.421163 -0.594078,0.121708 -1.227086,0.216254 -1.883606,0.301274 -0.430389,0.05609 -0.87315,0.09636 -1.321883,0.130224 0.0078,-0.210961 0.01431,-0.468895 0.01395,-0.769462 0,-0.395817 -0.007,-0.869804 -0.03307,-1.402498 z m -6.420797,0.229443 c -0.0032,0.04374 -0.0077,0.08751 -0.01085,0.131258 -0.03951,0.519289 -0.05838,1.03569 -0.06615,1.546159 -7.06e-4,0.05997 -1.64e-4,0.118828 -5.29e-4,0.178801 -0.149931,-0.01552 -0.302969,-0.0315 -0.451135,-0.04703 C 10.300336,14.326333 9.9816371,14.25779 9.6655482,14.21722 9.5085621,14.19429 9.3545993,14.171585 9.2014938,14.149007 9.0466243,14.119021 8.8932433,14.089051 8.7426072,14.060124 8.1541739,13.936299 7.5961317,13.798064 7.0941289,13.638961 7.0267483,13.617089 6.963539,13.594523 6.8982752,13.572298 l 0.00517,-0.04289 c 0.1474611,-0.05327 0.2951925,-0.105173 0.4444175,-0.152446 0.6946194,-0.225777 1.4070911,-0.392985 2.1151161,-0.536918 0.5665612,-0.117122 1.1324702,-0.212129 1.6955042,-0.289388 z m 11.524361,0.648023 c 0.175331,0.05644 0.343799,0.115702 0.506429,0.176733 -0.148519,0.05962 -0.305583,0.118058 -0.467155,0.17415 -0.0074,-0.08079 -0.01542,-0.163003 -0.02635,-0.249081 -0.0039,-0.03281 -0.0087,-0.06829 -0.01292,-0.101802 z M 6.1639647,13.825513 c -0.065617,0.705908 -0.071789,1.406498 -0.029457,2.08101 0.035983,0.548922 0.1097072,1.080688 0.2134238,1.596801 l -0.026356,-0.01085 C 5.9864367,17.353479 5.6576062,17.199436 5.353159,17.01705 5.0504757,16.835017 4.7608399,16.629448 4.5449399,16.388148 4.4341677,16.269262 4.3483929,16.140354 4.2824235,16.011943 c -0.023283,-0.06562 -0.057843,-0.12972 -0.066663,-0.195336 -0.00529,-0.0321 -0.018983,-0.06418 -0.017568,-0.09663 l -0.0031,-0.04858 -0.00258,-0.02429 -0.00102,-0.01188 -5.292e-4,-0.0072 0.0093,-0.117822 c 7.056e-4,-0.05786 0.01505,-0.06303 0.019636,-0.09302 0.00388,-0.04445 0.041148,-0.120493 0.064079,-0.182934 0.065617,-0.128411 0.151227,-0.256449 0.2619992,-0.375688 0.2159,-0.2413 0.5051834,-0.447222 0.8082195,-0.628902 0.2557639,-0.152753 0.5303696,-0.283107 0.8097696,-0.40411 z m 0.6816122,0.171565 c 0.033867,0.01411 0.065844,0.0293 0.1007692,0.04341 0.5051777,0.210961 1.0652579,0.401701 1.6737996,0.563273 0.1488722,0.0381 0.2995799,0.07695 0.4526854,0.115755 0.1576917,0.03387 0.3174683,0.06758 0.4790405,0.101802 0.1608666,0.03316 0.3225867,0.06641 0.4862754,0.09922 0.164042,0.0314 0.32918,0.07 0.498161,0.0894 0.178153,0.0254 0.361955,0.05176 0.543636,0.07752 0.0018,0.226836 0.01451,0.433295 0.02015,0.650606 0.0092,0.207786 0.01465,0.412431 0.0217,0.615983 -1.037872,0.109362 -2.0969649,0.287412 -3.1507121,0.592212 -0.3443111,0.09948 -0.6879551,0.213136 -1.0273273,0.350367 -0.0762,-0.462845 -0.1282679,-0.934895 -0.1529623,-1.409734 -0.029633,-0.627238 -0.011899,-1.258335 0.054777,-1.889807 z m 8.7074791,2.590023 c 1.154994,-0.0053 2.250084,0.06094 3.253031,0.187586 1.003653,0.119944 1.914736,0.310499 2.703194,0.541569 0.595842,0.17145 1.120461,0.375408 1.556495,0.60048 -0.230717,0.08396 -0.473063,0.163628 -0.728121,0.237711 -0.888648,0.253295 -1.908677,0.475538 -3.036508,0.610299 -1.126772,0.140053 -2.355654,0.219009 -3.653523,0.223242 -1.19627,0.0053 -2.458903,-0.05744 -3.746542,-0.201021 -0.0088,-0.08855 -0.0186,-0.175306 -0.02636,-0.265617 -0.01094,-0.110419 -0.02162,-0.22181 -0.03256,-0.334346 -0.0085,-0.112184 -0.01209,-0.225403 -0.01809,-0.338998 -0.01094,-0.226483 -0.02266,-0.456202 -0.03359,-0.68833 -0.0071,-0.106891 -0.01179,-0.215167 -0.01602,-0.324528 0.05292,-0.0067 0.105213,-0.01484 0.15813,-0.02119 1.246011,-0.155222 2.46334,-0.225095 3.620451,-0.226859 z m -4.400248,0.336414 c 0.0067,0.08819 0.01338,0.175872 0.02325,0.264066 0.02152,0.238478 0.04308,0.474101 0.0646,0.706934 0.01094,0.116417 0.01915,0.232449 0.03256,0.346749 0.01623,0.1143 0.03218,0.227495 0.04806,0.340031 0.0067,0.04727 0.01293,0.09329 0.01964,0.140559 C 10.717905,18.640363 10.090253,18.538165 9.4619559,18.408695 8.7708643,18.266173 8.0750292,18.104452 7.395932,17.88573 7.6502848,17.782366 7.9084232,17.685282 8.1715954,17.602026 8.788251,17.400238 9.4208422,17.251069 10.05055,17.121952 c 0.367595,-0.07655 0.73537,-0.14164 1.102258,-0.198437 z m -6.9814862,0.125057 c 0.254,0.237419 0.5320093,0.425865 0.8149371,0.592728 0.2187222,0.127 0.4423984,0.238759 0.6681762,0.341065 -0.1753305,0.124178 -0.3453334,0.263034 -0.5012612,0.432015 -0.1344083,0.142522 -0.2561001,0.310573 -0.3534668,0.501778 -0.026811,0.06562 -0.054748,0.125536 -0.078032,0.19327 C 4.4761422,18.455731 4.291619,17.76083 4.1713218,17.048572 Z m 2.3187214,1.265556 0.053744,0.0186 c 0.1157111,0.42298 0.2509791,0.832885 0.405143,1.228349 0.10795,0.27693 0.2326778,0.543496 0.3519166,0.806669 0.066675,0.128411 0.1336905,0.254725 0.1989543,0.381372 l 0.098702,0.188619 c 0.040569,0.07373 0.072348,0.121879 0.1090372,0.183968 0.065264,0.105833 0.1295809,0.211321 0.1937865,0.315743 L 7.7101237,21.373888 7.2620889,21.190436 7.0424642,21.103103 6.8156045,20.996133 C 6.678374,20.927341 6.5371182,20.854735 6.4027099,20.772891 6.1338932,20.613083 5.8828478,20.429503 5.6916422,20.219953 5.5978033,20.115178 5.5194136,20.005164 5.4668498,19.894391 5.4403914,19.839358 5.4218858,19.784577 5.4074219,19.729544 l -0.014471,-0.08165 -0.00155,-0.04134 -0.00155,-0.02015 -5.292e-4,-0.01034 -5.291e-4,-10e-4 0.00878,-0.10697 0.00208,-0.03152 0.00517,-0.01654 0.0093,-0.02997 c 0.00212,-0.03316 0.03453,-0.100235 0.053227,-0.152446 0.056797,-0.110066 0.1307151,-0.220975 0.2273762,-0.325044 0.1883833,-0.210609 0.4431453,-0.392589 0.7105509,-0.553455 z m 0.7229531,0.226859 c 1.4089944,0.404989 2.8278807,0.607366 4.2033607,0.717786 0.02858,0.214136 0.05885,0.424972 0.10542,0.629936 0.03069,0.142875 0.05791,0.280946 0.08578,0.420646 -0.658989,0.07973 -1.326738,0.20156 -1.9941933,0.391707 -0.4356805,0.123119 -0.8696359,0.27993 -1.2919109,0.499711 C 8.2614836,21.091765 8.2007493,20.982367 8.1400716,20.871594 8.0106021,20.6437 7.9031704,20.388654 7.7804037,20.143473 7.6752759,19.888768 7.5647256,19.631598 7.4698284,19.364193 7.3759895,19.09714 7.2891963,18.822504 7.2129963,18.540987 Z M 15.36237,20.54965 c 0.86748,-0.01129 1.696044,0.03322 2.452046,0.122473 0.757767,0.08467 1.445189,0.226672 2.041736,0.396358 0.597606,0.166511 1.099982,0.380606 1.476396,0.619084 0.06562,0.04128 0.125596,0.08256 0.183451,0.12454 l -0.0088,0.0021 c -0.39758,0.106539 -0.817379,0.229297 -1.271756,0.309025 -0.227189,0.04198 -0.455652,0.101978 -0.696599,0.131258 -0.239536,0.03281 -0.484719,0.06704 -0.734839,0.102319 -0.249767,0.03986 -0.507701,0.05505 -0.769462,0.0801 -0.262114,0.02081 -0.527796,0.05241 -0.799434,0.06511 -0.544689,0.01658 -1.10626,0.05512 -1.685169,0.04031 -0.287161,-0.0042 -0.584382,4.23e-4 -0.874365,-0.0098 -0.298097,-0.01411 -0.599702,-0.02843 -0.904854,-0.04289 -0.305859,-0.01199 -0.605854,-0.04887 -0.913123,-0.07286 -0.116064,-0.01058 -0.232235,-0.02007 -0.348299,-0.03101 -0.115005,-0.426508 -0.219156,-0.883968 -0.312643,-1.37821 -0.01058,-0.06174 -0.02026,-0.127703 -0.03049,-0.191203 0.15628,-0.02434 0.312778,-0.04982 0.468705,-0.07028 0.937331,-0.124178 1.851888,-0.185434 2.727482,-0.19637 z m -3.630269,0.340548 c 0.01587,0.0695 0.02871,0.141039 0.04599,0.208773 0.107597,0.440266 0.22827,0.854409 0.359151,1.242818 -0.06915,-0.0088 -0.137045,-0.01702 -0.206189,-0.02584 -0.311856,-0.0381 -0.626047,-0.07512 -0.938961,-0.133325 -0.312914,-0.05574 -0.630887,-0.09746 -0.943095,-0.172599 -0.3129139,-0.07303 -0.6331673,-0.123441 -0.9436118,-0.214457 -0.079375,-0.02152 -0.1596979,-0.04207 -0.2397784,-0.06253 0.0889,-0.04233 0.1790622,-0.08334 0.2707844,-0.12144 0.2208389,-0.09349 0.4465726,-0.180681 0.6779948,-0.254764 0.460375,-0.154164 0.935133,-0.268101 1.407149,-0.367937 0.169686,-0.03704 0.340525,-0.06766 0.510564,-0.0987 z m -5.9055834,0.378271 c 0.069145,0.04445 0.1387341,0.08792 0.2092897,0.129191 0.1548694,0.09102 0.3129318,0.170903 0.4769735,0.250631 l 0.2299599,0.104903 0.2485637,0.09663 0.3333133,0.125057 c -0.059267,0.07796 -0.1151559,0.161821 -0.1627809,0.254248 -0.034925,0.08502 -0.070251,0.152375 -0.093534,0.265617 -0.028928,0.122414 -0.026748,0.170733 -0.032039,0.235644 l 0.0031,0.05633 C 6.7571454,22.489331 6.4802836,22.173698 6.2280475,21.834326 6.1285642,21.711207 6.038282,21.564789 5.9402098,21.430733 Z m 2.272213,0.946196 c 0.1495778,0.04163 0.2996544,0.08233 0.4495849,0.119372 0.028928,0.03704 0.057158,0.07376 0.08785,0.109038 0.66675,0.795513 1.3979835,1.421505 2.1197675,1.8526 0.130175,0.07973 0.258834,0.151539 0.386539,0.219625 C 10.696561,24.41793 10.248682,24.309597 9.8133545,24.1639 9.5819321,24.089111 9.3554929,24.003351 9.1353596,23.908101 8.9141679,23.815674 8.6980005,23.714017 8.4997394,23.594425 8.3028894,23.475539 8.1171699,23.341444 7.9845255,23.191866 7.9164394,23.118488 7.8668907,23.041485 7.8294963,22.968107 c -0.012347,-0.03634 -0.032646,-0.0724 -0.036173,-0.10697 l -0.00878,-0.05116 -0.00155,-0.02532 -0.00155,-0.01292 -5.292e-4,-0.0057 0.00568,-0.07338 c 7.056e-4,-0.04269 0.00857,-0.03237 0.010336,-0.04754 -0.00106,-0.01305 0.021431,-0.06141 0.033073,-0.09457 0.037394,-0.07338 0.087624,-0.149864 0.1560628,-0.223242 0.033867,-0.03916 0.072085,-0.07597 0.1126547,-0.112655 z m 1.1203449,0.269751 c 0.8957025,0.182386 1.7879085,0.290056 2.6592695,0.357084 0.150988,0.01129 0.302074,0.0223 0.451652,0.03359 0.03739,0.09631 0.07385,0.194754 0.112654,0.28577 0.250825,0.595842 0.534699,1.091823 0.827857,1.456242 0.07408,0.09525 0.149954,0.179131 0.226859,0.253215 -0.286102,-0.02681 -0.57353,-0.05769 -0.863513,-0.09509 -0.211667,-0.02822 -0.424256,-0.06084 -0.637687,-0.09612 -0.347839,-0.163336 -0.713213,-0.36729 -1.084688,-0.622701 -0.579967,-0.3937 -1.1547702,-0.927119 -1.6924035,-1.571997 z"
       sodipodi:nodetypes="scccccccccccccccccccccccccccccccccccccccccccccccccccccccccccccccccccccccccccccccccccccccccccccccccccccccccccccccccccccccccccccccccccccccccccccccccccccccccscccccccccccccsscccccccccccccccccccccccccccccccsccccccccccccccccccccccccccccccccccccccccccccccccccccccccccccccccccccccccccccccccccccccccccccccccccccccccccccccccccccccccccccccccccccccccccccccccccccccccccccccccccccccccccccccccccccccccccccccccccccccccccccccccccccccccccccccccccccccccccccccccccccccccccccccccccccccccccccccccccccccccccccccccccccccccccccccccccccccccccccccccccccccccccccccccccccccccccccccccccccccccccccccccccccccccccccccccc" />
  </g>
</svg>
