<?xml version="1.0" encoding="UTF-8" standalone="no"?>
<!-- Created with Inkscape (http://www.inkscape.org/) -->

<svg
   width="80mm"
   height="30mm"
   viewBox="0 0 80 30"
   version="1.1"
   id="svg1"
   inkscape:version="1.4.2 (f4327f4, 2025-05-13)"
   sodipodi:docname="LOGO SAFETY 2023.svg"
   xmlns:inkscape="http://www.inkscape.org/namespaces/inkscape"
   xmlns:sodipodi="http://sodipodi.sourceforge.net/DTD/sodipodi-0.dtd"
   xmlns="http://www.w3.org/2000/svg"
   xmlns:svg="http://www.w3.org/2000/svg">
  <sodipodi:namedview
     id="namedview1"
     pagecolor="#ffffff"
     bordercolor="#000000"
     borderopacity="0.25"
     inkscape:showpageshadow="2"
     inkscape:pageopacity="0.0"
     inkscape:pagecheckerboard="0"
     inkscape:deskcolor="#d1d1d1"
     inkscape:document-units="mm"
     inkscape:zoom="2.0938812"
     inkscape:cx="149.48317"
     inkscape:cy="67.816646"
     inkscape:window-width="1920"
     inkscape:window-height="1009"
     inkscape:window-x="-8"
     inkscape:window-y="-8"
     inkscape:window-maximized="1"
     inkscape:current-layer="layer1"
     showgrid="false" />
  <defs
     id="defs1">
    <clipPath
       clipPathUnits="userSpaceOnUse"
       id="clipPath3">
      <path
         d="M 0,181.808 H 803.52 V 0 H 0 Z"
         transform="translate(-250.1923,-149.0163)"
         id="path3" />
    </clipPath>
    <clipPath
       clipPathUnits="userSpaceOnUse"
       id="clipPath5">
      <path
         d="M 0,181.808 H 803.52 V 0 H 0 Z"
         transform="translate(-103.4706,-37.395201)"
         id="path5" />
    </clipPath>
    <clipPath
       clipPathUnits="userSpaceOnUse"
       id="clipPath7">
      <path
         d="M 0,181.808 H 803.52 V 0 H 0 Z"
         transform="translate(-149.8144,-47.227199)"
         id="path7" />
    </clipPath>
    <clipPath
       clipPathUnits="userSpaceOnUse"
       id="clipPath9">
      <path
         d="M 0,181.808 H 803.52 V 0 H 0 Z"
         transform="translate(-181.9218,-70.594402)"
         id="path9" />
    </clipPath>
    <clipPath
       clipPathUnits="userSpaceOnUse"
       id="clipPath11">
      <path
         d="M 0,181.808 H 803.52 V 0 H 0 Z"
         transform="translate(-201.19821,-52.674501)"
         id="path11" />
    </clipPath>
    <clipPath
       clipPathUnits="userSpaceOnUse"
       id="clipPath13">
      <path
         d="M 0,181.808 H 803.52 V 0 H 0 Z"
         transform="translate(-230.1679,-36.224301)"
         id="path13" />
    </clipPath>
    <clipPath
       clipPathUnits="userSpaceOnUse"
       id="clipPath15">
      <path
         d="M 0,181.808 H 803.52 V 0 H 0 Z"
         transform="translate(-262.25581,-63.785804)"
         id="path15" />
    </clipPath>
    <clipPath
       clipPathUnits="userSpaceOnUse"
       id="clipPath17">
      <path
         d="M 0,181.808 H 803.52 V 0 H 0 Z"
         transform="translate(-104.6464,-23.693998)"
         id="path17" />
    </clipPath>
    <clipPath
       clipPathUnits="userSpaceOnUse"
       id="clipPath19">
      <path
         d="M 0,181.808 H 803.52 V 0 H 0 Z"
         transform="translate(-120.42861,-26.001703)"
         id="path19" />
    </clipPath>
    <clipPath
       clipPathUnits="userSpaceOnUse"
       id="clipPath21">
      <path
         d="M 0,181.808 H 803.52 V 0 H 0 Z"
         transform="translate(-148.4452,-23.656003)"
         id="path21" />
    </clipPath>
    <clipPath
       clipPathUnits="userSpaceOnUse"
       id="clipPath23">
      <path
         d="M 0,181.808 H 803.52 V 0 H 0 Z"
         transform="translate(-163.4736,-26.306398)"
         id="path23" />
    </clipPath>
    <clipPath
       clipPathUnits="userSpaceOnUse"
       id="clipPath25">
      <path
         d="M 0,181.808 H 803.52 V 0 H 0 Z"
         transform="translate(-180.46671,-25.515298)"
         id="path25" />
    </clipPath>
    <clipPath
       clipPathUnits="userSpaceOnUse"
       id="clipPath27">
      <path
         d="M 0,181.808 H 803.52 V 0 H 0 Z"
         transform="translate(-192.9208,-24.084703)"
         id="path27" />
    </clipPath>
    <clipPath
       clipPathUnits="userSpaceOnUse"
       id="clipPath29">
      <path
         d="M 0,181.808 H 803.52 V 0 H 0 Z"
         id="path29" />
    </clipPath>
    <clipPath
       clipPathUnits="userSpaceOnUse"
       id="clipPath31">
      <path
         d="M 0,181.808 H 803.52 V 0 H 0 Z"
         transform="translate(-219.47841,-29.234098)"
         id="path31" />
    </clipPath>
    <clipPath
       clipPathUnits="userSpaceOnUse"
       id="clipPath19-0">
      <path
         d="M 0,450.147 H 803.52 V 0 H 0 Z"
         transform="translate(-615.72851,-176.7868)"
         id="path19-2" />
    </clipPath>
    <clipPath
       clipPathUnits="userSpaceOnUse"
       id="clipPath21-5">
      <path
         d="M 0,450.147 H 803.52 V 0 H 0 Z"
         transform="translate(-656.07221,-185.3454)"
         id="path21-0" />
    </clipPath>
    <clipPath
       clipPathUnits="userSpaceOnUse"
       id="clipPath23-5">
      <path
         d="M 0,450.147 H 803.52 V 0 H 0 Z"
         transform="translate(-684.02141,-205.68721)"
         id="path23-5" />
    </clipPath>
    <clipPath
       clipPathUnits="userSpaceOnUse"
       id="clipPath25-6">
      <path
         d="M 0,450.147 H 803.52 V 0 H 0 Z"
         transform="translate(-700.80272,-190.0876)"
         id="path25-3" />
    </clipPath>
    <clipPath
       clipPathUnits="userSpaceOnUse"
       id="clipPath27-7">
      <path
         d="M 0,450.147 H 803.52 V 0 H 0 Z"
         transform="translate(-726.02142,-175.7673)"
         id="path27-4" />
    </clipPath>
    <clipPath
       clipPathUnits="userSpaceOnUse"
       id="clipPath29-7">
      <path
         d="M 0,450.147 H 803.52 V 0 H 0 Z"
         transform="translate(-753.95402,-199.7605)"
         id="path29-9" />
    </clipPath>
    <clipPath
       clipPathUnits="userSpaceOnUse"
       id="clipPath31-1">
      <path
         d="M 0,450.147 H 803.52 V 0 H 0 Z"
         transform="translate(-600.55172,-211.01241)"
         id="path31-0" />
    </clipPath>
    <clipPath
       clipPathUnits="userSpaceOnUse"
       id="clipPath33">
      <path
         d="M 0,450.147 H 803.52 V 0 H 0 Z"
         transform="translate(-616.75192,-164.8591)"
         id="path33" />
    </clipPath>
    <clipPath
       clipPathUnits="userSpaceOnUse"
       id="clipPath35">
      <path
         d="M 0,450.147 H 803.52 V 0 H 0 Z"
         transform="translate(-630.49022,-166.8679)"
         id="path35" />
    </clipPath>
    <clipPath
       clipPathUnits="userSpaceOnUse"
       id="clipPath37">
      <path
         d="M 0,450.147 H 803.52 V 0 H 0 Z"
         transform="translate(-654.87982,-164.82591)"
         id="path37" />
    </clipPath>
    <clipPath
       clipPathUnits="userSpaceOnUse"
       id="clipPath39">
      <path
         d="M 0,450.147 H 803.52 V 0 H 0 Z"
         transform="translate(-667.96282,-167.13351)"
         id="path39" />
    </clipPath>
    <clipPath
       clipPathUnits="userSpaceOnUse"
       id="clipPath41">
      <path
         d="M 0,450.147 H 803.52 V 0 H 0 Z"
         transform="translate(-682.75481,-166.44501)"
         id="path41" />
    </clipPath>
    <clipPath
       clipPathUnits="userSpaceOnUse"
       id="clipPath43">
      <path
         d="M 0,450.147 H 803.52 V 0 H 0 Z"
         transform="translate(-693.59662,-165.1999)"
         id="path43" />
    </clipPath>
    <clipPath
       clipPathUnits="userSpaceOnUse"
       id="clipPath45">
      <path
         d="M 0,450.147 H 803.52 V 0 H 0 Z"
         id="path45" />
    </clipPath>
    <clipPath
       clipPathUnits="userSpaceOnUse"
       id="clipPath47">
      <path
         d="M 0,450.147 H 803.52 V 0 H 0 Z"
         transform="translate(-716.71582,-169.68231)"
         id="path47" />
    </clipPath>
  </defs>
  <g
     inkscape:label="Camada 1"
     inkscape:groupmode="layer"
     id="layer1">
    <g
       id="g62">
      <path
         id="path18-8"
         d="M 0,0 V 7.587 C 1.375,6.433 2.869,5.567 4.481,4.99 6.093,4.413 7.721,4.125 9.365,4.125 c 0.964,0 1.806,0.087 2.525,0.261 0.719,0.174 1.32,0.415 1.801,0.723 0.483,0.309 0.842,0.672 1.08,1.091 0.237,0.419 0.355,0.873 0.355,1.363 0,0.664 -0.189,1.256 -0.569,1.778 -0.379,0.522 -0.897,1.004 -1.553,1.446 -0.656,0.442 -1.434,0.869 -2.335,1.281 -0.9,0.411 -1.873,0.829 -2.916,1.256 -2.655,1.107 -4.635,2.458 -5.94,4.054 -1.303,1.597 -1.956,3.525 -1.956,5.785 0,1.771 0.357,3.291 1.068,4.565 0.711,1.271 1.679,2.319 2.904,3.14 1.225,0.822 2.644,1.427 4.256,1.815 1.612,0.386 3.319,0.58 5.121,0.58 1.77,0 3.339,-0.107 4.706,-0.32 1.367,-0.214 2.627,-0.542 3.781,-0.984 V 24.87 c -0.569,0.396 -1.189,0.743 -1.861,1.043 -0.672,0.3 -1.363,0.55 -2.074,0.747 -0.712,0.197 -1.419,0.344 -2.122,0.439 -0.703,0.094 -1.371,0.142 -2.003,0.142 -0.87,0 -1.66,-0.083 -2.371,-0.249 C 10.551,26.826 9.949,26.593 9.46,26.293 8.97,25.992 8.591,25.633 8.321,25.214 8.053,24.795 7.919,24.325 7.919,23.804 c 0,-0.57 0.149,-1.079 0.45,-1.53 0.3,-0.451 0.727,-0.877 1.28,-1.28 0.554,-0.403 1.225,-0.799 2.016,-1.185 0.79,-0.388 1.683,-0.787 2.679,-1.198 1.359,-0.569 2.58,-1.174 3.663,-1.813 1.082,-0.641 2.011,-1.363 2.785,-2.17 0.774,-0.806 1.367,-1.727 1.778,-2.762 0.411,-1.035 0.617,-2.24 0.617,-3.615 0,-1.897 -0.36,-3.489 -1.079,-4.777 -0.719,-1.289 -1.695,-2.332 -2.927,-3.13 -1.234,-0.798 -2.668,-1.371 -4.304,-1.719 -1.636,-0.348 -3.362,-0.521 -5.18,-0.521 -1.865,0 -3.639,0.158 -5.323,0.473 C 2.691,-1.106 1.233,-0.632 0,0"
         style="fill:#231f20;fill-opacity:1;fill-rule:nonzero;stroke:none"
         transform="matrix(0.35277776,0,0,-0.35277776,27.892258,20.312494)"
         clip-path="url(#clipPath19-0)" />
      <path
         id="path20-7"
         d="m 0,0 v 1.637 l -4.41,-0.57 c -2.435,-0.316 -3.652,-1.415 -3.652,-3.296 0,-0.853 0.297,-1.552 0.889,-2.097 0.594,-0.546 1.396,-0.819 2.407,-0.819 1.407,0 2.552,0.487 3.438,1.458 C -0.443,-2.714 0,-1.485 0,0 m 7.041,-9.862 h -7.089 v 3.485 h -0.095 c -1.628,-2.719 -4.039,-4.078 -7.231,-4.078 -2.355,0 -4.208,0.667 -5.56,2.004 -1.351,1.335 -2.027,3.117 -2.027,5.346 0,4.709 2.79,7.428 8.369,8.155 L 0,5.928 c 0,2.655 -1.438,3.982 -4.315,3.982 -2.893,0 -5.643,-0.861 -8.251,-2.584 v 5.643 c 1.044,0.537 2.469,1.011 4.28,1.423 1.809,0.41 3.457,0.616 4.942,0.616 6.923,0 10.385,-3.454 10.385,-10.361 z"
         style="fill:#231f20;fill-opacity:1;fill-rule:nonzero;stroke:none"
         transform="matrix(0.35277776,0,0,-0.35277776,42.124619,17.293209)"
         clip-path="url(#clipPath21-5)" />
      <path
         id="path22-4"
         d="m 0,0 c -0.964,0.38 -1.889,0.569 -2.773,0.569 -2.404,0 -3.604,-1.303 -3.604,-3.912 v -2.584 h 5.548 v -5.524 h -5.548 v -18.753 h -7.469 v 18.753 h -4.078 v 5.524 h 4.078 v 3.011 c 0,2.766 0.902,4.994 2.702,6.686 1.803,1.691 4.253,2.537 7.351,2.537 1.518,0 2.781,-0.159 3.793,-0.475 z"
         style="fill:#231f20;fill-opacity:1;fill-rule:nonzero;stroke:none"
         transform="matrix(0.35277776,0,0,-0.35277776,51.984476,10.117074)"
         clip-path="url(#clipPath23-5)" />
      <path
         id="path24-3"
         d="m 0,0 c 0,3.477 -1.407,5.216 -4.221,5.216 -1.201,0 -2.24,-0.498 -3.117,-1.494 C -8.216,2.727 -8.749,1.485 -8.938,0 Z M 6.946,-4.6 H -8.892 c 0.253,-3.524 2.474,-5.287 6.663,-5.287 2.67,0 5.018,0.632 7.041,1.897 v -5.406 c -2.245,-1.201 -5.161,-1.801 -8.748,-1.801 -3.919,0 -6.962,1.087 -9.127,3.259 -2.166,2.173 -3.249,5.205 -3.249,9.092 0,4.032 1.169,7.224 3.509,9.578 2.339,2.356 5.216,3.534 8.63,3.534 3.54,0 6.278,-1.052 8.215,-3.154 C 5.979,5.01 6.946,2.157 6.946,-1.446 Z"
         style="fill:#231f20;fill-opacity:1;fill-rule:nonzero;stroke:none"
         transform="matrix(0.35277776,0,0,-0.35277776,57.904546,15.620267)"
         clip-path="url(#clipPath25-6)" />
      <path
         id="path26-9"
         d="m 0,0 c -1.107,-0.584 -2.774,-0.877 -5.003,-0.877 -5.279,0 -7.919,2.742 -7.919,8.227 v 11.119 h -3.935 v 5.524 h 3.935 v 5.239 l 7.469,2.134 V 23.993 H 0 V 18.469 H -5.453 V 8.654 c 0,-2.529 1.003,-3.794 3.011,-3.794 0.79,0 1.603,0.229 2.442,0.688 z"
         style="fill:#231f20;fill-opacity:1;fill-rule:nonzero;stroke:none"
         transform="matrix(0.35277776,0,0,-0.35277776,66.801142,20.67215)"
         clip-path="url(#clipPath27-7)" />
      <path
         id="path28-5"
         d="m 0,0 -9.863,-26.222 c -2.37,-6.306 -5.943,-9.459 -10.716,-9.459 -1.817,0 -3.312,0.205 -4.482,0.617 v 5.974 c 0.997,-0.585 2.08,-0.878 3.249,-0.878 1.928,0 3.272,0.909 4.031,2.727 l 1.28,3.011 L -26.364,0 h 8.298 l 4.528,-14.771 c 0.285,-0.917 0.506,-2 0.664,-3.248 h 0.095 c 0.142,0.917 0.403,1.984 0.782,3.201 L -7.421,0 Z"
         style="fill:#231f20;fill-opacity:1;fill-rule:nonzero;stroke:none"
         transform="matrix(0.35277776,0,0,-0.35277776,76.655143,12.207883)"
         clip-path="url(#clipPath29-7)" />
      <path
         id="path62"
         style="fill:#ed1c24;fill-opacity:1;fill-rule:nonzero;stroke:none"
         d="m -22.803399,12.757903 c -3.40725,-0.05625 -6.884391,-0.642844 -10.212891,-1.839844 -4.435,-1.5829998 -8.568239,-4.2057775 -11.969239,-7.5717775 -3.368,-3.39900004 -5.989707,-7.5337741 -7.574707,-11.9677741 -1.603,-4.4200004 -2.097446,-9.1761994 -1.731446,-13.5541994 0.151,-1.12 0.224074,-2.258801 0.476074,-3.320801 0.113,-0.537 0.20345,-1.077004 0.33545,-1.604004 0.148,-0.522 0.295847,-1.042129 0.443847,-1.557129 0.132,-0.522 0.326766,-1.019579 0.509766,-1.517579 0.188,-0.496 0.352035,-0.999492 0.561035,-1.479492 0.444,-0.95 0.825262,-1.912922 1.343262,-2.794922 0.248,-0.446 0.478351,-0.896148 0.735351,-1.327148 0.273,-0.424 0.542524,-0.842766 0.811524,-1.259766 l 0.413086,-0.637207 0.427734,-0.575684 c 0.291,-0.382 0.546258,-0.763324 0.864258,-1.132324 1.219,-1.518 2.524821,-2.805559 3.840821,-3.997559 2.678,-2.319 5.485981,-3.996207 8.104981,-5.137207 2.627,-1.129 5.040758,-1.787953 7.051758,-2.126953 2.01,-0.355 3.611754,-0.425172 4.697754,-0.451172 1.087,0.004 1.666992,0.0059 1.666992,0.0059 0,0 -0.578133,0.03686 -1.661133,0.109863 -0.54,0.025 -1.201004,0.143375 -1.979004,0.234375 -0.391,0.038 -0.800652,0.142192 -1.243652,0.221192 -0.439,0.091 -0.912926,0.14618 -1.398926,0.28418 -1.964,0.434 -4.29927,1.20457 -6.80127,2.43457 -0.481,0.242 -0.970449,0.509551 -1.460449,0.789551 2.804,-0.792 5.616102,-1.160657 8.329102,-1.347657 2.748,-0.176 5.391438,-0.160957 7.898438,0.01904 2.497,0.144 4.855953,0.449313 7.001953,0.820313 1.062,0.206 2.094059,0.399883 3.060059,0.629883 0.9619999,0.245 1.8714962,0.482973 2.7084962,0.771973 1.679,0.556 3.0949455,1.192605 4.1689455,1.870605 1.071,0.681 1.7532735,1.458543 2.0302735,2.081543 0.2482373,0.582297 0.2143143,0.951517 0.225586,1.000488 -0.011912,-0.04925 0.016321,-0.422746 -0.2387696,-0.994628 -0.281,-0.616 -0.9723165,-1.378528 -2.0493165,-2.040528 -1.075,-0.66 -2.4905236,-1.284418 -4.1865236,-1.753418 -1.695,-0.489 -3.6269925,-0.883141 -5.7919925,-1.119141 -0.538,-0.084 -1.087484,-0.108203 -1.646484,-0.158203 -0.56,-0.04 -1.124079,-0.106976 -1.705079,-0.125976 -1.166,-0.028 -2.365051,-0.09866 -3.602051,-0.05566 -1.546,0 -3.154504,0.08405 -4.791504,0.22705 -0.267,0.284 -0.535015,0.620207 -0.791015,1.012207 -0.705,1.059 -1.350735,2.481551 -1.927735,4.164551 -0.053,0.156 -0.09988,0.324399 -0.150879,0.483399 0.164,-0.006 0.326723,-0.0091 0.490723,-0.01611 0.891,-0.019 1.782508,-0.07652 2.645508,-0.06152 0.865,0.006 1.720941,0.01351 2.564941,0.02051 0.868,0.019 1.694391,0.07679 2.525391,0.112793 1.655,0.048 3.258618,0.247859 4.807618,0.380859 0.774,0.072 1.530902,0.197969 2.274902,0.292969 0.743,0.106 1.474152,0.184055 2.181152,0.331055 0.7100004,0.132 1.4050083,0.262183 2.0830083,0.388183 0.679,0.119 1.330215,0.302383 1.970215,0.442383 1.287,0.269 2.4761916,0.6547 3.5961916,0.9917 l 0.1435547,0.04248 c 0.238,-0.183 0.453207,-0.368246 0.637207,-0.552246 0.346,-0.349 0.5820977,-0.697883 0.7250977,-1.004883 0.2692003,-0.56872 0.2279247,-0.944288 0.2358399,-0.996094 -0.00691,0.05188 0.039551,0.4283 -0.2241211,1.003418 -0.138,0.309 -0.371379,0.664996 -0.713379,1.020996 -0.177,0.181 -0.381375,0.362922 -0.609375,0.544922 0.489,0.15 0.9497852,0.35409 1.4047852,0.51709 0.253,0.098 0.50400006,0.194039 0.75000006,0.290039 0.247,0.092 0.49137894,0.179293 0.71337894,0.300293 0.905,0.446 1.7618673,0.817668 2.4638673,1.284668 1.42,0.899 2.3249181,1.926442 2.6909181,2.752442 0.172,0.413 0.268461,0.748445 0.272461,0.981445 0.022984,0.230842 0.03514,0.349935 0.035156,0.350098 0,0 -0.013086,-0.119098 -0.038086,-0.350098 -0.008,-0.232 -0.1087149,-0.567515 -0.2827149,-0.978515 -0.373,-0.817 -1.2844962,-1.827962 -2.7084962,-2.709962 -0.703,-0.455 -1.5591915,-0.816371 -2.47119154,-1.255371 -0.451,-0.227 -0.96316804,-0.361711 -1.47216806,-0.553711 -0.492,-0.16 -0.9864376,-0.369441 -1.5234376,-0.502441 -0.171,0.13 -0.3489219,0.257789 -0.5449219,0.383789 -1.066,0.692 -2.487551,1.315 -4.164551,1.875 -1.678,0.559 -3.6264848,1.01611 -5.7714848,1.41211 -2.151,0.38 -4.492348,0.666566 -7.006348,0.830566 -2.489,0.15 -5.149578,0.189859 -7.892578,0.0059 -0.471,-0.032 -0.947829,-0.07319 -1.423829,-0.117187 -0.13,0.885 -0.252351,1.796398 -0.360351,2.733398 3.631,-0.225 7.149606,-0.237777 10.495606,-0.07178 3.714,0.182 7.210321,0.567281 10.4033207,1.113281 3.19,0.554 6.0859145,1.225879 8.5869145,2.025879 0.754,0.246 1.46699621,0.502579 2.1459962,0.767579 0.353,-0.185 0.6894883,-0.378219 1.0004883,-0.574219 0.709,-0.444 1.2993478,-0.905629 1.7563478,-1.369629 0.453,-0.467 0.7600078,-0.933938 0.9580078,-1.335938 0.18,-0.411 0.2591797,-0.749515 0.2841797,-0.978515 0.018987,-0.23184 0.029283,-0.349934 0.029297,-0.350098 0,0 -0.00983,0.118098 -0.027832,0.350098 -0.022,0.231 -0.096926,0.571839 -0.2739258,0.985839 -0.195,0.404 -0.497754,0.875586 -0.947754,1.350586 -0.453,0.471 -1.0420235,0.940997 -1.7490235,1.395997 -0.294,0.189 -0.6142188,0.37564 -0.9492188,0.55664 1.54,0.607 2.8825862,1.260032 3.9755862,1.957032 1.591,1.011 2.6264376,2.151961 3.0234376,3.084961 0.099,0.234 0.1906563,0.436953 0.2226563,0.626953 0.048,0.188 0.09082,0.345074 0.09082,0.476074 0.02,0.261 0.030762,0.394043 0.030762,0.394043 0,0 -0.012156,-0.134043 -0.035156,-0.394043 -10e-4,-0.132 -0.04475,-0.286144 -0.09375,-0.473144 -0.034,-0.188 -0.1265156,-0.392024 -0.2285156,-0.624024 -0.403,-0.927 -1.4455509,-2.053945 -3.0395509,-3.043945 -1.115,-0.698 -2.4892659,-1.354059 -4.0722659,-1.935059 -1.24499995,0.665 -2.745801,1.276914 -4.445801,1.836914 -2.225,0.733 -4.8059496,1.327731 -7.6479492,1.823731 -2.844,0.486 -5.955602,0.834136 -9.266602,1.015136 -3.304,0.176 -6.812618,0.188969 -10.432618,-0.08203 -0.109,-0.008 -0.222055,-0.01737 -0.331055,-0.02637 -0.007,0.537 -0.01104,1.077582 -0.01904,1.621582 -0.01,0.508 -0.0059,1.022621 -0.0029,1.536621 0.808,-0.093 1.630078,-0.139402 2.455078,-0.212402 0.507,-0.039 1.013902,-0.07719 1.524902,-0.117188 0.51,-0.037 1.010114,-0.03666 1.516114,-0.05566 1.019,-0.031 2.040988,-0.06036 3.062988,-0.08936 2.052,0.011 4.104117,0.0917 6.120117,0.241699 2.017,0.143 3.991997,0.408449 5.8959969,0.710449 1.904,0.301 3.7255003,0.706086 5.4375003,1.163086 1.713,0.448 3.3043049,0.992821 4.73730488,1.590821 l 0.15820314,0.06885 0.0351563,-0.235839 c 0.071,-0.645 0.12945704,-1.196555 0.16845704,-1.643555 0.056,-0.897 0.0864258,-1.376953 0.0864258,-1.376953 0,0 0.009832,0.480882 0.027832,1.379882 -0.006,0.524 -0.0102695,1.195653 -0.0512695,1.993653 0.88200001,0.38 1.70057041,0.786355 2.43457041,1.214355 0.977,-0.424 1.854422,-0.87605 2.607422,-1.35205 0.796,-0.5 1.4601447,-1.021016 1.9731447,-1.541016 0.509,-0.527 0.8521953,-1.05 1.0751953,-1.5 0.2,-0.462 0.2898711,-0.841098 0.3178711,-1.100098 0.021,-0.26 0.032227,-0.394043 0.032227,-0.394043 0,0 -0.011297,0.134043 -0.029297,0.394043 -0.025,0.26 -0.110082,0.640492 -0.309082,1.104492 -0.218,0.456 -0.5589415,0.985579 -1.0649415,1.517579 -0.508,0.528 -1.1703555,1.056453 -1.9643555,1.564453 -0.739,0.475 -1.5963635,0.927375 -2.5473635,1.359375 0.282,0.166 0.5535235,0.334836 0.8115235,0.506836 1.058,0.704 1.8865001,1.471984 2.4375001,2.208984 0.563,0.732 0.7913985,1.441875 0.8583985,1.921875 0.05,0.24 0.035621,0.4204574 0.036621,0.5434574 v 0.1875 c 0,0 -0.00883,-0.06257 -0.027832,-0.1845703 -0.022,-0.12 -0.037117,-0.3068791 -0.1201172,-0.5258791 -0.131,-0.444 -0.4634063,-1.059852 -1.0664063,-1.672852 -0.599,-0.617 -1.4647853,-1.221109 -2.5297853,-1.787109 -0.476,-0.246 -0.9968048,-0.479055 -1.5498048,-0.706055 -0.509,0.205 -1.04075004,0.404121 -1.59375004,0.599121 -0.202,1.587 -0.54426959,3.459786 -1.17626959,5.5297859 -0.36799997,1.187 -0.82871487,2.4449572 -1.40771487,3.7309572 l 0.067383,0.033691 c 1.107,0.577 2.2043556,1.2612853 3.0893556,2.3422853 0.433,0.556 0.8066407,1.1751329 0.9316407,2.03613289 l 0.013184,0.0908203 c 1.798,-2.127 3.2125119,-4.3175511 4.2495119,-6.4145511 1.238,-2.5 1.9996837,-4.8348749 2.4506837,-6.7968749 0.448,-1.964 0.6242813,-3.543583 0.7382813,-4.621583 0.065,-1.084 0.1010742,-1.662597 0.1010742,-1.662597 0,0 0.00372,0.579527 0.011719,1.665527 -0.047,1.086 -0.085172,2.693149 -0.4511719,4.702149 -0.355,2.007 -1.0046017,4.4189688 -2.1416017,7.0429688 -1.13,2.623 -2.8033479,5.43737537 -5.1313479,8.1093754 -0.3,0.343 -0.6149649,0.6849258 -0.9389649,1.0239258 -0.166,0.189 -0.3404844,0.3629492 -0.5214844,0.5229492 -2.079,2.076 -4.5669144,4.0096878 -7.4619144,5.5546878 -3.588,1.93 -7.7827,3.280321 -12.2417,3.653321 -1.112,0.096 -2.23925,0.135937 -3.375,0.117187 z m 0.04687,-1.908691 c 1.068219,0.036 2.131391,0.01548 3.181641,-0.06152 4.205,-0.302 8.200086,-1.4482891 11.6630863,-3.1962891 0.824,-0.416 1.6163712,-0.8654025 2.3803712,-1.3374025 -1.557,0.458 -3.0654924,0.7573048 -4.4794925,0.9873048 -1.091,0.171 -2.118285,0.2923242 -3.092285,0.3823242 -2.161,1.188 -4.598215,2.0629337 -7.220215,2.3569337 -0.736,0.087 -1.476239,0.1209769 -2.219239,0.1259769 l -0.216797,0.01904 -0.04394,0.0015 -0.112793,-0.0044 -0.06592,-0.0044 -0.07617,-0.0059 c -0.991,-0.018 -1.98807,-0.10732 -2.99707,-0.2783202 -1.921,-0.324 -3.807126,-0.9670275 -5.578126,-1.8530275 -1.793,-0.894 -3.452961,-2.043465 -4.959961,-3.376465 -0.137,0.097 -0.266394,0.1948985 -0.379394,0.2958985 -0.328,0.304 -0.535629,0.6048203 -0.619629,0.8408203 -0.054,0.113 -0.06003,0.2099258 -0.08203,0.2739258 l -0.02637,0.098145 -0.0059,-0.1010742 c 10e-4,-0.065 -0.02493,-0.1688281 -0.0029,-0.2988281 0.019,-0.264 0.129016,-0.6609845 0.416016,-1.0839845 0.084,-0.128 0.189687,-0.2610429 0.304687,-0.3940429 -1.319,-1.217 -2.520754,-2.5672073 -3.572754,-4.01220727 -0.692,-0.969 -1.315719,-1.98150793 -1.886719,-3.02050793 -0.288,0.165 -0.561269,0.3323008 -0.801269,0.5083008 -0.834,0.58 -1.339946,1.2415587 -1.543946,1.74755865 -0.104,0.254 -0.156246,0.4639805 -0.177246,0.6049805 l -0.02051,0.16259766 c 0.483,0.557 0.977,1.10344149 1.5,1.62744149 3.166,3.164 7.020969,5.641973 11.167969,7.146973 3.10875,1.1250004 6.362239,1.7406334 9.566895,1.8486334 z m 0.194824,-2.639649 0.120117,-0.017578 c 0.114,-0.031 0.230239,-0.041074 0.344239,-0.1010742 0.117,-0.043 0.234633,-0.088063 0.348633,-0.1640625 0.093,-0.053 0.18439,-0.1142461 0.27539,-0.1772461 -0.346,-0.02 -0.534668,-0.032227 -0.534668,-0.032227 0,0 0.231067,-0.015875 0.643067,-0.046875 0.77,-0.58 1.42075,-1.5038517 1.96875,-2.4228517 0.557,-0.97 1.016039,-1.9939728 1.415039,-3.0219728 -0.286,-0.018 -0.567004,-0.041199 -0.854004,-0.054199 -1.045,-0.054 -2.108852,-0.071172 -3.172852,-0.076172 -1.033,0.025 -2.178641,0.016891 -3.181641,0.087891 -0.726,0.024 -1.446715,0.084555 -2.157715,0.1435547 0.224,0.608 0.464028,1.2037149 0.728028,1.7827149 0.583,1.247 1.271137,2.4575744 2.140137,3.2885744 0.105,0.111 0.218054,0.1957148 0.331054,0.2827148 0.109,0.097 0.225379,0.1629102 0.338379,0.2329102 0.231155,0.1788807 0.517588,0.2099102 0.782227,0.2915039 0.156,0.006 0.30982,0.00239 0.46582,0.00439 z m 3.515625,-0.291504 c 0.109,-0.021 0.218125,-0.045383 0.328125,-0.067383 -0.096,-10e-4 -0.180925,-0.00386 -0.273925,-0.00586 z m -7.863281,-0.2944336 c -0.635,-0.835 -1.121129,-1.7399025 -1.557129,-2.6499025 -0.369,-0.794 -0.69284,-1.6039219 -0.98584,-2.4199219 -0.559,0.068 -1.104512,0.1382343 -1.624512,0.2402343 -0.224,0.038 -0.445574,0.075793 -0.663574,0.112793 -0.214,0.05 -0.422348,0.1034844 -0.631348,0.1464844 -0.414,0.095 -0.831707,0.1581094 -1.199707,0.2871094 -0.328,0.101 -0.652078,0.1929687 -0.955078,0.2929687 1.186,0.981 2.460453,1.8418556 3.814453,2.5268556 1.226,0.615 2.499735,1.113379 3.802735,1.463379 z m 8.222168,-0.1977539 c 0.745,-0.078 1.602688,-0.1761524 2.554688,-0.3061524 1.725,-0.624 3.335461,-1.4730509 4.772461,-2.4770509 0.515,-0.365 1.005957,-0.7505078 1.480957,-1.1455078 -0.182,-0.058 -0.369035,-0.1125274 -0.561035,-0.1655274 -0.759,-0.215 -1.603094,-0.3833164 -2.496094,-0.5493164 -0.893,-0.165 -1.851403,-0.2657891 -2.837403,-0.3837891 -0.186,-0.017 -0.379824,-0.03234 -0.569824,-0.04834 -0.403,1.236 -0.886156,2.4922814 -1.535156,3.7382814 -0.245,0.444 -0.506594,0.8974024 -0.808594,1.3374024 z m 7.873536,-1.2465821 c 0.19,-0.042 0.376289,-0.079047 0.571289,-0.1230469 1.0939997,-0.261 2.2402968,-0.5756133 3.4042968,-0.9536133 L -7.0416795,4.8975511 c -0.156,-0.116 -0.3867696,-0.3302422 -0.6137696,-0.4482422 -0.114,-0.066 -0.2310273,-0.135543 -0.3530273,-0.206543 -0.095,-0.046 -0.1929688,-0.092625 -0.2929688,-0.140625 -0.665,0.632 -1.3722071,1.2420118 -2.1372068,1.8120118 -0.122,0.092 -0.252,0.1761367 -0.375,0.2651367 z m 4.3007811,-1.182129 c 0.559,-0.188 1.1196407,-0.3877695 1.6816407,-0.6137695 0.917,-0.377 1.8391994,-0.8119806 2.6791994,-1.3549806 0.823,-0.541 1.63032821,-1.1965938 1.98632821,-1.9335938 0.093,-0.18 0.14471095,-0.36020315 0.17871095,-0.53320315 0.022,-0.174 0.0338164,-0.34403518 -0.0131835987,-0.56103518412 L -0.0221479,-0.09317184 -0.06609321,-0.22500778 -0.18328072,-0.48867967 c -0.097,-0.177 -0.21760548,-0.35580862 -0.37060548,-0.52880863 -0.599,-0.696 -1.5260236,-1.2819259 -2.4990236,-1.7739259 l -0.039551,-0.019043 c -0.3,0.562 -0.6221211,1.1264297 -0.9741211,1.6904297 -0.999,1.59200004 -2.2118283,3.1917815 -3.6738283,4.6757815 l 0.1347656,0.1025391 c 0.127,0.112 0.2449571,0.2289141 0.3559571,0.3369141 0.236,0.222 0.3533438,0.4113477 0.5273438,0.6313477 0.089,0.126 0.1544726,0.2506054 0.2094726,0.3706054 z M -35.352716,2.9214768 c 0.093,-0.061 0.175996,-0.1127813 0.270996,-0.1757813 0.336,-0.196 0.707379,-0.3529219 1.088379,-0.5449219 0.381,-0.2 0.794285,-0.3329063 1.217285,-0.5039063 0.212,-0.084 0.429856,-0.1577695 0.651856,-0.2387695 0.224,-0.066 0.451617,-0.1322188 0.682617,-0.1992188 0.462,-0.146 0.940152,-0.2721836 1.431152,-0.3881836 -0.454,-1.506 -0.816254,-3.0373127 -1.135254,-4.5703127 -0.132,-0.678 -0.249886,-1.3600626 -0.358886,-2.0390626 -1.335,0.157 -2.6112,0.3440781 -3.8042,0.5800781 -1.996,0.392 -3.770211,0.8902384 -5.241211,1.4692384 0.521,0.921 1.083613,1.8168048 1.703613,2.6748048 1.027,1.43 2.200653,2.7580354 3.493653,3.9360354 z M -8.9884569,2.7193283 c 1.529,-1.403 2.832133,-2.94446507 3.911133,-4.5014651 0.338,-0.494 0.6492891,-0.9888868 0.9462891,-1.4838868 l -0.4731446,-0.1904297 c -0.555,-0.245 -1.0851172,-0.3949648 -1.6201172,-0.5639648 l -0.8027345,-0.2548829 -0.84375,-0.2094726 c -0.567,-0.132 -1.118754,-0.3039024 -1.697754,-0.3999024 -1.6549999,-0.376 -3.3438789,-0.6237774 -5.0258789,-0.8217774 -0.042,0.311 -0.08091,0.6180352 -0.128907,0.9360352 -0.256,1.668 -0.582265,3.4414378 -1.072265,5.2734378 0.094,0.017 0.192109,0.0284102 0.287109,0.0454102 1.028,0.192 2.013547,0.42558988 2.935547,0.70458984 0.925,0.267 1.781293,0.5853595 2.550293,0.9433595 0.3680003,0.16 0.7121801,0.3379492 1.0341801,0.5229492 z M -27.965509,0.46053913 c 0.861,-0.134 1.742692,-0.26819533 2.658692,-0.32519533 1.128,-0.122 2.159828,-0.1158086 3.298828,-0.1538086 1.111,0.016 2.221012,0.04194922 3.312012,0.14794922 0.471,0.036 0.933996,0.0904141 1.395996,0.14941407 0.582,-1.80899999 1.029672,-3.58711359 1.388672,-5.26611359 0.06,-0.287 0.110992,-0.5642148 0.166992,-0.8452148 -0.247,-0.026 -0.492281,-0.057031 -0.738281,-0.082031 -2.312,-0.159 -4.585129,-0.3099688 -6.807129,-0.2929688 -2.126,0.015 -4.169583,0.090883 -6.121583,0.2548829 0.105,0.615 0.215844,1.2293087 0.339844,1.8413087 0.303,1.543 0.660957,3.0817775 1.105957,4.57177753 z m -17.034669,-0.24609377 -0.0029,-0.1538086 c 10e-4,-0.146 0.01875,-0.36460159 0.09375,-0.64160159 0.15,-0.55299997 0.573066,-1.32466807 1.393066,-2.03466807 0.243,-0.22 0.519453,-0.4349258 0.814453,-0.6489258 -1.213,-2.296 -2.140808,-4.7263129 -2.778808,-7.1953133 -0.267,-1.016 -0.478067,-2.041383 -0.643067,-3.067383 -0.362,-0.135 -0.72259,-0.278199 -1.07959,-0.429199 -0.113,0.055 -0.234773,0.108063 -0.342773,0.164063 -1.068,0.559 -1.937715,1.163179 -2.532715,1.784179 -0.497,0.522 -0.805586,1.026872 -0.975586,1.442872 0.132,0.419 0.267016,0.8369763 0.416016,1.2509763 1.255,3.459 3.195183,6.7068091 5.638183,9.52880906 z m 4.089844,-4.56005886 c 1.474,-0.76 3.278708,-1.4421172 5.324708,-1.9951172 1.208,-0.333 2.507187,-0.6203282 3.867187,-0.8613282 -0.161,-1.158 -0.300226,-2.3157502 -0.407226,-3.4687501 -3.772,-0.327 -7.650954,-0.915598 -11.501954,-2.037598 -0.101,-0.029 -0.199293,-0.06082 -0.300293,-0.09082 0.127,0.609 0.262875,1.216801 0.421875,1.820801 0.606,2.2859997 1.475703,4.5248125 2.595703,6.6328125 z m 37.7856469,-0.7250977 c 0.629,-1.218 1.1471719,-2.4175704 1.5761719,-3.5595704 0.68400004,-1.8820004 1.14373058,-3.6104454 1.44873058,-5.1064454 -0.139,0.047 -0.27594533,0.09509 -0.41894533,0.14209 -2.49900005,0.819 -5.39691445,1.480133 -8.58691445,2.036133 -1.5909996,0.274 -3.2553286,0.504406 -4.9863286,0.691406 -0.055,0.9719998 -0.138418,2.0167227 -0.253418,3.1157227 1.738,0.187 3.485239,0.4222695 5.2192387,0.8012695 0.601,0.106 1.1906447,0.2915235 1.7856447,0.4365235 l 0.890625,0.2329101 0.8964844,0.2958985 c 0.598,0.196 1.2063751,0.3854883 1.7343751,0.6254883 z M -29.657403,-7.5243246 c 2.005,-0.278 4.140773,-0.478457 6.342773,-0.543457 2.258,-0.073 4.615095,-0.044883 6.996095,0.1201172 0.315,0.029 0.632218,0.061285 0.949218,0.092285 0.176,-1.03 0.325637,-2.011547 0.452637,-2.9355467 -1.49,0.145 -3.01675,0.265308 -4.59375,0.341308 -3.35,0.163 -6.888692,0.153758 -10.533692,-0.07324 0.107,0.9990001 0.238719,1.9995354 0.386719,2.9985354 z m -21.487794,-3.3164064 c 0.129,-0.419 0.356605,-0.917477 0.745605,-1.438477 0.514,-0.701 1.292043,-1.422402 2.269043,-2.087402 -0.548,-0.256 -1.089047,-0.53475 -1.623047,-0.84375 -0.922,-0.545 -1.829789,-1.167582 -2.633789,-1.996582 l 0.06592,0.736816 0.109863,0.802735 c 0.227,1.62 0.583407,3.23666 1.066407,4.82666 z m 31.615724,-0.556641 c 1.613,-0.004 3.179473,-0.05423 4.709473,-0.13623 0.197,-1.53 0.334988,-2.894715 0.437988,-4.032715 0.075,-0.852 0.133246,-1.582153 0.177246,-2.181153 -0.603,-0.045 -1.209336,-0.08791 -1.819336,-0.128906 -1.97,-0.122 -3.976422,-0.176062 -5.982422,-0.164062 -1.007,0.019 -2.012649,0.03666 -3.014649,0.05566 -0.502,0.013 -1.013324,0.0056 -1.507324,0.03662 -0.492,0.033 -0.983168,0.06468 -1.472168,0.09668 -0.489,0.033 -0.976914,0.06614 -1.461914,0.09814 -0.356,0.02 -0.709012,0.03885 -1.062012,0.06885 0.055,1.627 0.153461,3.276059 0.272461,4.935059 0.022,0.258 0.04878,0.516902 0.07178,0.774902 3.661,0.411 7.24288,0.586148 10.65088,0.577148 z m 5.472656,-0.175781 c 1.69,-0.106 3.322325,-0.256172 4.8823249,-0.451172 3.196,-0.383 6.0959575,-0.99684 8.60595746,-1.73584 0.172,-0.05 0.33637112,-0.101808 0.50537112,-0.153808 0.033,-0.168 0.06475,-0.334582 0.09375,-0.496582 0.052,-0.264 0.09376563,-0.518114 0.13476563,-0.766114 -0.135,-0.045 -0.26243752,-0.09223 -0.39843752,-0.13623 -1.42399999,-0.455 -3.00010569,-0.844848 -4.68310569,-1.193848 -1.684,-0.345 -3.4783557,-0.613004 -5.3393559,-0.854004 -1.22,-0.159 -2.47507,-0.27314 -3.74707,-0.36914 0.022,0.598 0.04055,1.329152 0.03955,2.181152 0,1.122 -0.01975,2.465586 -0.09375,3.975586 z m -18.200684,-0.650391 c -0.009,-0.124 -0.02176,-0.24807 -0.03076,-0.37207 -0.112,-1.472 -0.1655,-2.935813 -0.1875,-4.382813 -0.002,-0.17 -4.65e-4,-0.336836 -0.0015,-0.506836 -0.425,0.044 -0.858808,0.0893 -1.278808,0.133301 -0.934,0.095 -1.837399,0.289297 -2.733399,0.404297 -0.445,0.065 -0.88143,0.12936 -1.31543,0.19336 -0.439,0.085 -0.873781,0.169953 -1.300781,0.251953 -1.668,0.351 -3.249852,0.742847 -4.672852,1.193847 -0.191,0.062 -0.370176,0.125965 -0.555176,0.188965 l 0.01465,0.121582 c 0.418,0.151 0.836766,0.298129 1.259766,0.432129 1.969,0.64 3.988605,1.113973 5.995605,1.521973 1.606,0.332 3.210153,0.601312 4.806153,0.820312 z m 32.66748203,-1.836914 c 0.497,-0.16 0.97454697,-0.327976 1.43554697,-0.500976 -0.421,-0.169 -0.86621884,-0.334653 -1.32421884,-0.493653 -0.021,0.229 -0.043707,0.462055 -0.074707,0.706055 -0.011,0.093 -0.0246211,0.193574 -0.0366211,0.288574 z M -46.415217,-15.837313 c -0.186,-2.001 -0.203496,-3.986926 -0.0835,-5.898926 0.102,-1.556 0.310981,-3.063368 0.604981,-4.526368 l -0.07471,0.03076 c -0.95,0.394 -1.882118,0.830656 -2.745118,1.347656 -0.858,0.516 -1.679015,1.098715 -2.291015,1.782715 -0.314,0.337 -0.557141,0.702407 -0.744141,1.066407 -0.066,0.186 -0.163965,0.36771 -0.188965,0.55371 -0.015,0.091 -0.05381,0.181926 -0.0498,0.273926 l -0.0088,0.137696 -0.0073,0.06885 -0.0029,0.03369 -0.0015,0.02051 0.02637,0.333985 c 0.002,0.164 0.04266,0.178672 0.05566,0.263672 0.011,0.126 0.116641,0.341554 0.181641,0.518554 0.186,0.364 0.428675,0.726942 0.742675,1.064942 0.612,0.684 1.432016,1.267715 2.291016,1.782715 0.725,0.433 1.50341,0.802508 2.29541,1.145508 z m 1.932129,-0.486328 c 0.096,-0.04 0.186645,-0.08305 0.285645,-0.123047 1.432,-0.598 3.019629,-1.13868 4.744629,-1.59668 0.422,-0.108 0.849203,-0.218125 1.283203,-0.328125 0.447,-0.096 0.89991,-0.191574 1.35791,-0.288574 0.456,-0.094 0.914419,-0.18825 1.378419,-0.28125 0.465,-0.089 0.933109,-0.198418 1.412109,-0.253418 0.505,-0.072 1.026016,-0.146727 1.541016,-0.219727 0.005,-0.643 0.04113,-1.228238 0.05713,-1.844238 0.026,-0.589 0.04152,-1.169094 0.06152,-1.746094 -2.942,-0.31 -5.944153,-0.814711 -8.931153,-1.678711 -0.976,-0.282 -1.950109,-0.604164 -2.912109,-0.993164 -0.216,1.312 -0.363594,2.650094 -0.433594,3.996094 -0.084,1.778 -0.03373,3.566934 0.155273,5.356934 z m 24.682619,-7.341798 c 3.274,0.015 6.378192,-0.172738 9.221192,-0.531738 2.8449997,-0.34 5.4275977,-0.880156 7.6625977,-1.535156 1.689,-0.486 3.17610961,-1.064149 4.4121096,-1.702149 -0.65399999,-0.238 -1.34096494,-0.463828 -2.06396494,-0.673828 -2.51899996,-0.718 -5.41042236,-1.347981 -8.60742236,-1.729981 -3.194,-0.397 -6.677446,-0.620812 -10.356446,-0.632812 -3.391,-0.015 -6.970118,0.162824 -10.620118,0.569824 -0.025,0.251 -0.05271,0.49693 -0.07471,0.75293 -0.031,0.313 -0.06128,0.628754 -0.09229,0.947754 -0.024,0.318 -0.03427,0.638937 -0.05127,0.960937 -0.031,0.642 -0.06422,1.293172 -0.09522,1.951172 -0.02,0.303 -0.03341,0.609922 -0.04541,0.919922 0.15,0.019 0.298242,0.04206 0.448242,0.06006 3.532,0.44 6.982696,0.638066 10.262696,0.643066 z m -12.473145,-0.953613 c 0.019,-0.25 0.03792,-0.498535 0.06592,-0.748535 0.061,-0.676 0.122105,-1.343907 0.183105,-2.003907 0.031,-0.33 0.05429,-0.65891 0.09229,-0.98291 0.046,-0.324 0.09123,-0.644867 0.136231,-0.963867 0.019,-0.134 0.03666,-0.264437 0.05566,-0.398437 -1.766,0.231 -3.545172,0.520695 -5.326172,0.887695 -1.959,0.404 -3.931446,0.862422 -5.856446,1.482422 0.721,0.293 1.452731,0.568199 2.198731,0.804199 1.748,0.572 3.541172,0.99484 5.326172,1.36084 1.042,0.217 2.084512,0.4015 3.124512,0.5625 z m -19.79004,-0.354492 c 0.72,-0.673 1.508058,-1.207176 2.310058,-1.680176 0.62,-0.36 1.254043,-0.676797 1.894043,-0.966797 -0.497,-0.352 -0.978898,-0.745609 -1.420898,-1.224609 -0.381,-0.404 -0.725953,-0.880364 -1.001953,-1.422364 -0.076,-0.186 -0.155192,-0.355851 -0.221192,-0.547851 -0.696,1.853 -1.219058,3.822797 -1.560058,5.841797 z m 6.572754,-3.587403 0.152344,-0.05273 c 0.328,-1.199 0.711437,-2.360934 1.148437,-3.481934 0.306,-0.785 0.659559,-1.540621 0.997559,-2.286621 0.189,-0.364 0.378965,-0.722055 0.563965,-1.081055 l 0.279785,-0.534668 c 0.115,-0.209 0.205082,-0.345484 0.309082,-0.521484 0.185,-0.3 0.367316,-0.59902 0.549316,-0.89502 l -0.541992,0.180176 -1.27002,0.52002 -0.622558,0.247558 -0.643067,0.303223 c -0.389,0.195 -0.78941,0.400812 -1.17041,0.632812 -0.762,0.453 -1.473625,0.973383 -2.015625,1.567383 -0.266,0.297 -0.488207,0.608852 -0.637207,0.922852 -0.075,0.156 -0.127457,0.311285 -0.168457,0.467285 l -0.04102,0.231445 -0.0044,0.117188 -0.0044,0.05713 -0.0015,0.0293 -0.0015,0.0029 0.0249,0.303223 0.0059,0.08936 0.01465,0.04687 0.02637,0.08496 c 0.006,0.094 0.09788,0.284129 0.150879,0.432129 0.161,0.312 0.370531,0.626387 0.644531,0.921387 0.534,0.597 1.25616,1.112848 2.01416,1.568848 z m 2.049316,-0.643066 c 3.994,-1.148 8.01604,-1.721668 11.91504,-2.034668 0.081,-0.607 0.166828,-1.204645 0.298828,-1.785645 0.087,-0.405 0.164164,-0.796383 0.243164,-1.192383 -1.868,-0.226 -3.760832,-0.571351 -5.652832,-1.110351 -1.235,-0.349 -2.46511,-0.793504 -3.66211,-1.416504 -0.17,0.309 -0.34216,0.619105 -0.51416,0.933105 -0.367,0.646 -0.671531,1.368965 -1.019531,2.063965 -0.298,0.722 -0.611371,1.450985 -0.880371,2.208985 -0.266,0.757 -0.512028,1.535496 -0.728028,2.333496 z m 23.100587,-5.693848 c 2.459,0.032 4.807684,-0.09417 6.950684,-0.347168 2.148,-0.24 4.0965983,-0.642535 5.7875983,-1.123535 1.694,-0.472 3.1180588,-1.078883 4.1850588,-1.754883 0.186,-0.117 0.3560196,-0.234028 0.5200196,-0.353028 l -0.024902,-0.0059 c -1.127,-0.302 -2.3169806,-0.649977 -3.6049806,-0.875977 -0.644,-0.119 -1.2916095,-0.28907 -1.9746095,-0.37207 -0.679,-0.093 -1.3740079,-0.190039 -2.0830082,-0.290039 -0.708,-0.113 -1.439152,-0.156051 -2.181152,-0.227051 -0.743,-0.059 -1.496114,-0.14857 -2.266114,-0.18457 -1.544,-0.047 -3.135855,-0.156258 -4.776855,-0.114258 -0.814,0.012 -1.656516,-0.0012 -2.478516,0.02783 -0.845,0.04 -1.699942,0.08058 -2.564942,0.121582 -0.867,0.034 -1.717379,0.138543 -2.588379,0.206543 -0.329,0.03 -0.658304,0.05689 -0.987304,0.08789 -0.326,1.209 -0.621231,2.505738 -0.886231,3.906738 -0.03,0.175 -0.05743,0.361992 -0.08643,0.541992 0.443,0.069 0.886614,0.141219 1.328614,0.199219 2.657,0.352 5.249445,0.525641 7.731445,0.556641 z m -10.290527,-0.965332 c 0.045,-0.197 0.08137,-0.399797 0.130371,-0.591797 0.305,-1.248 0.647066,-2.421949 1.018066,-3.522949 -0.196,0.025 -0.388473,0.04824 -0.584473,0.07324 -0.884,0.108 -1.774621,0.212929 -2.661621,0.377929 -0.887,0.158 -1.78834,0.276258 -2.67334,0.489258 -0.887,0.207 -1.794805,0.34991 -2.674805,0.60791 -0.225,0.061 -0.452687,0.119247 -0.679687,0.177247 0.252,0.12 0.507578,0.236238 0.767578,0.344238 0.626,0.265 1.265875,0.512168 1.921875,0.722168 1.305,0.437 2.65077,0.759969 3.98877,1.042969 0.481,0.105 0.965266,0.191785 1.447266,0.279785 z m -16.740236,-1.072266 c 0.196,-0.126 0.393262,-0.249211 0.593262,-0.366211 0.439,-0.258 0.887051,-0.484449 1.352051,-0.710449 l 0.651855,-0.297363 0.70459,-0.273926 0.944825,-0.354492 c -0.168,-0.221 -0.326426,-0.458704 -0.461426,-0.720704 -0.099,-0.241 -0.199137,-0.431929 -0.265137,-0.752929 -0.082,-0.347 -0.07582,-0.483969 -0.09082,-0.667969 l 0.0088,-0.159668 c -0.8,0.843 -1.584805,1.737707 -2.299805,2.699707 -0.282,0.349 -0.537918,0.764043 -0.815918,1.144043 z m 6.440919,-2.682129 c 0.424,-0.118 0.849414,-0.233379 1.274414,-0.338379 0.082,-0.105 0.162023,-0.209082 0.249023,-0.309082 1.89,-2.255 3.96279,-4.029465 6.00879,-5.251465 0.369,-0.226 0.733703,-0.429559 1.095703,-0.622559 -1.264,0.276 -2.533579,0.583094 -3.767579,0.996094 -0.656,0.212 -1.297875,0.455098 -1.921875,0.725098 -0.627,0.262 -1.239758,0.55016 -1.801758,0.88916 -0.558,0.337 -1.084449,0.717113 -1.460449,1.141113 -0.193,0.208 -0.333453,0.426278 -0.439453,0.634278 -0.035,0.103 -0.09254,0.205222 -0.102539,0.303222 l -0.0249,0.14502 -0.0044,0.07178 -0.0044,0.03662 -0.0015,0.01611 0.01611,0.208008 c 0.002,0.121 0.0243,0.09177 0.0293,0.134765 -0.003,0.037 0.06075,0.174067 0.09375,0.268067 0.106,0.208 0.248383,0.424812 0.442383,0.632812 0.096,0.111 0.204336,0.215336 0.319336,0.319336 z m 3.175781,-0.764648 c 2.539,-0.517 5.068086,-0.822207 7.538086,-1.012207 0.428,-0.032 0.856274,-0.06321 1.280274,-0.09521 0.106,-0.273 0.209336,-0.552059 0.319336,-0.810059 0.711,-1.689 1.51568,-3.09493 2.34668,-4.12793 0.21,-0.27 0.425066,-0.507773 0.643066,-0.717773 -0.811,0.076 -1.625754,0.163531 -2.447754,0.269531 -0.6,0.08 -1.202617,0.172461 -1.807617,0.272461 -0.986,0.463 -2.021707,1.041137 -3.074707,1.765137 -1.644,1.116 -3.273364,2.628055 -4.797364,4.456055 z"
         transform="matrix(0.35277776,0,0,-0.35277776,22.538221,8.2384608)"
         sodipodi:nodetypes="scccccccccccccccccccccccccccccccccccccccccccccccccccccccccccccccccccccccccccccccccccccccccccccccccccccccccccccccccccccccccccccccccccccccccccccccccccccccccscccccccccccccsscccccccccccccccccccccccccccccccsccccccccccccccccccccccccccccccccccccccccccccccccccccccccccccccccccccccccccccccccccccccccccccccccccccccccccccccccccccccccccccccccccccccccccccccccccccccccccccccccccccccccccccccccccccccccccccccccccccccccccccccccccccccccccccccccccccccccccccccccccccccccccccccccccccccccccccccccccccccccccccccccccccccccccccccccccccccccccccccccccccccccccccccccccccccccccccccccccccccccccccccccccccccccccccccccc" />
      <path
         id="path32"
         d="M 0,0 C 0.141,-0.024 0.356,-0.024 0.564,-0.024 1.893,-0.033 2.681,0.706 2.681,2.125 2.689,3.354 1.976,4.067 0.697,4.067 0.373,4.067 0.149,4.043 0,4.01 Z M -1.021,4.748 C -0.564,4.814 0,4.864 0.605,4.864 1.651,4.864 2.365,4.648 2.88,4.217 3.428,3.777 3.76,3.104 3.76,2.158 3.76,1.154 3.42,0.415 2.889,-0.066 2.332,-0.572 1.444,-0.83 0.356,-0.83 c -0.588,0 -1.037,0.033 -1.377,0.075 z"
         style="fill:#231f20;fill-opacity:1;fill-rule:nonzero;stroke:none"
         transform="matrix(0.35277776,0,0,-0.35277776,28.253293,24.520321)"
         clip-path="url(#clipPath33)" />
      <path
         id="path34"
         d="m 0,0 c 0,-1.145 0.573,-2.05 1.553,-2.05 0.987,0 1.544,0.921 1.544,2.092 0,1.054 -0.524,2.05 -1.544,2.05 C 0.54,2.092 0,1.154 0,0 m 4.176,0.075 c 0,-1.876 -1.138,-2.947 -2.673,-2.947 -1.586,0 -2.582,1.212 -2.582,2.848 0,1.726 1.088,2.938 2.665,2.938 1.627,0 2.59,-1.236 2.59,-2.839"
         style="fill:#231f20;fill-opacity:1;fill-rule:nonzero;stroke:none"
         transform="matrix(0.35277776,0,0,-0.35277776,33.099859,23.811661)"
         clip-path="url(#clipPath35)" />
      <path
         id="path36"
         d="m 0,0 c 0.133,-0.024 0.307,-0.024 0.539,-0.024 0.656,0 1.245,0.24 1.245,0.929 0,0.656 -0.572,0.921 -1.278,0.921 H 0 Z m 0,2.565 h 0.522 c 0.714,0 1.105,0.332 1.105,0.805 0,0.531 -0.398,0.773 -1.046,0.773 C 0.282,4.143 0.107,4.126 0,4.101 Z M -1.013,4.773 C -0.689,4.84 -0.1,4.897 0.481,4.897 1.229,4.897 1.701,4.798 2.075,4.541 2.424,4.334 2.656,3.968 2.656,3.486 2.656,2.972 2.332,2.507 1.727,2.283 V 2.258 C 2.315,2.108 2.855,1.644 2.855,0.88 2.855,0.382 2.64,-0.008 2.324,-0.282 1.926,-0.622 1.27,-0.797 0.24,-0.797 c -0.564,0 -0.987,0.042 -1.253,0.075 z"
         style="fill:#231f20;fill-opacity:1;fill-rule:nonzero;stroke:none"
         transform="matrix(0.35277776,0,0,-0.35277776,41.703969,24.532031)"
         clip-path="url(#clipPath37)" />
      <path
         id="path38"
         d="M 0,0 H 0.605 C 1.294,0 1.718,0.365 1.718,0.922 1.718,1.527 1.294,1.818 0.63,1.818 0.307,1.818 0.099,1.793 0,1.769 Z M -1.014,2.466 C -0.623,2.54 -0.059,2.59 0.531,2.59 1.336,2.59 1.876,2.457 2.258,2.142 2.564,1.885 2.739,1.494 2.739,1.013 c 0,-0.722 -0.49,-1.212 -1.021,-1.395 v -0.024 c 0.406,-0.15 0.647,-0.54 0.78,-1.079 0.183,-0.698 0.332,-1.345 0.44,-1.561 H 1.893 C 1.809,-2.88 1.668,-2.424 1.519,-1.727 1.353,-0.995 1.095,-0.764 0.514,-0.747 H 0 v -2.299 h -1.014 z"
         style="fill:#231f20;fill-opacity:1;fill-rule:nonzero;stroke:none"
         transform="matrix(0.35277776,0,0,-0.35277776,46.31936,23.717961)"
         clip-path="url(#clipPath39)" />
      <path
         id="path40"
         d="m 0,0 -0.439,1.378 c -0.109,0.34 -0.2,0.723 -0.283,1.046 H -0.738 C -0.821,2.101 -0.913,1.71 -1.004,1.378 L -1.436,0 Z m -1.602,-0.772 -0.481,-1.585 h -1.055 l 1.793,5.594 h 1.304 L 1.776,-2.357 H 0.673 l -0.507,1.585 z"
         style="fill:#231f20;fill-opacity:1;fill-rule:nonzero;stroke:none"
         transform="matrix(0.35277776,0,0,-0.35277776,51.537647,23.960849)"
         clip-path="url(#clipPath41)" />
      <path
         id="path42"
         d="m 0,0 c 0.324,-0.191 0.83,-0.357 1.354,-0.357 0.647,0 1.012,0.307 1.012,0.764 0,0.423 -0.282,0.672 -0.988,0.929 -0.93,0.332 -1.519,0.822 -1.519,1.627 0,0.922 0.764,1.61 1.984,1.61 0.606,0 1.046,-0.133 1.337,-0.282 L 2.938,3.47 C 2.731,3.577 2.341,3.735 1.818,3.735 1.171,3.735 0.896,3.395 0.896,3.063 0.896,2.631 1.221,2.432 1.968,2.142 2.938,1.776 3.403,1.286 3.403,0.481 c 0,-0.905 -0.68,-1.685 -2.116,-1.685 -0.598,0 -1.212,0.166 -1.519,0.357 z"
         style="fill:#231f20;fill-opacity:1;fill-rule:nonzero;stroke:none"
         transform="matrix(0.35277776,0,0,-0.35277776,55.362395,24.400094)"
         clip-path="url(#clipPath43)" />
      <path
         id="path44"
         d="m 707.244,164.088 h -1.021 v 5.595 h 1.021 z"
         style="fill:#231f20;fill-opacity:1;fill-rule:nonzero;stroke:none"
         transform="matrix(0.35277776,0,0,-0.35277776,-189.32307,82.678946)"
         clip-path="url(#clipPath45)" />
      <path
         id="path46"
         d="M 0,0 H 1.021 V -4.74 H 3.32 V -5.595 H 0 Z"
         style="fill:#231f20;fill-opacity:1;fill-rule:nonzero;stroke:none"
         transform="matrix(0.35277776,0,0,-0.35277776,63.518335,22.818801)"
         clip-path="url(#clipPath47)" />
    </g>
  </g>
</svg>
